<?xml version="1.0" encoding="iso-8859-1"?>
<!-- Generator: Adobe Illustrator 25.2.1, SVG Export Plug-In . SVG Version: 6.00 Build 0)  -->
<svg version="1.1" id="Layer_1" xmlns="http://www.w3.org/2000/svg" xmlns:xlink="http://www.w3.org/1999/xlink" x="0px" y="0px"
	 viewBox="0 0 714 714" style="enable-background:new 0 0 714 714;" xml:space="preserve">
<g>
	<g>
		<path style="fill:#FFE5D4;" d="M424.617,254.25c0,0,3.346-111.544-26.771-109.313c-30.117,2.231,13.385,109.313,13.385,109.313
			s-42.387-84.773-71.388-68.042s62.465,78.081,62.465,78.081s-66.926-32.348-82.543-12.27
			c-15.616,20.078,76.408,25.097,76.408,25.097s-83.455,20.615-70.83,48.522c10.597,23.424,82.264-42.944,82.264-42.944
			s-61.291,79.037-30.953,90.908c25.655,10.039,41.271-88.12,41.271-88.12s-7.808,94.812,18.962,100.39
			c26.771,5.577-3.904-100.947-3.904-100.947s34.021,95.37,63.022,77.523c29.001-17.847-49.079-83.658-49.079-83.658
			s67.484,49.079,80.312,20.078c12.014-27.163-79.754-32.348-79.754-32.348s90.08-11.408,79.754-42.387
			c-8.366-25.097-87.004,27.886-87.004,27.886s70.197-74.972,37.925-88.12C448.041,151.629,424.617,254.25,424.617,254.25z"/>
		<path d="M438.843,387.363c-0.706,0-1.445-0.081-2.217-0.242c-11.738-2.445-18.647-20.433-20.534-53.463
			c-0.61-10.671-0.577-21.269-0.348-29.805c-4.959,23.371-15.112,61.822-29.545,70.085c-3.284,1.881-6.652,2.165-10.011,0.853
			c-4.427-1.733-7.3-4.891-8.54-9.387c-5.098-18.484,19.103-55.876,31.739-73.695c-15.96,13.779-48.772,40.202-65.678,40.205
			c-0.936,0-1.82-0.08-2.652-0.249c-3.205-0.648-5.519-2.498-6.877-5.5c-1.968-4.35-1.881-8.79,0.257-13.197
			c4.484-9.238,17.908-18.294,39.9-26.919c9.308-3.65,18.26-6.447,24.232-8.176c-18.689-1.468-65.641-6.352-71.254-18.668
			c-1.166-2.559-0.681-5.24,1.442-7.971c12.076-15.524,51.949-1.742,72.187,6.629c-19.5-14.153-58.664-44.882-58.052-62.99
			c0.14-4.149,2.265-7.437,6.313-9.773c4.432-2.558,9.406-3.035,14.782-1.42c18.629,5.599,38.526,35.16,49.628,54.057
			c-9.258-25.806-24.147-73.329-14.526-88.83c1.988-3.202,4.902-4.967,8.662-5.245c3.81-0.281,7.3,1.07,10.382,4.02
			c16.053,15.363,17.866,71.703,17.886,95.739c5.801-21.714,20.591-69.906,39.859-79.931c4.271-2.224,8.564-2.483,12.761-0.775
			c4.846,1.975,7.83,5.377,8.867,10.115c4.265,19.469-26.21,57.16-39.943,72.927c17.319-10.879,57.624-34.393,74.126-28.781
			c3.373,1.149,5.647,3.42,6.758,6.752c1.613,4.841,1.031,9.521-1.732,13.913c-10.347,16.448-49.159,25.12-68.321,28.477
			c19.866,1.939,60.658,7.611,69.446,21.979c2.139,3.497,2.329,7.295,0.563,11.287c-2.094,4.734-5.682,7.814-10.664,9.154
			c-9.793,2.637-24.844-1.424-44.736-12.062c-4.515-2.414-8.781-4.912-12.526-7.214c16.949,15.985,44.558,44.968,43.214,63.023
			c-0.359,4.821-2.72,8.606-7.017,11.25c-4.3,2.645-8.947,3.119-13.812,1.409c-17.325-6.095-34.082-38.954-43.451-60.528
			c6.345,26.13,15.047,69.857,5.268,80.397C443.106,386.509,441.149,387.363,438.843,387.363z M417.923,284.205
			c0.051,0,0.102,0.003,0.154,0.009c0.681,0.082,1.176,0.688,1.12,1.372c-0.019,0.236-1.93,23.915-0.554,47.949
			c1.79,31.271,8.188,48.936,18.505,51.087c2.385,0.496,4.236-0.01,5.66-1.547c3.662-3.947,6.528-16.496-0.615-53.862
			c-4.322-22.611-10.377-43.725-10.437-43.936c-0.191-0.663,0.179-1.357,0.835-1.568c0.659-0.211,1.362,0.137,1.594,0.786
			c0.247,0.693,25.016,69.419,49.524,78.039c4.163,1.465,7.964,1.08,11.627-1.174c3.61-2.222,5.51-5.252,5.809-9.265
			c1.796-24.126-54.474-71.85-55.043-72.329c-0.525-0.443-0.606-1.222-0.182-1.763c0.424-0.541,1.201-0.648,1.755-0.245
			c0.472,0.343,47.421,34.232,69.402,28.315c4.259-1.146,7.2-3.671,8.992-7.721c1.426-3.225,1.293-6.144-0.406-8.922
			c-4.404-7.201-19.262-13.226-42.967-17.427c-18.127-3.213-35.117-4.199-35.286-4.208c-0.659-0.037-1.181-0.571-1.204-1.23
			c-0.022-0.659,0.461-1.228,1.116-1.311c0.641-0.081,64.27-8.364,77.233-28.972c2.369-3.766,2.85-7.607,1.47-11.745
			c-0.856-2.571-2.544-4.252-5.159-5.142c-8.033-2.736-24.346,2.18-47.179,14.213c-17.44,9.191-32.591,19.368-32.742,19.47
			c-0.539,0.361-1.264,0.262-1.685-0.231c-0.421-0.494-0.404-1.226,0.04-1.7c0.509-0.543,50.793-54.585,45.712-77.769
			c-0.859-3.921-3.259-6.635-7.337-8.296c-3.519-1.435-6.992-1.212-10.618,0.674c-23.477,12.214-41.021,88.014-41.196,88.778
			c-0.146,0.641-0.754,1.07-1.407,0.982c-0.651-0.083-1.134-0.648-1.114-1.304c0.026-0.86,2.352-86.19-16.973-104.684
			c-2.573-2.462-5.327-3.543-8.427-3.319c-2.941,0.218-5.126,1.541-6.681,4.046c-12.485,20.114,20.817,102.682,21.155,103.514
			c0.258,0.635-0.032,1.361-0.656,1.644c-0.625,0.282-1.362,0.021-1.668-0.592c-0.304-0.608-30.678-60.833-56.837-68.693
			c-4.739-1.424-8.917-1.035-12.771,1.186c-3.279,1.892-4.927,4.393-5.037,7.647c-0.749,22.174,66.892,67.81,67.575,68.268
			c0.557,0.373,0.729,1.114,0.396,1.695c-0.333,0.583-1.061,0.804-1.663,0.515c-0.166-0.08-16.877-8.116-35.252-13.599
			c-16.655-4.969-38.107-8.834-45.728,0.962c-1.515,1.948-1.886,3.696-1.134,5.345c5.181,11.369,57.054,16.627,76.604,17.695
			c0.631,0.034,1.142,0.525,1.201,1.155c0.059,0.63-0.351,1.207-0.965,1.359c-0.595,0.147-59.663,14.955-69.745,35.727
			c-1.817,3.744-1.892,7.351-0.228,11.029c1.014,2.242,2.668,3.567,5.056,4.05c7.949,1.598,23.412-6.028,44.737-22.076
			c16.294-12.262,30.301-25.199,30.44-25.329c0.488-0.45,1.24-0.453,1.73-0.004c0.49,0.449,0.554,1.199,0.146,1.724
			c-0.449,0.58-44.859,58.215-38.506,81.248c1.029,3.731,3.322,6.246,7.009,7.688c2.641,1.035,5.196,0.808,7.812-0.689
			c19.554-11.195,31.614-85.69,31.733-86.441C416.763,284.655,417.304,284.205,417.923,284.205z"/>
	</g>
	<g>
		<circle style="fill:#FFBD52;" cx="423.873" cy="268.378" r="10.039"/>
		<path d="M423.874,279.694c-6.24,0-11.316-5.076-11.316-11.316c0-6.24,5.076-11.315,11.316-11.315
			c6.24,0,11.315,5.076,11.315,11.315C435.189,274.618,430.113,279.694,423.874,279.694z M423.874,259.616
			c-4.832,0-8.763,3.931-8.763,8.762c0,4.832,3.931,8.763,8.763,8.763c4.831,0,8.762-3.931,8.762-8.763
			C432.636,263.547,428.705,259.616,423.874,259.616z"/>
	</g>
	<path style="fill:#C43158;" d="M374.97,274.017c0,0-3.355-14.857-0.958-27.796c2.396-12.94,12.46-35.464-1.917-41.215
		c-14.377-5.751-20.128,8.147-21.087,19.17c-0.958,11.023-12.46,30.672-12.46,30.672s-24.442-9.585-48.404,1.917
		s-24.442,55.592-24.442,55.592s-20.368,16.774-26.119,39.777c-5.751,23.004-7.908,43.851-3.594,52.477
		c4.313,8.626,10.064,10.064,10.064,10.064s-11.981,24.202,9.106,49.123c21.087,24.921,34.506,72.845,45.049,84.826
		s31.63,30.672,55.113,23.962s34.506-11.502,43.611-34.985c9.106-23.483,11.023-21.087,28.275-42.174
		c17.253-21.087,6.23-56.551,6.23-56.551s9.585-6.23,12.82-17.013c3.235-10.783,2.516-16.893,2.516-16.893
		s11.142-5.032,8.626-19.769c-2.516-14.737-15.456-22.644-6.11-27.676c9.345-5.032,10.424,24.801,25.16,23.004
		c14.737-1.797,12.94-19.05,3.954-28.036c-8.986-8.986-13.659-10.064-13.659-10.064s17.972-2.516,14.018-24.442
		c-3.954-21.926-52.837-15.456-52.837-15.456s-3.594-14.018-13.659-20.488s-9.345-15.815-2.516-20.488
		c9.553-6.536,17.612,5.751,26.239,4.313c8.626-1.438,18.691-17.612-3.954-32.709c-22.644-15.096-49.422-2.875-60.026,13.059
		L374.97,274.017z"/>
	<path d="M481.758,351.139c-4.223-4.223-7.55-6.777-9.956-8.314c2.454-1.113,5.401-3.009,7.704-6.19
		c3.488-4.818,4.545-11.207,3.142-18.987c-0.917-5.086-3.937-8.766-8.105-11.428c-0.062-0.047-0.127-0.088-0.196-0.128
		c-13.373-8.365-38.339-6.37-45.045-5.65c-1.305-4.021-5.389-14.474-13.998-20.009c-4.289-2.758-6.68-6.234-6.731-9.789
		c-0.042-2.89,1.511-5.626,4.26-7.507c4.629-3.168,8.805-1.034,13.639,1.436c3.742,1.912,7.608,3.889,11.833,3.186
		c4.448-0.741,9.692-4.941,11.106-11.532c1.06-4.939,0.61-14.71-14.312-24.658c-10.685-7.123-23.513-9.024-36.126-5.352
		c-7.986,2.326-15.477,6.784-21.186,12.453c0.075-0.28,0.15-0.563,0.225-0.846c3.481-13.092,7.813-29.386-5.207-34.594
		c-5.316-2.126-10.009-1.974-13.95,0.451c-7.831,4.82-9.447,16.78-9.756,20.331c-0.768,8.833-8.856,23.9-11.426,28.499
		c-0.518-0.171-1.16-0.371-1.904-0.587c-0.132-0.062-0.271-0.115-0.42-0.146c-0.064-0.013-0.127-0.014-0.191-0.026
		c-8.103-2.256-26.98-5.766-45.843,3.289c-23.129,11.101-25.305,49.873-25.508,56.417c-3.686,3.205-20.773,18.977-26.081,40.214
		c-3.042,12.167-9.467,41.764-3.45,53.798c3.102,6.202,6.973,9.022,9.291,10.234c-2.339,6.339-8.124,27.762,10.13,49.334
		c12.068,14.262,21.807,36.679,29.632,54.691c5.808,13.37,10.824,24.916,15.442,30.163c9.15,10.398,26.267,26.042,46.414,26.04
		c3.471,0,7.036-0.465,10.662-1.501c24.66-7.046,35.623-12.287,44.871-36.135c6.641-17.127,9.321-20.157,17.277-29.152
		c2.779-3.142,6.237-7.052,10.696-12.5c15.988-19.541,8.838-50.155,6.963-56.995c2.78-2.107,9.696-8.088,12.439-17.233
		c2.491-8.303,2.715-13.961,2.659-16.369c3.049-1.924,10.756-8.172,8.537-21.166c-1.086-6.362-3.98-11.458-6.305-15.553
		c-1.892-3.334-3.527-6.211-3.034-7.924c0.224-0.78,0.96-1.497,2.249-2.192c0.815-0.438,1.294-0.367,1.586-0.272
		c1.858,0.595,3.796,4.537,5.67,8.349c3.563,7.247,7.984,16.271,17.228,15.142c5.871-0.716,10.041-3.824,11.739-8.75
		C490.781,366.839,487.978,357.36,481.758,351.139z M452.694,303.945c3.893,0.344,8.095,0.991,11.983,2.126
		c-1.255,0.639-2.428,1.523-3.472,2.715c-5.873,6.706-6.945,20.819-3.491,26.865c0.353,0.618,0.999,0.966,1.664,0.966
		c0.322,0,0.648-0.082,0.948-0.253c0.918-0.524,1.237-1.694,0.712-2.612c-2.467-4.317-1.906-16.787,3.047-22.442
		c2.245-2.564,4.982-3.168,8.353-1.872c3.32,2.127,5.738,5,6.439,8.89c1.207,6.693,0.383,12.083-2.447,16.022
		c-3.198,4.449-8.126,5.797-9.546,6.104c-15.177-5.263-36.578-7.068-51.735,3.497c-12.169,8.48-18.534,23.425-18.948,44.404
		c-2.688,1.335-5.853,2.122-10.21,2.122c-1.541,0-2.891,0.151-4.077,0.411c0.75-12.102-3.874-17.087-8.065-19.125
		c-7.806-3.794-18.294,0.431-24.197,6.334c-4.677,4.677-9.798,7.107-14.449,6.854c-2.951-0.163-5.488-1.393-7.143-3.461
		c-2.095-2.62-3.498-7.329-2.126-11.264c1.097-3.143,3.751-5.216,7.887-6.162c13.081-2.99,17.769-8.695,17.962-8.936
		c0.411-0.514,0.529-1.202,0.314-1.823l-3.235-9.346c-1.61-4.653-1.441-11.778,0.433-18.154c2.268-7.719,6.754-13.589,12.632-16.528
		c10.21-5.108,22.163,0.987,28.586,4.261c2.541,1.295,3.809,1.923,4.852,2.039c1.704,0.188,3.759-0.817,7.151-2.482
		c5.384-2.643,13.518-6.637,25.699-8.67C428.687,304.365,440.52,302.869,452.694,303.945z M290.972,258.49
		c8.641-4.148,17.4-5.442,24.974-5.442c3.783,0,7.263,0.326,10.291,0.778c-0.994,0.68-1.967,1.505-2.911,2.481
		c-7.992,8.261-12.102,24.688-9.162,36.618c0.215,0.873,0.997,1.457,1.858,1.457c0.151,0,0.305-0.018,0.459-0.056
		c1.027-0.253,1.654-1.291,1.401-2.318c-2.616-10.613,1.138-25.743,8.196-33.039c1.849-1.911,4.737-4.006,8.094-3.492
		c1.833,0.499,3.034,0.917,3.477,1.078c4.374,2.87,5.669,11.205,3.289,21.324c-2.43,10.332-7.993,19.084-12.399,19.51
		c-2.039,0.198-3.997,0.219-5.89,0.241c-6.522,0.074-12.75,0.149-15.423,8.473c-1.234-2.353-2.903-4.147-5.018-5.35
		c-7.073-4.023-18.354-1.372-34.418,8.102C268.507,298.384,272.202,267.5,290.972,258.49z M237.701,403.754
		c-3.778-7.555-2.38-26.679,3.739-51.156c5.33-21.323,23.904-37.429,25.382-38.682c15.909-9.845,27.489-13.245,33.493-9.832
		c3.901,2.219,5.8,7.57,5.646,15.905c-0.166,8.952,1.03,16.017,1.992,21.694c1.848,10.908,2.865,16.917-7.019,24.766
		c-4.763,3.782-11.307,7.817-18.233,12.086c-15.792,9.736-33.567,20.7-37.897,33.487
		C243.014,410.972,240.151,408.654,237.701,403.754z M425.725,494.216c-4.411,5.392-7.843,9.271-10.6,12.389
		c-8.07,9.124-11.09,12.539-17.979,30.305c-8.661,22.336-18.494,27.019-42.352,33.836c-22.639,6.469-43.019-11.874-53.15-23.387
		c-4.219-4.795-9.124-16.084-14.804-29.158c-7.925-18.242-17.789-40.947-30.221-55.639c-19.978-23.611-9.313-46.095-8.851-47.038
		c0.068-0.137,0.115-0.281,0.147-0.428c0.002-0.011,0.01-0.019,0.012-0.03c2.525-12.149,20.725-23.37,36.783-33.27
		c7.027-4.332,13.663-8.422,18.605-12.347c11.657-9.256,10.297-17.289,8.414-28.405c-0.983-5.808-2.098-12.39-1.939-20.984
		c0.037-1.969-0.041-3.798-0.223-5.498c0.122-0.232,0.203-0.49,0.22-0.768c0.762-12.195,4.82-12.241,12.905-12.333
		c1.973-0.022,4.014-0.045,6.216-0.258c7.367-0.713,13.332-12.135,15.758-22.446c2.62-11.14,1.245-20.053-3.632-24.405
		c2.708-4.825,11.041-20.338,11.881-30.012c0.556-6.389,2.936-14.315,7.948-17.4c2.852-1.756,6.39-1.81,10.52-0.157
		c9.143,3.657,6.862,15.263,2.928,30.055c-0.86,3.233-1.672,6.288-2.174,8.988c-0.006,0.029-0.012,0.059-0.017,0.089
		c-2.424,13.164,0.842,27.901,0.982,28.523c0.234,1.031,1.255,1.682,2.289,1.446c1.031-0.233,1.679-1.257,1.447-2.289
		c-0.032-0.143-3.172-14.339-1.014-26.639c5.338-7.829,14.362-14.193,24.22-17.064c8.138-2.371,20.46-3.452,32.931,4.861
		c13.038,8.692,13.548,16.68,12.692,20.668c-1.045,4.868-4.897,8.042-7.991,8.558c-2.98,0.49-6.126-1.115-9.462-2.819
		c-5.174-2.642-11.036-5.638-17.544-1.186c-3.827,2.619-5.988,6.527-5.927,10.723c0.07,4.881,3.085,9.482,8.49,12.956
		c7.129,4.583,10.853,13.439,12.217,17.379c-11.585,2.227-19.674,6.196-24.62,8.625c-2.054,1.01-4.396,2.157-5.027,2.115
		c-0.481-0.082-2.111-0.913-3.55-1.646c-7.024-3.582-20.097-10.248-32.038-4.275c-6.84,3.42-12.023,10.124-14.594,18.875
		c-2.083,7.089-2.231,15.13-0.377,20.486l2.845,8.22c-1.619,1.462-6.147,4.847-15.121,6.899c-6.858,1.567-9.577,5.56-10.649,8.633
		c-1.915,5.492,0.084,11.582,2.751,14.918c2.311,2.887,5.927,4.671,9.922,4.892c5.74,0.312,11.911-2.512,17.368-7.97
		c5.037-5.037,13.823-8.508,19.814-5.598c4.715,2.292,6.696,8.256,5.765,17.254c-2.368,1.487-3.494,3.508-4.024,4.97
		c-2.64,7.293,2.528,18.489,12.288,26.622l0.453,0.378c11.287,9.409,22.082,18.407,35.678,18.406c3.103,0,6.354-0.476,9.787-1.514
		C434.033,448.773,439.934,476.85,425.725,494.216z M444.424,421.315c-2.758,9.193-10.601,14.962-11.847,15.832
		c-17.346,6.11-29.457-3.977-43.467-15.657l-0.453-0.378c-8.427-7.021-13.215-16.642-11.139-22.376
		c1.325-3.661,5.34-4.429,8.475-4.429c10.871,0,15.678-4.454,21.244-9.612c3.208-2.973,6.844-6.342,12.265-9.315
		c4.858-2.664,9.361-2.948,13.384-0.846c7.213,3.769,12.31,14.938,13.984,30.642c0,0.003,0.002,0.006,0.002,0.01
		c0,0.001,0,0.003,0,0.004C446.878,405.246,447.48,411.127,444.424,421.315z M484.801,372.432c-1.23,3.567-4.118,5.652-8.583,6.196
		c-3.44,0.421-5.986-1.229-8.273-4.213c0.029-0.869,0.322-5.224,3.274-8.01c1.989-1.877,4.856-2.714,8.523-2.475
		c1.061,0.074,1.965-0.733,2.034-1.789c0.067-1.055-0.733-1.966-1.788-2.033c-4.793-0.302-8.633,0.884-11.428,3.541
		c-1.906,1.812-2.991,4.014-3.614,5.972c-0.676-1.253-1.355-2.596-2.055-4.021c-2.431-4.944-4.53-9.215-7.939-10.307
		c-1.479-0.474-3.016-0.289-4.57,0.549c-2.243,1.207-3.589,2.68-4.113,4.503c-0.939,3.261,0.969,6.621,3.383,10.873
		c2.291,4.035,4.888,8.608,5.861,14.307c1.538,9.012-2.467,13.938-5.211,16.179c-2.162-15.598-7.665-26.396-15.642-30.563
		c-5.157-2.694-11.034-2.389-16.999,0.881c-5.837,3.201-9.657,6.741-13.027,9.865c-1.577,1.461-3.028,2.799-4.524,3.967
		c0.829-18.327,6.614-31.362,17.231-38.761c14.132-9.851,34.456-7.936,48.764-2.858c0.044,0.016,0.089,0.021,0.133,0.033
		c0.017,0.005,0.029,0.017,0.046,0.021c0.044,0.011,4.456,1.25,12.766,9.559C484.205,359.001,486.677,366.991,484.801,372.432z"/>
	<path d="M257.427,491.629c-0.18-0.172-18.101-17.481-29.502-47.624c-10.509-27.786-17.471-72.501,9.045-127.742
		c0.305-0.635,0.037-1.398-0.598-1.703c-0.635-0.305-1.398-0.037-1.703,0.598c-2.145,4.468-4.05,8.861-5.779,13.191
		c0.359-6.732-0.498-14.465-5.532-17.888c-1.909-1.298-3.921-1.495-5.665-0.556c-2.853,1.538-4.643,5.985-4.561,11.328
		c0.1,6.466,3.156,14.815,11.315,19.349c-2.68,8.268-4.637,16.25-5.989,23.917c-1.525-7.281-4.988-17.871-12.4-19.813
		c-2.232-0.587-4.196-0.098-5.525,1.369c-2.174,2.404-2.375,7.192-0.511,12.201c2.262,6.076,7.957,12.944,17.205,14.464
		c-1.189,9.529-1.454,18.525-1.044,26.942c-3.525-6.509-10.237-16.447-18.222-16.101c-2.307,0.107-4.035,1.157-4.864,2.955
		c-1.359,2.943-0.122,7.573,3.152,11.798c3.528,4.553,9.822,8.909,17.691,8.909c0.904,0,1.835-0.081,2.779-0.203
		c0.976,9.974,2.866,19.032,5.209,27.073c-4.562-5.87-12.178-13.673-19.591-12.222c-2.267,0.444-3.823,1.734-4.381,3.634
		c-0.914,3.11,0.986,7.511,4.842,11.212c3.596,3.452,9.22,6.454,15.715,6.454c1.949,0,3.981-0.292,6.056-0.902
		c0.333,0.933,0.669,1.851,1.01,2.749c2.648,6.985,5.643,13.285,8.691,18.865c-6.258-3.485-18.541-9.086-25.46-3.968
		c-1.858,1.373-2.709,3.205-2.399,5.161c0.509,3.201,4.113,6.362,9.183,8.05c2.197,0.732,4.747,1.188,7.436,1.188
		c4.706,0,9.828-1.429,14.234-5.194c9.338,15.605,18.274,24.232,18.402,24.354c0.247,0.234,0.563,0.352,0.88,0.352
		c0.337,0,0.674-0.133,0.925-0.396C257.957,492.923,257.937,492.115,257.427,491.629z M215.685,321.194
		c-0.066-4.266,1.258-7.984,3.22-9.041c0.35-0.189,0.713-0.283,1.092-0.283c0.597,0,1.234,0.234,1.925,0.704
		c6.818,4.635,4.16,20.309,3.084,25.406C216.546,332.881,215.728,323.93,215.685,321.194z M202.416,357.366
		c-1.488-3.998-1.484-7.944,0.012-9.597c0.469-0.519,1.075-0.777,1.833-0.777c0.35,0,0.733,0.055,1.151,0.164
		c7.975,2.09,10.71,17.751,11.4,22.913C207.134,368.092,203.37,359.93,202.416,357.366z M198.267,396.752
		c-2.614-3.372-3.786-7.141-2.852-9.163c0.429-0.929,1.301-1.411,2.665-1.475c0.111-0.005,0.22-0.008,0.33-0.008
		c8.099,0,15.217,13.818,17.386,18.477C205.975,405.578,199.944,398.916,198.267,396.752z M204.567,434.878
		c-3.079-2.956-4.79-6.513-4.161-8.651c0.289-0.982,1.081-1.587,2.422-1.849c0.463-0.091,0.929-0.133,1.399-0.133
		c7.731,0,16.124,11.715,18.825,15.816C213.474,442.49,206.54,436.772,204.567,434.878z M216.402,470.707
		c-4.048-1.348-7.119-3.827-7.469-6.028c-0.16-1.01,0.296-1.896,1.395-2.709c1.54-1.138,3.471-1.597,5.588-1.597
		c6.994,0,15.988,5.015,19.408,7.089C227.716,473.76,218.998,471.573,216.402,470.707z"/>
	<path d="M466.598,478.566c-2.265-0.694-6.238,0.101-8.893,2.158c0.406-2.079,0.731-4.246,0.962-6.501
		c0.16,0.003,0.334,0.005,0.523,0.005c2.352,0,6.787-0.29,8.935-2.329c0.858-0.813,1.305-1.851,1.293-3.002
		c-0.016-1.55-1.062-2.647-2.726-2.864c-2.113-0.28-5.382,0.861-7.676,2.887c0.061-1.883,0.054-3.824-0.024-5.819
		c1.884-0.33,7.187-1.48,9.116-4.257c0.674-0.971,0.901-2.078,0.655-3.203c-0.331-1.513-1.576-2.384-3.252-2.249
		c-2.111,0.158-5.058,1.92-6.896,4.347c-0.193-1.92-0.451-3.886-0.782-5.902c1.755-0.886,6.41-3.49,7.447-6.67
		c0.367-1.125,0.265-2.25-0.294-3.255c-0.751-1.355-2.192-1.825-3.761-1.219c-1.621,0.623-3.472,2.444-4.673,4.654
		c-0.327-1.416-0.699-2.86-1.097-4.319c0.538-1.593,2.203-7.114,0.596-10.245c-0.539-1.052-1.41-1.773-2.518-2.084
		c-1.494-0.42-2.839,0.276-3.514,1.813c-1.233,2.803-0.337,8.731,2.987,11.236c0.43,1.582,0.824,3.141,1.169,4.669
		c-0.67-0.784-1.419-1.444-2.249-1.834c-1.07-0.506-2.202-0.544-3.267-0.113c-1.437,0.578-2.08,1.95-1.677,3.58
		c0.707,2.861,4.742,6.81,8.754,7.063c0.41,3.085,0.648,6.048,0.73,8.888c-0.614-1.049-1.356-1.976-2.253-2.556
		c-0.992-0.641-2.106-0.83-3.223-0.546c-1.502,0.381-2.321,1.654-2.139,3.324c0.311,2.85,3.604,7.137,7.411,8.094
		c-0.285,3.591-0.815,6.956-1.537,10.098c-0.31-1.204-0.78-2.325-1.504-3.142c-0.785-0.885-1.808-1.366-2.958-1.393
		c-1.521,0.016-2.68,0.972-2.952,2.63c-0.468,2.851,1.593,7.923,5.055,9.831c-0.653,1.771-1.36,3.452-2.109,5.044
		c-0.035-1.268-0.25-2.491-0.79-3.463c-0.574-1.033-1.469-1.724-2.586-1.998c-1.507-0.373-2.827,0.369-3.452,1.929
		c-1.08,2.695-0.152,8.132,2.848,10.728c-0.593,0.921-1.191,1.803-1.792,2.639c-1.38,1.92-2.811,3.664-4.247,5.274
		c0.283-1.03,0.41-2.058,0.255-2.992c-0.194-1.167-0.804-2.118-1.765-2.753c-1.292-0.853-2.787-0.601-3.898,0.657
		c-1.954,2.211-2.909,7.788-0.828,11.231c-5.985,5.167-10.862,7.558-10.938,7.594c-0.635,0.305-0.904,1.067-0.6,1.703
		c0.219,0.458,0.676,0.726,1.153,0.726c0.184,0,0.371-0.04,0.549-0.125c0.244-0.117,3.191-1.557,7.276-4.556
		c1.226,1.457,4.894,5.476,8.27,5.748c0.123,0.01,0.246,0.015,0.366,0.015c1.034,0,1.973-0.362,2.732-1.058
		c1.142-1.047,1.26-2.557,0.31-3.942c-1.275-1.855-4.592-3.621-7.801-3.831c1.495-1.276,3.063-2.74,4.651-4.369
		c1.447,1.133,5.36,3.944,8.586,3.944c0.211,0,0.421-0.012,0.626-0.037c1.173-0.147,2.149-0.718,2.821-1.653
		c0.905-1.257,0.714-2.76-0.498-3.922c-1.56-1.495-4.946-2.527-8.031-2.214c1.015-1.213,2.026-2.481,3.013-3.849
		c0.202-0.28,0.404-0.57,0.605-0.859c1.566,0.83,4.948,2.427,7.814,2.427c0.592,0,1.162-0.069,1.689-0.226
		c1.133-0.339,2-1.065,2.508-2.097c0.684-1.389,0.247-2.84-1.141-3.785c-1.715-1.169-5.02-1.633-7.929-0.942
		c1.066-1.844,2.093-3.828,3.049-5.959c1.343,0.572,4.599,1.82,7.461,1.82c0.896,0,1.753-0.123,2.5-0.428
		c1.094-0.448,1.887-1.253,2.293-2.33c0.547-1.449-0.029-2.85-1.502-3.656c-2.04-1.118-5.985-1.164-8.985,0.233
		c0.675-1.849,1.291-3.79,1.831-5.827c0.816,0.176,2.962,0.587,5.23,0.587c1.854,0,3.788-0.276,5.133-1.181
		c0.98-0.659,1.593-1.609,1.772-2.746C469.052,480.312,468.204,479.056,466.598,478.566z M465.995,468.543
		c0.128,0,0.251,0.007,0.366,0.022c0.5,0.065,0.501,0.182,0.503,0.359c0.005,0.446-0.148,0.792-0.496,1.122
		c-1.167,1.108-4.059,1.542-6.461,1.617C461.407,469.865,464.267,468.543,465.995,468.543z M465.702,455.938
		c0.065-0.005,0.123-0.007,0.173-0.007c0.337,0,0.36,0.106,0.393,0.257c0.095,0.435,0.016,0.805-0.257,1.199
		c-0.918,1.323-3.661,2.335-5.998,2.897C461.197,458.064,464.032,456.064,465.702,455.938z M462.14,443.076
		c0.178-0.069,0.297-0.097,0.38-0.097c0.137,0,0.18,0.076,0.233,0.172c0.217,0.39,0.247,0.768,0.099,1.223
		c-0.499,1.53-2.834,3.29-4.911,4.499C458.438,446.407,460.578,443.676,462.14,443.076z M449.459,447.436
		c-0.121-0.49-0.013-0.534,0.151-0.6c0.188-0.076,0.368-0.113,0.549-0.113c0.219,0,0.44,0.056,0.677,0.167
		c1.457,0.686,2.913,3.22,3.855,5.432C452.306,451.522,449.861,449.06,449.459,447.436z M449.83,480.923
		c0.075-0.455,0.178-0.492,0.33-0.492c0.014,0,0.029,0,0.044,0.001c0.446,0.01,0.787,0.175,1.105,0.532
		c1.069,1.204,1.407,4.108,1.403,6.511C450.834,485.801,449.558,482.574,449.83,480.923z M445.797,492.799
		c0.138-0.343,0.235-0.42,0.345-0.42c0.04,0,0.082,0.01,0.127,0.021c0.434,0.107,0.731,0.342,0.964,0.759
		c0.783,1.407,0.484,4.316-0.041,6.661C445.722,497.78,445.175,494.354,445.797,492.799z M441.013,524.185
		c0.285,0.415,0.199,0.494,0.069,0.613c-0.33,0.302-0.691,0.42-1.166,0.381c-1.605-0.128-3.86-1.99-5.52-3.728
		C436.887,521.352,440.064,522.804,441.013,524.185z M449.735,514.715c0.364,0.349,0.296,0.444,0.193,0.587
		c-0.261,0.362-0.589,0.55-1.065,0.61c-1.594,0.213-4.183-1.163-6.162-2.528C445.145,512.785,448.526,513.556,449.735,514.715z
		 M436.741,507.095c0.196-0.222,0.31-0.29,0.401-0.29c0.064,0,0.117,0.034,0.178,0.075c0.372,0.246,0.573,0.566,0.653,1.038
		c0.264,1.588-0.994,4.226-2.277,6.259C434.996,511.76,435.633,508.35,436.741,507.095z M456.522,504.38
		c0.417,0.284,0.365,0.388,0.287,0.547c-0.197,0.4-0.49,0.64-0.948,0.777c-1.54,0.464-4.318-0.454-6.496-1.471
		C451.674,503.234,455.138,503.437,456.522,504.38z M462.604,493.015c0.443,0.242,0.401,0.35,0.339,0.516
		c-0.158,0.418-0.426,0.684-0.869,0.865c-1.49,0.613-4.342-0.034-6.608-0.835C457.669,492.343,461.136,492.21,462.604,493.015z
		 M452.355,431.537c0.145-0.33,0.244-0.408,0.351-0.408c0.043,0,0.087,0.012,0.135,0.026c0.429,0.121,0.718,0.364,0.937,0.79
		c0.736,1.431,0.34,4.328-0.263,6.655C452.113,436.513,451.681,433.071,452.355,431.537z M451.389,463.944
		c-0.055-0.501,0.058-0.53,0.229-0.573c0.133-0.034,0.26-0.05,0.384-0.05c0.28,0,0.545,0.087,0.824,0.267
		c1.353,0.873,2.458,3.58,3.097,5.897C453.665,468.375,451.571,465.609,451.389,463.944z M466.289,481.445
		c-0.069,0.441-0.277,0.757-0.675,1.025c-1.336,0.9-4.259,0.848-6.64,0.525c1.91-1.639,5.28-2.473,6.878-1.986
		C466.335,481.156,466.317,481.27,466.289,481.445z"/>
	<path d="M297.658,487.371c-0.276,0-0.553-0.089-0.787-0.272c-26.851-21.065-32.497-44.023-32.506-59.576
		c-0.009-16.866,6.27-28.57,6.538-29.06c0.338-0.62,1.113-0.846,1.731-0.51c0.619,0.337,0.848,1.112,0.511,1.732
		c-0.063,0.115-6.265,11.711-6.226,27.955c0.036,14.954,5.535,37.058,31.529,57.449c0.555,0.435,0.651,1.238,0.216,1.793
		C298.411,487.204,298.037,487.371,297.658,487.371z"/>
	<g>
		<path style="fill:#FFE5D4;" d="M288.802,478.748c0,0-5.104,9.078-0.879,11.057C291.274,491.374,292.413,481.903,288.802,478.748z"
			/>
		<path d="M288.639,491.254c-0.412,0-0.836-0.096-1.257-0.293c-1.043-0.487-1.785-1.341-2.146-2.467
			c-1.192-3.72,2.076-9.703,2.453-10.372c0.188-0.335,0.517-0.567,0.896-0.632c0.38-0.065,0.767,0.045,1.057,0.297
			c3.271,2.859,3.248,9.283,1.502,11.959C290.501,490.73,289.602,491.254,288.639,491.254z M289.012,481.192
			c-0.974,2.197-1.836,4.99-1.344,6.524c0.146,0.456,0.392,0.744,0.797,0.934c0.158,0.072,0.264,0.126,0.541-0.299
			C289.92,486.948,290.055,483.481,289.012,481.192z"/>
	</g>
	<g>
		<path style="fill:#FFE5D4;" d="M295.957,485.101c0,0-1.414,10.318,3.243,10.607C302.894,495.937,300.475,486.71,295.957,485.101z"
			/>
		<path d="M299.331,496.988c-0.069,0-0.139-0.001-0.21-0.006c-1.149-0.071-2.152-0.592-2.901-1.506
			c-2.475-3.022-1.632-9.786-1.528-10.548c0.052-0.38,0.273-0.718,0.602-0.918c0.33-0.201,0.731-0.237,1.091-0.112
			c4.093,1.459,6.431,7.441,5.789,10.573C301.853,496.041,300.772,496.988,299.331,496.988z M297.05,487.298
			c-0.099,2.401,0.125,5.316,1.146,6.561c0.304,0.37,0.638,0.547,1.083,0.575c0.176,0.011,0.293,0.02,0.394-0.475
			C300.009,492.318,298.861,489.045,297.05,487.298z"/>
	</g>
	<g>
		<path style="fill:#FFE5D4;" d="M287.177,476.398c0,0,8.374,6.193,10.862,2.246C300.012,475.513,290.757,473.207,287.177,476.398z"
			/>
		<path d="M295.422,481.234c-3.737,0-8.437-3.39-9.005-3.81c-0.309-0.228-0.499-0.583-0.516-0.967s0.139-0.755,0.426-1.011
			c3.244-2.891,9.614-2.071,12.053-0.006c1.282,1.086,1.565,2.574,0.738,3.885c-0.613,0.974-1.552,1.604-2.714,1.823
			C296.087,481.207,295.759,481.234,295.422,481.234z M289.628,476.493c2.059,1.239,4.725,2.441,6.306,2.144
			c0.471-0.089,0.787-0.297,1.025-0.674c0.094-0.15,0.156-0.248-0.229-0.575C295.453,476.306,292.029,475.741,289.628,476.493z"/>
	</g>
	<g>
		<path style="fill:#FFE5D4;" d="M276.16,462.884c0,0,7.474,7.253,10.466,3.673C288.999,463.717,280.133,460.198,276.16,462.884z"/>
		<path d="M284.423,468.825c-3.86,0-8.613-4.502-9.152-5.025c-0.276-0.268-0.416-0.646-0.383-1.028
			c0.034-0.383,0.238-0.731,0.557-0.945c3.598-2.434,9.804-0.772,11.946,1.601c1.126,1.245,1.208,2.759,0.215,3.947
			c-0.739,0.884-1.753,1.384-2.933,1.445C284.59,468.824,284.507,468.825,284.423,468.825z M278.576,463.305
			c1.876,1.502,4.355,3.048,5.965,2.965c0.478-0.025,0.819-0.189,1.105-0.532c0.113-0.135,0.188-0.224-0.15-0.598
			C284.374,463.894,281.058,462.877,278.576,463.305z"/>
	</g>
	<g>
		<path style="fill:#FFE5D4;" d="M268.426,445.788c0,0,5.255,8.992,9.098,6.345C280.571,450.034,272.974,444.267,268.426,445.788z"
			/>
		<path d="M275.984,453.896c-0.312,0-0.628-0.035-0.949-0.106c-3.812-0.85-7.324-6.693-7.711-7.357
			c-0.194-0.332-0.228-0.734-0.093-1.093c0.135-0.36,0.425-0.64,0.79-0.762c4.123-1.375,9.652,1.886,11.079,4.745
			c0.75,1.503,0.424,2.982-0.852,3.861C277.563,453.657,276.793,453.896,275.984,453.896z M270.641,446.842
			c1.404,1.951,3.379,4.105,4.95,4.456c0.466,0.105,0.841,0.037,1.207-0.216c0.146-0.101,0.242-0.167,0.016-0.618
			C276.067,448.966,273.144,447.099,270.641,446.842z"/>
	</g>
	<g>
		<path style="fill:#FFE5D4;" d="M265.949,432.094c0,0,3.183,9.917,7.507,8.165C276.886,438.87,270.719,431.594,265.949,432.094z"/>
		<path d="M272.428,441.741c-0.591,0-1.184-0.135-1.76-0.404c-3.538-1.656-5.7-8.121-5.935-8.853
			c-0.117-0.367-0.064-0.765,0.146-1.087c0.209-0.323,0.553-0.532,0.936-0.572c4.321-0.464,9.014,3.932,9.788,7.034
			c0.407,1.628-0.233,3.002-1.668,3.583C273.443,441.641,272.936,441.741,272.428,441.741z M267.884,433.603
			c0.948,2.209,2.41,4.741,3.868,5.422c0.435,0.204,0.813,0.218,1.226,0.051c0.164-0.066,0.272-0.11,0.15-0.598
			C272.722,436.853,270.272,434.396,267.884,433.603z"/>
	</g>
	<g>
		<path style="fill:#FFE5D4;" d="M267.477,413.162c0,0-0.334,10.41,4.328,10.213C275.502,423.218,272.137,414.293,267.477,413.162z"
			/>
		<path d="M271.678,424.654c-1.08,0-2.066-0.413-2.862-1.201c-2.776-2.748-2.64-9.564-2.616-10.332
			c0.012-0.384,0.197-0.742,0.503-0.975c0.307-0.232,0.7-0.312,1.074-0.224c4.221,1.023,7.168,6.731,6.856,9.912
			c-0.164,1.672-1.227,2.75-2.775,2.816C271.799,424.653,271.738,424.654,271.678,424.654z M268.792,415.233
			c0.151,2.399,0.676,5.275,1.821,6.407c0.34,0.337,0.69,0.471,1.138,0.46c0.176-0.007,0.293-0.012,0.342-0.515
			C272.257,419.918,270.775,416.782,268.792,415.233z"/>
	</g>
	<g>
		<path style="fill:#FFE5D4;" d="M281.152,470.756c0,0-7.5,7.226-4.022,10.337C279.888,483.56,283.703,474.817,281.152,470.756z"/>
		<path d="M278.152,482.797c-0.664,0-1.311-0.251-1.873-0.753c-0.858-0.767-1.323-1.798-1.345-2.98
			c-0.072-3.906,4.779-8.695,5.333-9.228c0.277-0.267,0.658-0.403,1.04-0.348c0.382,0.046,0.722,0.262,0.926,0.587
			c2.31,3.679,0.442,9.824-2.001,11.886C279.573,482.518,278.853,482.797,278.152,482.797z M280.651,473.157
			c-1.565,1.825-3.195,4.252-3.164,5.862c0.009,0.479,0.162,0.825,0.494,1.123c0.132,0.117,0.22,0.194,0.604-0.131
			C279.865,478.932,280.99,475.65,280.651,473.157z"/>
	</g>
	<g>
		<path style="fill:#FFE5D4;" d="M275.05,461.622c0,0-8.812,5.551-6.04,9.303C271.21,473.902,276.722,466.117,275.05,461.622z"/>
		<path d="M270.22,472.859c-0.872,0-1.664-0.4-2.236-1.174c-0.684-0.926-0.93-2.03-0.711-3.191c0.723-3.838,6.447-7.541,7.097-7.95
			c0.325-0.206,0.728-0.252,1.089-0.13c0.365,0.123,0.654,0.404,0.787,0.764c1.515,4.072-1.564,9.708-4.375,11.23
			C271.312,472.711,270.751,472.859,270.22,472.859z M274.071,463.872c-1.904,1.467-3.992,3.513-4.289,5.095
			c-0.089,0.471-0.01,0.84,0.256,1.199c0.107,0.145,0.176,0.236,0.618-0.004C272.127,469.365,273.897,466.381,274.071,463.872z"/>
	</g>
	<g>
		<path style="fill:#FFE5D4;" d="M269.529,452.086c0,0-9.611,4.013-7.498,8.173C263.706,463.559,270.432,456.796,269.529,452.086z"
			/>
		<path d="M263.401,462.407c-1.08,0-1.991-0.551-2.508-1.57c-0.521-1.027-0.581-2.155-0.173-3.265
			c1.35-3.665,7.608-6.368,8.317-6.665c0.354-0.148,0.757-0.128,1.096,0.054c0.338,0.182,0.577,0.506,0.65,0.884
			c0.819,4.266-3.152,9.315-6.177,10.35C264.189,462.337,263.785,462.407,263.401,462.407z M268.19,454.142
			c-2.121,1.132-4.52,2.803-5.075,4.313c-0.165,0.45-0.148,0.828,0.054,1.225c0.082,0.16,0.133,0.264,0.61,0.098
			C265.363,459.237,267.603,456.588,268.19,454.142z"/>
	</g>
	<g>
		<path style="fill:#FFE5D4;" d="M266.573,441.782c0,0-10.226,1.976-9.003,6.478C258.54,451.832,266.5,446.577,266.573,441.782z"/>
		<path d="M259.183,450.712c-1.414,0-2.481-0.779-2.844-2.117c-0.302-1.111-0.131-2.228,0.494-3.231
			c2.066-3.315,8.743-4.689,9.498-4.835c0.383-0.075,0.769,0.027,1.062,0.274c0.295,0.247,0.462,0.613,0.457,0.997
			c-0.065,4.343-4.98,8.48-8.152,8.879C259.522,450.702,259.35,450.712,259.183,450.712z M264.844,443.523
			c-2.306,0.678-4.995,1.826-5.846,3.193c-0.253,0.406-0.314,0.78-0.197,1.212c0.046,0.17,0.08,0.283,0.577,0.219
			C261.041,447.937,263.772,445.799,264.844,443.523z"/>
	</g>
	<g>
		<path style="fill:#FFE5D4;" d="M265.428,429.734c0,0-10.369,0.977-9.587,5.577C256.46,438.96,264.892,434.5,265.428,429.734z"/>
		<path d="M257.601,437.926c-1.614,0-2.766-0.911-3.019-2.402c-0.193-1.133,0.085-2.229,0.805-3.167
			c2.377-3.099,9.156-3.822,9.922-3.893c0.384-0.047,0.761,0.102,1.03,0.375c0.269,0.274,0.401,0.656,0.358,1.037
			c-0.486,4.317-5.776,7.959-8.972,8.048C257.683,437.926,257.642,437.926,257.601,437.926z M263.539,431.299
			c-2.361,0.451-5.149,1.335-6.127,2.613c-0.291,0.379-0.388,0.746-0.313,1.184c0.029,0.176,0.045,0.29,0.554,0.276
			C259.326,435.326,262.251,433.461,263.539,431.299z"/>
	</g>
	<g>
		<path style="fill:#FFE5D4;" d="M265.702,418.749c0,0-10.387-0.755-10.379,3.911C255.329,426.36,264.383,423.359,265.702,418.749z"
			/>
		<path d="M257.462,425.596c-0.25,0-0.489-0.015-0.715-0.046c-1.663-0.232-2.698-1.339-2.701-2.887
			c-0.002-1.152,0.454-2.185,1.319-2.992c2.859-2.662,9.662-2.25,10.43-2.194c0.383,0.027,0.734,0.227,0.954,0.542
			c0.22,0.314,0.287,0.712,0.181,1.082C265.82,422.979,260.719,425.596,257.462,425.596z M263.579,419.979
			c-2.403,0.054-5.298,0.463-6.475,1.56c-0.35,0.328-0.506,0.672-0.506,1.118c0.001,0.177,0.001,0.293,0.5,0.363
			C258.755,423.247,261.951,421.897,263.579,419.979z"/>
	</g>
	<g>
		<path style="fill:#FFE5D4;" d="M267.913,407.801c0,0-10.017-2.851-10.958,1.719C256.209,413.145,265.684,412.048,267.913,407.801z
			"/>
		<path d="M260.05,412.982c-0.861,0-1.647-0.113-2.288-0.343c-1.581-0.565-2.369-1.858-2.057-3.375
			c0.232-1.128,0.889-2.048,1.899-2.662c3.338-2.025,9.918-0.239,10.658-0.029c0.37,0.106,0.672,0.372,0.823,0.724
			c0.151,0.354,0.136,0.757-0.043,1.097C267.453,411.424,263.239,412.982,260.05,412.982z M261.919,408.203
			c-1.211,0-2.297,0.162-2.991,0.583c-0.41,0.248-0.632,0.555-0.722,0.991c-0.036,0.173-0.059,0.288,0.416,0.458
			c1.577,0.563,4.98-0.112,6.964-1.661C264.414,408.359,263.107,408.203,261.919,408.203z"/>
	</g>
	<g>
		<path style="fill:#FFBD52;" d="M302.073,341.499c-0.177,0.878-1.447,0.823-1.549-0.067c-0.986-8.577-3.519-23.427-9.184-22.488
			c-5.906,0.978,0.397,16.381,4.009,24.199c0.185,0.4-0.37,0.714-0.627,0.356c-4.294-5.959-12.566-15.885-17.779-12.214
			c-5.691,4.008,8.737,13.464,15.346,17.423c0.368,0.22,0.122,0.782-0.288,0.656c-5.525-1.704-16.131-4.301-18.805-0.137
			c-2.996,4.666,12.892,4.926,18.762,4.866c0.402-0.004,0.51,0.549,0.136,0.696c-5.247,2.054-18.915,8.067-15.651,13.835
			c2.61,4.612,13.63-5.917,18.483-10.917c0.298-0.307,0.787,0.065,0.573,0.435c-3.547,6.14-10.764,20.094-4.293,21.975
			c5.055,1.469,7.404-11.71,8.327-19.277c0.053-0.437,0.691-0.423,0.72,0.016c0.486,7.448,2.073,20.474,7.227,21.07
			c5.201,0.602,1.139-13.448-1.558-21.399c-0.142-0.419,0.442-0.687,0.655-0.299c3.763,6.846,10.9,17.894,16.024,14.064
			c5.335-3.988-5.266-13.449-11.278-18.197c-0.34-0.269-0.004-0.794,0.385-0.602c5.772,2.85,15.752,6.802,17.653,1.182
			c1.978-5.846-12.479-6.629-18.933-6.69c-0.422-0.004-0.498-0.6-0.091-0.711c6.203-1.694,19.943-6.216,17.23-12.426
			c-2.252-5.153-15.184,3.961-20.315,7.852c-0.332,0.251-0.757-0.16-0.514-0.498c3.968-5.514,13.522-19.967,6.363-22.156
			C307.271,320.265,303.686,333.502,302.073,341.499z"/>
		<path d="M307.802,383.22c-0.149,0-0.305-0.009-0.469-0.027c-3.759-0.434-6.321-5.485-7.644-15.038
			c-1.35,6.885-3.197,11.134-5.514,12.664c-1.027,0.677-2.175,0.859-3.325,0.524c-1.452-0.421-2.511-1.369-3.062-2.741
			c-1.438-3.578,0.779-9.842,3.708-15.727c-6.18,5.765-10.721,8.502-13.569,8.133c-1.13-0.145-2.028-0.752-2.595-1.755
			c-0.739-1.304-0.861-2.751-0.352-4.184c1.379-3.883,7.365-7.363,12.526-9.724c-9.126-0.213-14.372-1.461-15.62-3.72
			c-0.302-0.546-0.673-1.673,0.236-3.087c2.223-3.463,8.309-3.256,14.436-1.935c-6.254-4.178-12.05-9.062-12.19-12.881
			c-0.036-0.971,0.254-2.362,1.84-3.479c4.411-3.104,10.147,1.193,15.164,6.941c-3.526-8.778-4.553-14.646-3.052-17.482
			c0.589-1.111,1.561-1.809,2.811-2.016c1.225-0.207,2.39,0.103,3.461,0.911c3.704,2.793,5.739,11.791,6.839,19.82
			c1.618-7.031,4.213-14.779,8.065-17.075c1.255-0.748,2.632-0.925,3.977-0.515c1.586,0.486,2.688,1.519,3.183,2.99
			c1.335,3.958-1.973,10.692-5.897,16.766c5.698-3.92,11.924-7.312,15.458-6.39c1.168,0.304,2.038,1.046,2.519,2.145
			c0.631,1.444,0.603,2.963-0.08,4.391c-1.684,3.521-7.178,6.241-12.787,8.181c6.115,0.419,12.192,1.583,14.202,4.414
			c0.785,1.105,0.957,2.405,0.498,3.76c-0.502,1.486-1.522,2.584-2.948,3.175c-2.724,1.128-6.772,0.309-10.723-1.128
			c4.524,4.115,8.483,8.769,8.434,12.422c-0.021,1.513-0.701,2.815-1.968,3.761c-1.239,0.926-2.698,1.242-4.212,0.913
			c-3.327-0.721-6.805-4.567-9.801-8.971c3.286,11.837,1.513,14.03,0.866,14.832C309.786,382.623,309.028,383.22,307.802,383.22z
			 M299.894,359.242c0.016,0,0.031,0,0.047,0c0.85,0.024,1.532,0.682,1.588,1.53c0.778,11.921,3.115,19.54,6.099,19.885
			c0.429,0.05,0.534-0.085,0.605-0.175c1.06-1.311,0.691-7.135-3.518-19.545c-0.276-0.814,0.109-1.688,0.894-2.033
			c0.782-0.34,1.679-0.039,2.089,0.709c4.567,8.31,8.939,13.456,11.997,14.117c0.803,0.173,1.487,0.029,2.144-0.461
			c0.634-0.474,0.933-1.03,0.943-1.75c0.039-2.943-4.54-8.334-12.248-14.421c-0.659-0.519-0.818-1.446-0.371-2.155
			c0.449-0.712,1.356-0.969,2.111-0.593c6.654,3.285,11.892,4.583,14.371,3.552c0.758-0.314,1.237-0.833,1.508-1.634
			c0.196-0.58,0.146-1.031-0.161-1.464c-1.488-2.094-8.222-3.452-17.575-3.542c-0.826-0.006-1.503-0.607-1.609-1.427
			c-0.107-0.82,0.396-1.574,1.195-1.791c8.879-2.425,14.992-5.571,16.352-8.415c0.369-0.771,0.383-1.492,0.043-2.268
			c-0.166-0.382-0.413-0.59-0.823-0.698c-2.577-0.667-9.3,2.799-17.551,9.055c-0.654,0.493-1.551,0.438-2.137-0.133
			c-0.585-0.57-0.663-1.465-0.185-2.128c6.251-8.688,9.522-15.902,8.537-18.825c-0.234-0.696-0.701-1.116-1.511-1.363
			c-0.665-0.204-1.277-0.119-1.923,0.266c-2.75,1.639-5.477,8.28-7.48,18.217l0,0c-0.204,1.016-1.055,1.687-2.107,1.652
			c-1.037-0.044-1.843-0.795-1.962-1.826c-1.302-11.32-3.562-18.954-6.2-20.944c-0.505-0.381-0.984-0.515-1.507-0.431
			c-0.466,0.077-0.756,0.284-0.972,0.693c-1.371,2.59,0.846,10.706,5.932,21.712c0.355,0.769,0.072,1.671-0.659,2.098
			c-0.736,0.429-1.665,0.231-2.162-0.459c-6.941-9.633-12.929-14.088-16.009-11.917c-0.697,0.491-0.771,0.951-0.759,1.298
			c0.102,2.768,6.243,8.127,16.025,13.986c0.724,0.433,1,1.305,0.657,2.075c-0.342,0.767-1.167,1.145-1.977,0.896
			c-9.156-2.824-15.806-3.08-17.354-0.668c-0.1,0.157-0.208,0.366-0.149,0.472c0.691,1.248,6.541,2.553,17.824,2.428
			c0.007,0,0.014,0,0.02,0c0.779,0,1.453,0.552,1.604,1.321c0.152,0.775-0.272,1.55-1.008,1.839
			c-8.469,3.316-14.141,7.034-15.175,9.945c-0.264,0.745-0.211,1.404,0.168,2.073c0.171,0.303,0.368,0.438,0.699,0.48
			c2.452,0.313,8.475-4.154,15.757-11.656c0.583-0.605,1.494-0.673,2.163-0.168c0.671,0.506,0.853,1.401,0.433,2.129
			c-5.181,8.969-7.592,16.023-6.448,18.87c0.262,0.652,0.696,1.035,1.406,1.242c0.431,0.126,0.803,0.062,1.207-0.204
			c2.247-1.482,4.302-8.213,5.497-18.002C298.367,359.855,299.062,359.242,299.894,359.242z"/>
	</g>
	<g>
		<path style="fill:#FFC5EA;" d="M309.647,321.389c-3.977-0.442-11.327-8.893-8.722-13.066c2.605-4.173,5.838,1.409,5.838,1.409
			s-1.22-6.104,2.616-6.699c3.837-0.595,4.741,6.008,4.741,6.008s0.745-6.013,4.152-5.84
			C321.679,303.372,322.54,322.823,309.647,321.389z"/>
		<path d="M310.977,322.742c-0.469,0-0.959-0.027-1.471-0.084c-3.322-0.369-7.604-4.687-9.369-8.332
			c-1.276-2.634-1.378-4.944-0.295-6.678c1.125-1.803,2.413-2.164,3.324-2.149c0.815,0.013,1.565,0.343,2.216,0.799
			c0.125-0.967,0.412-1.968,0.988-2.793c0.664-0.952,1.637-1.551,2.814-1.733c1.128-0.178,2.214,0.093,3.13,0.775
			c0.766,0.571,1.351,1.379,1.793,2.229c0.875-1.642,2.22-2.95,4.23-2.85c0.679,0.034,1.645,0.393,2.384,1.911
			c1.495,3.071,1.591,10.173-1.649,14.766C317.697,320.552,315.209,322.742,310.977,322.742z M303.114,308.05
			c-0.426,0-0.837,0.515-1.107,0.948c-0.79,1.267-0.072,3.184,0.427,4.214c1.727,3.566,5.435,6.695,7.353,6.908l0,0
			c5.199,0.573,7.491-2.714,8.507-5.576c1.575-4.437,0.686-9.369-0.175-10.071c-1.772,0.03-2.605,3.72-2.733,4.725
			c-0.08,0.635-0.619,1.111-1.259,1.116c-0.003,0-0.006,0-0.008,0c-0.636,0-1.176-0.469-1.265-1.1
			c-0.133-0.958-0.766-3.655-2.069-4.623c-0.37-0.275-0.753-0.37-1.211-0.298c-0.491,0.076-0.844,0.289-1.111,0.669
			c-0.857,1.222-0.615,3.677-0.449,4.52c0.12,0.612-0.219,1.222-0.803,1.442c-0.587,0.221-1.241-0.014-1.553-0.554
			c-0.564-0.964-1.76-2.31-2.536-2.321C303.119,308.05,303.117,308.05,303.114,308.05z"/>
	</g>
	<g>
		<path style="fill:#FFC5EA;" d="M322.316,318.667c-0.557-2.447,2.936-8.541,5.944-7.857c3.008,0.684,0.367,3.748,0.367,3.748
			s3.365-1.98,4.507,0.171s-2.583,4.045-2.583,4.045s3.715-0.797,4.315,1.257C335.465,322.085,324.121,326.599,322.316,318.667z"/>
		<path d="M328.187,324.454c-0.819,0-1.636-0.098-2.412-0.32c-1.72-0.494-3.933-1.795-4.704-5.184l0,0
			c-0.507-2.228,1.212-5.785,3.135-7.708c1.792-1.793,3.347-1.902,4.337-1.677c1.517,0.345,2.09,1.192,2.304,1.842
			c0.117,0.353,0.147,0.712,0.119,1.062c0.464-0.037,0.941-0.014,1.399,0.116c0.828,0.234,1.484,0.768,1.896,1.545
			c0.399,0.75,0.474,1.573,0.219,2.381c-0.123,0.391-0.319,0.755-0.556,1.09c0.992,0.311,1.836,0.938,2.167,2.074
			c0.127,0.436,0.198,1.311-0.762,2.275C334.084,323.2,331.119,324.454,328.187,324.454z M323.561,318.384
			c0.469,2.059,1.688,3.191,3.728,3.462c2.725,0.361,5.475-0.945,6.205-1.659c-0.454-0.353-1.78-0.352-2.677-0.165
			c-0.622,0.132-1.255-0.221-1.467-0.825c-0.213-0.604,0.053-1.272,0.624-1.561c0.731-0.376,1.86-1.214,2.073-1.897
			c0.049-0.155,0.038-0.267-0.039-0.412c-0.099-0.186-0.204-0.248-0.333-0.285c-0.618-0.175-1.777,0.256-2.402,0.618
			c-0.54,0.314-1.228,0.191-1.625-0.287c-0.398-0.48-0.393-1.176,0.014-1.648c0.463-0.545,0.803-1.283,0.762-1.517
			c-0.003-0.005-0.124-0.081-0.445-0.154c-0.501-0.11-1.22,0.247-1.965,0.992C324.308,314.75,323.351,317.459,323.561,318.384
			L323.561,318.384z"/>
	</g>
	<path d="M366.941,265.229c-0.611,0-1.152-0.441-1.257-1.063c-2.663-15.741,4.092-33.474,4.381-34.222
		c0.254-0.658,0.994-0.984,1.651-0.73c0.658,0.254,0.985,0.993,0.731,1.651c-0.068,0.176-6.79,17.837-4.246,32.874
		c0.118,0.696-0.35,1.354-1.045,1.472C367.083,265.224,367.011,265.229,366.941,265.229z"/>
	<path d="M362.388,270.501c-0.59,0-1.12-0.411-1.247-1.011c-2.423-11.389-0.103-23.26-0.003-23.76
		c0.138-0.691,0.81-1.139,1.502-1.001c0.691,0.138,1.139,0.81,1.002,1.502c-0.023,0.117-2.314,11.867-0.003,22.728
		c0.147,0.689-0.293,1.368-0.983,1.514C362.566,270.492,362.476,270.501,362.388,270.501z"/>
	<path d="M391.983,383.663c-0.686,0-1.253-0.545-1.275-1.235c-0.015-0.455-1.06-45.548,34.907-49.952
		c0.706-0.08,1.337,0.412,1.422,1.112s-0.412,1.336-1.112,1.422c-33.644,4.119-32.679,46.904-32.666,47.335
		c0.022,0.704-0.53,1.294-1.235,1.316C392.01,383.663,391.996,383.663,391.983,383.663z"/>
	<path d="M355.801,351.973c-0.413,0-0.817-0.199-1.063-0.568c-0.11-0.166-10.911-16.736,0.274-31.898
		c0.418-0.567,1.217-0.689,1.785-0.269c0.567,0.418,0.688,1.218,0.269,1.785c-10.134,13.738-0.305,28.815-0.204,28.966
		c0.391,0.587,0.233,1.379-0.354,1.77C356.291,351.903,356.044,351.973,355.801,351.973z"/>
	<path d="M390.245,319.743c-0.285,0-0.572-0.095-0.809-0.289c-11.196-9.18-19.707-6.156-20.064-6.024
		c-0.655,0.246-1.394-0.085-1.643-0.742c-0.249-0.657,0.077-1.391,0.732-1.642c0.409-0.16,10.181-3.744,22.594,6.434
		c0.545,0.448,0.625,1.252,0.178,1.797C390.98,319.584,390.614,319.743,390.245,319.743z"/>
	<path d="M358.916,331.844c-0.069,0-0.138-0.006-0.209-0.017c-0.696-0.115-1.167-0.772-1.052-1.467
		c1.065-6.455,3.766-10.773,8.029-12.833c8.051-3.894,18.567,1.853,19.012,2.101c0.616,0.342,0.838,1.118,0.496,1.735
		c-0.341,0.616-1.116,0.84-1.735,0.497c-0.097-0.054-9.814-5.347-16.669-2.031c-3.468,1.679-5.693,5.362-6.614,10.946
		C360.071,331.4,359.53,331.844,358.916,331.844z"/>
	<path d="M390.905,419.546c-0.335,0-0.669-0.131-0.919-0.391c-9.34-9.694-9.804-15.385-8.549-18.451
		c1.067-2.608,3.856-4.285,7.277-4.378c6.281-0.17,10.779-2.199,10.823-2.219c0.64-0.298,1.397-0.015,1.692,0.626
		c0.295,0.641,0.016,1.398-0.624,1.693c-0.2,0.092-4.989,2.269-11.823,2.453c-0.911,0.024-3.963,0.298-4.983,2.791
		c-0.792,1.936-0.803,6.551,8.025,15.714c0.489,0.507,0.474,1.315-0.034,1.804C391.543,419.427,391.224,419.546,390.905,419.546z"/>
	<path d="M244.017,403.491c-0.453,0-0.89-0.241-1.122-0.666c-2.082-3.817-4.68-14.192,1.313-40.788
		c5.769-25.601,22.306-41.664,23.007-42.335c0.509-0.488,1.316-0.469,1.804,0.039c0.488,0.509,0.471,1.317-0.038,1.805
		c-0.166,0.159-16.688,16.231-22.282,41.053c-6.026,26.742-3.1,36.186-1.563,39.006c0.338,0.618,0.11,1.394-0.509,1.732
		C244.433,403.441,244.223,403.491,244.017,403.491z"/>
</g>
</svg>
