<?xml version="1.0" encoding="utf-8"?>
<!-- Generator: Adobe Illustrator 26.5.0, SVG Export Plug-In . SVG Version: 6.00 Build 0)  -->
<svg version="1.1" id="Layer_1" xmlns="http://www.w3.org/2000/svg" xmlns:xlink="http://www.w3.org/1999/xlink" x="0px" y="0px"
	 viewBox="0 0 714 714" style="enable-background:new 0 0 714 714;" xml:space="preserve">
<style type="text/css">
	.st0{fill:#78733B;}
	.st1{fill:#961B1E;}
	.st2{fill:#0A1525;}
	.st3{fill:#6A4438;}
	.st4{fill:#D9CECB;}
	.st5{fill:#EDE5E2;}
	.st6{fill:#DEA549;}
	.st7{fill:#FFFFFF;}
	.st8{fill:#FFF2E5;}
	.st9{fill:#001125;}
	.st10{fill:#F9B9B2;}
	.st11{fill:#FFF8F0;}
	.st12{fill:#FFF4E9;}
	.st13{fill:#CCEBF1;}
	.st14{fill:#A74737;}
	.st15{fill:#4E3F3A;}
	.st16{fill:#FFE9D1;}
	.st17{fill:#FFF0E1;}
	.st18{fill:#0C1A26;}
</style>
<g>
	<path class="st8" d="M603.3414917,266.4754639c13.3939819-69.138916-70.7811279-79.5420532-90.1826172-16.8197632
		c-25.2095947,81.4993286-74.9500122,88.6681519-80.3658447,89.2114258
		c28.8291016-25.3657837,47.0266724-62.5284424,47.0266724-103.9464722c0-2.699646-0.0858154-5.3789673-0.2382812-8.0404053
		c29.3140869-1.8153076,52.5307617-26.1525879,52.5307617-55.9238892c0-30.9526367-25.0921021-56.0446777-56.0447388-56.0446777
		c-16.2575073,0-30.8910522,6.9291992-41.1283569,17.9871216c-24.633667-22.5961914-57.4707642-36.3920898-93.5332642-36.3920898
		s-68.8995972,13.7958984-93.5332642,36.3920898c-10.2373047-11.0579224-24.8708496-17.9871216-41.128418-17.9871216
		c-30.9526367,0-56.0446777,25.092041-56.0446777,56.0446777c0,29.7713013,23.2166138,54.1085815,52.5307007,55.9238892
		c-0.1524658,2.661438-0.2382812,5.3407593-0.2382812,8.0404053c0,40.9073486,17.7509155,77.6644287,45.9644165,103.0038452
		c-23.8101196,23.7360229-47.3659058,58.8114014-67.1544189,109.3731079
		c-2.6486816-0.4176636-5.329895-0.350647-7.9341431,0.2738037c-9.6810303,2.3214111-15.2956543,11.6134033-14.4354858,22.3155518
		c-1.3895874,0.3363647-2.7658691,0.7385864-4.1287231,1.201416c-4.940918-3.385498-10.7853394-4.8430176-16.2495117-3.5327759
		c-10.4934692,2.5161743-15.6027298,14.2698975-11.4118118,26.2525635c0.1008301,0.288208,0.2099609,0.5717163,0.3195801,0.8548584
		c-0.9191895,1.7236938-1.7489014,3.5056763-2.4905396,5.3392334c-2.1062012-0.5072021-4.2246704-0.5957642-6.2542725-0.1582642
		c-8.6467896,1.8639526-12.4006348,12.258667-8.3845215,23.2171631c2.2697144,6.1932373,6.5361328,11.237854,11.3776855,14.1204224
		c1.4096069,7.5759888,4.0254517,15.1989746,7.9396439,22.5368652
		c17.4173584,32.6524048,53.730957,47.2836914,81.1087036,32.6799316
		c14.1275024-7.5358887,23.0985107-21.3901367,26.0956421-37.5158081
		c8.4612427,2.1037598,17.4916992,3.8226929,26.9708252,5.1994019
		c10.727356,18.3455811,22.8040161,33.8436279,35.7215576,43.8927002
		c43.1052856,33.5332031,81.2644043-1.2432251,74.2466431-39.8583984
		c26.5372314-1.2357178,51.5440674-4.1604614,72.8739624-9.5717163
		c2.9337158,16.2702026,11.932373,30.2652588,26.1586304,37.8538208
		c27.3777466,14.6037598,63.6914062-0.0275269,81.1087646-32.6799316
		c3.9141846-7.3378906,6.5300293-14.9608765,7.9396362-22.5368652c4.8414917-2.8825684,9.1079712-7.9271851,11.3776855-14.1204224
		c4.0161133-10.9584961,0.262207-21.3532104-8.3845825-23.2171631c-2.0296021-0.4375-4.1480103-0.348938-6.2542114,0.1582642
		c-0.7416382-1.8335571-1.5714722-3.6156006-2.4906006-5.3392944c0.1096191-0.2831421,0.21875-0.5665894,0.3195801-0.8547974
		c4.190918-11.982666-0.918335-23.7363892-11.4117432-26.2525635c-5.4641724-1.3102417-11.3086548,0.1472778-16.2495728,3.5327759
		c-1.362915-0.4628296-2.7390747-0.8650513-4.1287231-1.201416c0.8601685-10.7022095-4.7544556-19.9941406-14.4354858-22.3155518
		c-2.8032227-0.6721802-5.6951294-0.692627-8.5401611-0.1636353c-4.5025635-11.4853516-9.2046509-22.1846924-14.069519-32.1229858
		C535.5040894,381.5238647,593.6947632,316.2709351,603.3414917,266.4754639z"/>
	<path class="st1" d="M458.1361694,308.6600342c-1.2599487-0.7199707-14.0917358,35.0091248-70.4585876,53.9448547
		c-11.7008362,3.9307556-24.3363037,8.5782166-39.8531494,9.9082336
		c-53.9448242,4.6238403-91.8163147-25.1008606-114.7153625-51.9631958
		c-8.7149811-10.2233276-78.7678833,97.3791504,92.9172974,110.5318604
		c11.2821655,0.8643188,21.6828003,0.7417603,31.2970581-0.1761475c0.1520386,4.5274048,0.3300781,30.6817627-13.2420654,72.3961792
		c-2.9984131,9.2156982,20.8478394,10.6226196,38.9812622,8.2874756c0.8912354,3.3057251,2.5764771,6.241394,5.4957275,8.8868408
		c10.4269409,9.4490967,47.9019775,2.8729858,53.2843018-10.128418c18.4844971-44.6508789,6.7385864-86.6158447-7.770752-115.557251
		C466.104126,359.5308228,466.0714722,313.1943665,458.1361694,308.6600342z"/>
	<g>
		<g>
			<path class="st9" d="M295.9797363,264.649353c0,10.4500122-5.4599609,18.9199829-12.2000122,18.9199829
				c-6.7399902,0-12.1999512-8.4699707-12.1999512-18.9199829c0-10.4400024,5.4599609-18.9099731,12.1999512-18.9099731
				c2.1500244,0,4.1700439,0.8599854,5.9200439,2.3699951c2.3999634,2.0700073,4.2999878,5.3599854,5.3599854,9.3299561
				C295.6497803,259.6593628,295.9797363,262.0993652,295.9797363,264.649353z"/>
			<path class="st7" d="M295.0597534,257.4393311c-1.0200195,1.0600586-2.4500122,1.7200317-4.039978,1.7200317
				c-3.0900269,0-5.6000366-2.5100098-5.6000366-5.6099854c0-2.6400146,1.8300171-4.8500366,4.2800293-5.4400024
				C292.0997314,250.1793823,293.9997559,253.4693604,295.0597534,257.4393311z"/>
		</g>
		<g>
			<path class="st9" d="M410.5797729,264.649353c0,10.4500122-5.460022,18.9199829-12.2000122,18.9199829
				s-12.2000122-8.4699707-12.2000122-18.9199829c0-10.4400024,5.460022-18.9099731,12.2000122-18.9099731
				c2.1499634,0,4.1699829,0.8599854,5.9199829,2.3699951c2.4000244,2.0700073,4.2999878,5.3599854,5.3599854,9.3299561
				C410.2497559,259.6593628,410.5797729,262.0993652,410.5797729,264.649353z"/>
			<path class="st7" d="M409.659729,257.4393311c-1.0199585,1.0600586-2.4499512,1.7200317-4.0299683,1.7200317
				c-3.1000366,0-5.6099854-2.5100098-5.6099854-5.6099854c0-2.6300049,1.8200073-4.8400269,4.2799683-5.4400024
				C406.6997681,250.1793823,408.5997314,253.4693604,409.659729,257.4393311z"/>
		</g>
	</g>
	<ellipse class="st9" cx="341.4057922" cy="286.492981" rx="17.7678547" ry="9.0254173"/>
	<path class="st9" d="M372.4730835,301.7458496c-0.6630859-0.4943237-1.6005249-0.3582764-2.0963745,0.3031006l-0.0003662-0.0002441
		c-0.0141602,0.0211182-1.302124,1.7088623-3.713623,3.3566895c-2.4175415,1.6509399-5.9207153,3.2623291-10.4911499,3.2636719
		c-3.6265869-0.0022583-7.9657593-1.010376-13.0547485-3.9536743l0.000061-0.000061
		c-0.0445557-0.0247192-0.2756958-0.1921997-0.6021729-0.3400269c-0.3292236-0.1506958-0.7856445-0.2824707-1.3015137-0.2805176
		c-0.5947266-0.0014038-1.2364502,0.1682739-1.8772583,0.5073853l-0.0873413,0.0497437
		c-5.3640747,3.2952271-9.8059082,4.4052124-13.4157104,4.4071045c-4.5062256-0.0029907-7.8117676-1.732666-10.0514526-3.4851074
		c-1.1149292-0.8751831-1.9506226-1.7539673-2.4987183-2.4037476c-0.2741089-0.3247681-0.4763794-0.592041-0.6062012-0.7720947
		c-0.0649414-0.0900269-0.1116943-0.1582031-0.1403809-0.2008667l-0.0293579-0.0443115l-0.0044556-0.006897l-0.0003662,0.0002441
		c-0.4420166-0.6981201-1.3657227-0.9077759-2.0656738-0.4674683c-0.7012329,0.4411621-0.9120483,1.3671875-0.4709473,2.0683594
		c0.0628052,0.0963745,1.3480835,2.1297607,3.9634399,4.1864014c2.6067505,2.0528564,6.6001587,4.128418,11.9041138,4.1254883
		c4.2195435,0.0018921,9.2088623-1.3155518,14.9059448-4.8046875c0.2979736-0.1535645,0.4317017-0.1581421,0.4743652-0.1595459
		l0.0748901,0.0183716l0.0950928,0.0545044c0.0482178,0.029541,0.1065674,0.071106,0.2299805,0.1437378
		c5.4691772,3.1694336,10.3638306,4.3599243,14.5584106,4.357666c5.3796997,0.0013428,9.5397339-1.9459229,12.3167114-3.878418
		c2.7832031-1.935791,4.2233276-3.8574829,4.2908936-3.9457397
		C373.274292,303.1807251,373.1372681,302.2409668,372.4730835,301.7458496z"/>
	<path class="st10" d="M191.8490143,502.3335876c-9.496994-1.4483337-17.7465515,5.1397705-21.9908752,16.0628967
		c-11.5492249-1.9862061-21.4446564,1.6932373-25.0933228,10.5802002
		c-5.3265076,12.9736938,4.6752625,32.1268921,22.3395691,42.7800903
		c13.0662537,7.8800659,26.658905,8.8945312,35.0090027,3.6418457c8.802475-4.4532471,14.9320068-16.6277466,14.9050446-31.8862305
		C216.9819641,522.8843384,205.7132568,504.447998,191.8490143,502.3335876z"/>
	<path class="st10" d="M492.735199,502.3335876c9.4970093-1.4483337,17.7465515,5.1397705,21.9908752,16.0628967
		c11.5491943-1.9862061,21.4446411,1.6932373,25.0933228,10.5802002
		c5.3264771,12.9736938-4.6752319,32.1268921-22.3395996,42.7800903
		c-13.0662231,7.8800659-26.6588745,8.8945312-35.0089722,3.6418457
		c-8.8024902-4.4532471-14.9320068-16.6277466-14.9050598-31.8862305
		C467.6022644,522.8843384,478.8709412,504.447998,492.735199,502.3335876z"/>
	<path class="st10" d="M553.3588867,224.9197083c6.456604-1.964859,12.8565674,1.7833405,16.9091797,8.9494324
		c7.8291016-2.5458069,15.0799561-0.9858246,18.5130615,4.824707c5.0117798,8.4825745-0.0099487,22.8074951-11.2163696,31.9957275
		c-8.2893066,6.7964783-17.637146,8.8728333-23.97229,6.0631714c-6.5690308-2.2081909-12.0584717-10.0541382-13.5787964-20.6651611
		C537.958374,241.7424469,543.9332275,227.788147,553.3588867,224.9197083z"/>
	<path class="st10" d="M468.68573,155.5575562c-4.461792,0-8.7683716,0.526062-12.8405762,1.4903564
		c13.7573242,20.1781616,22.3155518,44.1812134,23.7523804,70.0860596
		c19.7384033-3.9175415,34.3746338-18.2119751,34.3746338-35.2540283
		C513.972168,171.8196411,493.6967773,155.5575562,468.68573,155.5575562z"/>
	<path class="st10" d="M226.725708,157.3951416c-4.4738159-1.1862793-9.2511597-1.8375854-14.2207642-1.8375854
		c-25.0109863,0-45.286438,16.262085-45.286438,36.3223877c0,17.5004272,15.4324951,32.1069336,35.9767456,35.5505981
		C204.5749512,201.5615234,213.0550537,177.578125,226.725708,157.3951416z"/>
	<g>
		<path class="st9" d="M593.3458862,218.2607422c-7.885437-7.7255859-18.5418701-11.6699219-29.6167603-11.6680298
			c-10.3932495,0.000061-21.1769409,3.4653931-30.473999,10.5342407
			c-9.2980957,7.0670166-17.0948486,17.7415161-21.5292969,32.0854492
			c-12.6030273,40.7194214-31.2755127,62.581604-47.3323364,74.3892822
			c-0.0490112-4.2067871-0.5056152-7.776123-1.3485107-10.5327759c-0.4487915-1.4569702-1.0018311-2.6952515-1.7142334-3.699585
			c-0.253418-0.3563843-0.5419312-0.6739502-0.8477783-0.9680176c13.2067261-21.3562622,20.8364258-46.5256348,20.836731-73.4806519
			c0-2.2086182-0.0575562-4.4037476-0.1588135-6.5873413c0.152832-0.0340576,0.3052979-0.0688477,0.4575195-0.104126
			c29.1760254-2.7942505,51.9928589-27.3644409,51.9937744-57.2728271
			c-0.0010376-31.7816772-25.7631226-57.5437622-57.5447388-57.5447388
			c-16.1589966,0.0004883-30.7525635,6.6695557-41.2045898,17.3942261
			c-24.7753906-22.2540283-57.5323486-35.7987061-93.4570312-35.7991333
			c-35.9247437,0.0004272-68.6817017,13.545105-93.4570923,35.7991333
			c-10.4520264-10.7247314-25.0455933-17.3937378-41.2045898-17.3942261
			c-31.7816772,0.0009766-57.5437622,25.7630615-57.5447388,57.5447388
			c0.0009155,28.805481,21.1641235,52.6657104,48.7908325,56.8826904c1.1958618,0.3148193,2.4121704,0.5910034,3.6477661,0.8283081
			c-0.0912476,2.0737915-0.1461182,4.1570435-0.1461182,6.2532959
			c0.0004272,31.5593262,10.4529419,60.6748657,28.0795288,84.0822144
			c-0.4370117,0.1720581-0.8730469,0.3756104-1.3115234,0.6278687c-1.9661865,1.1481323-4.0383911,3.0837402-6.1340332,5.6656494
			c-3.1324463,3.8724365-6.2732544,9.2080078-8.6514282,15.4897461c-2.3754272,6.2803345-3.9828491,13.5065918-3.9835815,21.1292114
			c-0.0009155,6.1748047,1.0776367,12.6112061,3.6430054,18.9755859
			c-11.4261475,18.0626831-22.3373413,39.4920654-32.3026733,64.7758179
			c-0.7827148-0.0820923-1.5674438-0.1338501-2.3536987-0.1342163c-1.6612549,0-3.3235474,0.1879272-4.9595337,0.5802612
			c-4.8710327,1.1638794-8.8323364,3.9976807-11.5255127,7.8267212c-2.6981812,3.8294067-4.1505127,8.6384277-4.1505127,13.809082
			c0,0.331543,0.0098267,0.6654663,0.0217896,0.9998779c-0.786499,0.2116089-1.5703125,0.4354248-2.3484497,0.6867676
			c-3.7895508-2.4420166-8.0657349-3.8549805-12.375-3.8572998c-1.4854736-0.000061-2.9724121,0.1680298-4.4360352,0.519043
			c-4.3584595,1.0409546-7.9074097,3.5796509-10.3164062,7.0054932c-2.4140091,3.4262085-3.7103348,7.723938-3.7103348,12.3392334
			c0,2.8704834,0.5012207,5.8664551,1.5488281,8.8616943c0.0286255,0.0817871,0.0649414,0.1589966,0.0942383,0.2404175
			c-0.6333008,1.2225952-1.2235107,2.47229-1.770752,3.7468872c-0.8596802-0.1401978-1.72229-0.2337646-2.5853882-0.2348633
			c-1.0286865-0.000061-2.0543823,0.1043091-3.0635376,0.3218994c-3.5299683,0.7542114-6.3894653,2.8267822-8.2874756,5.6715698
			c-1.9055786,2.8457642-2.8907471,6.4385376-2.8914795,10.350647c0.0002441,2.9272461,0.5523071,6.0394897,1.7020874,9.1773071
			c1.8945312,5.1641235,5.0939941,9.5620117,8.9055176,12.7009277c0.8125,0.6679077,1.6588135,1.2664795,2.5227051,1.8158569
			c1.4645996,7.5167847,4.0977783,15.0632324,7.9740067,22.3303833
			c13.0750122,24.4978638,36.6098633,39.119812,59.4802246,39.1337891c8.159729,0.0009766,16.2317505-1.8742065,23.65802-5.8363647
			c9.0775146-4.8405762,16.0986938-12.2174072,20.8291626-21.0724487c2.6254883-4.913269,4.5471802-10.2822266,5.7406616-15.9349976
			c7.8530884,1.894043,16.1705322,3.4610596,24.8578491,4.7417603
			c10.6965332,18.1834717,22.7390747,33.5823364,35.7333374,43.7024536
			c12.4163818,9.6624756,24.5634155,13.8359375,35.4573364,13.8346558
			c12.2297363,0.0053711,22.8012085-5.2720947,30.2436523-13.6136475
			c7.4497681-8.3411865,11.815979-19.7335205,11.8168335-32.0407715c0.0009766-2.5692749-0.1976929-5.1792603-0.5905151-7.8082886
			c25.3341064-1.2501221,49.2595215-4.0543823,69.9276123-9.1408081c1.1877441,5.7721558,3.1343994,11.2522583,5.8101807,16.2596436
			c4.7305298,8.8550415,11.751709,16.2318726,20.8292236,21.0724487c7.4262085,3.9621582,15.49823,5.8373413,23.65802,5.8363647
			c22.8703613-0.0139771,46.4052124-14.6359253,59.4801636-39.1337891
			c3.8762207-7.2671509,6.5094604-14.8136597,7.9741211-22.3304443c0.8638306-0.5493774,1.710083-1.1479492,2.522583-1.8157959
			c3.8115234-3.138916,7.0109863-7.5368042,8.9055176-12.7008667c1.1497803-3.1379395,1.7018433-6.2501831,1.7020874-9.1773682
			c-0.0007935-3.9121094-0.9859619-7.5048828-2.8914795-10.350647c-1.8980103-2.8447876-4.7575073-4.9173584-8.2874756-5.6716309
			c-1.0092163-0.2175293-2.0348511-0.3218994-3.0635376-0.3218384c-0.8630981,0.0010986-1.725647,0.0946655-2.5853271,0.2348633
			c-0.5472412-1.2745972-1.1375122-2.524292-1.770813-3.7469482c0.0292969-0.0814209,0.0656128-0.1585693,0.0942383-0.2403564
			c1.0475464-2.9952393,1.5488281-5.9912109,1.5488281-8.8616943c0-4.6153564-1.2962646-8.9130249-3.7103271-12.3392334
			c-2.4089966-3.4258423-5.9580078-5.9645996-10.3164062-7.0054932c-1.463623-0.3510132-2.9506226-0.519104-4.4360352-0.519043
			c-4.3092651,0.0023193-8.5853882,1.4152832-12.374939,3.8573608c-0.7781982-0.2514038-1.5618896-0.4752197-2.3484497-0.6868286
			c0.0119629-0.3344116,0.0217896-0.668335,0.0217896-0.9998779c0-5.1707153-1.4522705-9.9796753-4.1505127-13.809082
			c-2.6931763-3.8290405-6.65448-6.6628418-11.5255737-7.8267212c-1.6359863-0.392334-3.2982178-0.5802612-4.9594116-0.5802612
			c-0.9907837,0.0004883-1.9784546,0.090271-2.9626465,0.2197876c-4.2161255-10.6765137-8.6109619-20.6520996-13.1450195-29.9898071
			c23.5645752-16.9545898,49.5857544-41.4385376,71.046875-67.9251709
			c10.8840332-13.4348755,20.5914917-27.380127,28.197937-41.1242676
			c7.6049194-13.7453003,13.114624-27.2876587,15.5700684-39.9523315c0.9955444-5.1389771,1.4639893-9.9735718,1.4639893-14.4969482
			C606.2863159,237.4668579,601.2363281,225.9814453,593.3458862,218.2607422z M460.6917114,316.0106201
			c0.454834,2.2559814,0.7119751,5.0698242,0.7114258,8.2999268c0.0001221,0.4609375-0.0065918,0.9327393-0.0170898,1.4102173
			c-0.0131836,0.6032104-0.0344849,1.2185059-0.0650635,1.8468628c-0.02948,0.6071167-0.0689697,1.2277222-0.1151123,1.8569946
			c-0.5333862,7.2762451-2.1901245,15.9927979-5.3236084,25.1918335
			c-4.2177734,12.3889771-11.1159058,25.6375732-21.4752808,37.5269775c-1.1468506-2.2230225-2.305603-4.369812-3.4648438-6.425293
			c-8.3637695-14.8248901-16.713562-25.1711426-20.2044678-29.2467651
			c8.1082764-4.6349487,15.7062378-10.05896,22.6933594-16.1653442c0.694458-0.6068726,1.3865967-1.2163086,2.0688477-1.8366089
			c0.71698-0.6519165,1.4243774-1.3141479,2.1276245-1.9805908c8.0248413-7.6049805,15.1459351-16.1519775,21.1929932-25.4620972
			c0.0224609,0.0300293,0.0436401,0.0505981,0.0662842,0.0823975
			C459.572876,312.0603027,460.2431641,313.7554321,460.6917114,316.0106201z M381.2161865,510.2996216
			c-4.3969116,0.5013428-9.072998,0.7848511-13.5541992,0.782959c-6.2216797,0.00354-12.0892334-0.5473022-16.2437134-1.7296143
			c-2.0754395-0.5841064-3.7096558-1.3361206-4.7133179-2.1380615c-0.5045166-0.3994141-0.8497925-0.8005981-1.0644531-1.1860352
			c-0.2138062-0.3884888-0.3137817-0.7589722-0.3163452-1.2045288c0.0001831-0.3078003,0.0527954-0.6557007,0.1835938-1.0583496
			c12.1729736-37.413269,13.3488159-62.4189453,13.3485107-70.6735229c0-0.2961426-0.0018921-0.5631714-0.0044556-0.815979
			c7.4958496-0.7817383,14.5016479-2.0637207,21.0549316-3.7633667c0.4119263,1.4048462,0.7629395,2.6894531,1.0275269,3.7980347
			c2.7296143,11.4257812,3.6427002,21.4505615,3.6431274,30.3150635c-0.0001221,9.0440674-0.9517822,16.880188-1.9124756,23.7717285
			c-0.9581909,6.8932495-1.9375,12.8366699-1.9412231,18.1473999
			C380.7238159,506.5474854,380.8686523,508.4634399,381.2161865,510.2996216z M385.6361694,486.8120728
			c0.9661255-6.9317017,1.9412842-14.9317017,1.9412231-24.1858521c0.0003662-9.0712891-0.9377441-19.3479004-3.7252808-31.0122681
			c-0.2764282-1.1552734-0.6356201-2.4689331-1.050415-3.8869629c-0.1380615-0.472229-0.2783203-0.9483032-0.4299927-1.4458618
			c-0.1403198-0.4603882-0.2885742-0.9353638-0.4397583-1.4158936c-0.0067749-0.0214844-0.0128174-0.041748-0.0195923-0.0632324
			c-0.1467896-0.4658813-0.3013916-0.9460449-0.4576416-1.4293823c-0.1519165-0.4698486-0.3051758-0.9421387-0.4654541-1.4272461
			c-0.6672363-2.0194092-1.4001465-4.1577759-2.1859131-6.385376
			c-5.6714478-16.0704346-13.8709106-36.3061523-16.3225708-42.3051758
			c-0.0421143-0.1030884-0.0778809-0.1903687-0.1165771-0.2849731l7.2355347-2.5123291l33.6483154-11.6834717l4.237793-1.4714355
			c0.1637573,0.1850586,0.3582153,0.4071045,0.5789795,0.6618652c3.1734009,3.6615601,12.0284424,14.4375,20.769104,30.1278687
			c1.1495972,2.0629272,2.2959595,4.2153931,3.4279785,6.4424438c0.241394,0.4749756,0.4822998,0.9517822,0.722168,1.4338989
			c0.236145,0.4746094,0.4720459,0.9506226,0.7064819,1.4321289c8.7081909,17.8850708,16.1497192,40.4780884,16.1463623,65.3961792
			c-0.0008545,14.9700928-2.6777344,30.7844238-9.380188,46.9769897c-0.7516479,1.8296509-2.3599854,3.6628418-4.659668,5.3338013
			c-3.4406128,2.5112305-8.3723145,4.625061-13.7764282,6.0748291c-5.4042969,1.4546509-11.2850342,2.2591553-16.6370239,2.2580566
			c-3.463562,0.0008545-6.7059326-0.3374023-9.4378052-1.0285645c-2.7350464-0.687439-4.9406128-1.736084-6.380188-3.0474854
			c-2.2299805-2.0254517-3.644165-4.1578369-4.5462646-6.5365601c-0.0119019-0.0314331-0.026123-0.0618286-0.0378418-0.0933228
			c-0.1621704-0.4368896-0.2876587-0.894165-0.4158325-1.3501587c-0.1341553-0.4772949-0.2473755-0.9691162-0.3466187-1.4685059
			c-0.3302002-1.6618042-0.4954834-3.4345093-0.4953613-5.3707275
			C383.7200317,499.6090698,384.6675415,493.7420654,385.6361694,486.8120728z M481.1663208,225.2557983
			c-0.0605469,0.0142822-0.1217041,0.0274658-0.182312,0.0415649c-0.0006714-0.0091553-0.0010986-0.0184326-0.00177-0.0275879
			c-1.6849365-24.7230225-9.7907715-47.6790161-22.6647339-67.2194214
			c3.3234863-0.6432495,6.7929077-0.9934082,10.3682251-0.9927979c12.1801758-0.0020142,23.1801758,3.9662476,31.0838623,10.3087158
			c7.9091797,6.3522339,12.7010498,15.005127,12.7025757,24.5136719c-0.0015259,9.5085449-4.793396,18.161438-12.7025757,24.5136719
			C494.6824341,220.4758911,488.3079834,223.5662231,481.1663208,225.2557983z M437.4984741,132.3873901
			c9.8754272-9.8729858,23.5021362-15.9750366,38.5689697-15.975769
			c15.0668335,0.0007935,28.6935425,6.1027832,38.5689087,15.9758301
			c9.8730469,9.8753662,15.9750366,23.5020752,15.9758301,38.5689087
			c-0.0007935,15.0668945-6.1027832,28.6935425-15.9758301,38.5689697
			c-4.2290039,4.2280273-9.1500854,7.7574463-14.5735474,10.4193115c0.5390015-0.3938599,1.067688-0.7969971,1.5838013-1.2107544
			c8.4813232-6.7938843,13.8271484-16.3022461,13.8255615-26.8539429
			c0.0015869-10.5517578-5.3442383-20.0600586-13.8255615-26.8539429
			c-8.4868164-6.8036499-20.1300659-10.9664307-32.9608765-10.9684448
			c-4.2145386,0.0006714-8.296814,0.4584351-12.1853027,1.3030396
			c-5.6688232-8.1852417-12.1864624-15.7359619-19.4287109-22.5255127
			C437.2158203,132.6876221,437.3527222,132.5332031,437.4984741,132.3873901z M168.1751709,209.5253296
			c-9.8729858-9.8754272-15.9750366-23.5021362-15.975769-38.5689697
			c0.0007324-15.0668335,6.1027832-28.6935425,15.975769-38.5689697
			c9.8754272-9.8729858,23.5021362-15.9750366,38.5689697-15.975769
			c15.0668945,0.0007935,28.6936035,6.1027832,38.5689697,15.9758301c0.145813,0.145813,0.2826538,0.3002319,0.4267578,0.4476929
			c-7.3362427,6.8776855-13.9295654,14.5360718-19.6495972,22.8441772
			c-4.3028564-1.0523682-8.8625488-1.6210327-13.5853271-1.6217651
			c-12.8308716,0.0020752-24.4741211,4.1647949-32.9608765,10.9684448
			c-8.4813232,6.7938843-13.8272095,16.3022461-13.8256226,26.8539429
			c-0.0014648,9.6958008,4.5203247,18.5042725,11.8328247,25.1416016
			C174.1566772,214.8653564,171.0072632,212.3566895,168.1751709,209.5253296z M201.8053589,225.6481323
			c-1.0933838-0.2188721-2.1672974-0.4745483-3.2259521-0.7573853c-6.5560303-1.7514038-12.4170532-4.6924438-17.1583252-8.4971313
			c-7.9091797-6.3522339-12.7010498-15.005127-12.7026367-24.5136719c0.0015869-9.5085449,4.793457-18.161438,12.7026367-24.5136719
			c7.9036865-6.3424683,18.9036865-10.310791,31.0838623-10.3087158c4.0901489-0.0006714,8.0421753,0.4556885,11.7935791,1.289978
			c-12.7606201,19.4758301-20.7927856,42.3245239-22.4691772,66.9222412
			C201.8207397,225.3956909,201.8135986,225.5220947,201.8053589,225.6481323z M204.4918823,234.9206543
			c0.000061-1.9316406,0.050293-3.8513184,0.1295166-5.7634277c0.0097656-0.2362061,0.0159302-0.4733276,0.0269165-0.7091675
			c0.0123901-0.2654419,0.0220337-0.5315552,0.0358887-0.7965698c0.0122681-0.2344971,0.0310059-0.4671631,0.0444946-0.701355
			c0.0153198-0.2670288,0.0338135-0.5332031,0.0506592-0.7998047c0.0147095-0.232605,0.0283813-0.4655151,0.0442505-0.6978149
			c1.6687622-24.4274902,9.7396851-47.0879517,22.553772-66.326355c0.2912598-0.4372559,0.5836792-0.8735352,0.8798218-1.307251
			c0.295166-0.432312,0.5944824-0.8615723,0.8944702-1.2902832c4.6078491-6.5856934,9.7738037-12.7526245,15.4413452-18.4207764
			c1.0420532-1.0419312,2.1068115-2.06073,3.1818237-3.0687866c0.3649292-0.3422241,0.7299194-0.6843872,1.0985718-1.022583
			c0.3683472-0.3379517,0.7393799-0.6729126,1.1114502-1.006897c24.2433472-21.7617798,56.2776489-35.0021973,91.4209595-35.0028687
			c35.1433716,0.0006714,67.1776123,13.2410889,91.4208984,35.0028687c0.3720703,0.3339844,0.743042,0.6690063,1.1114502,1.006958
			c0.3685913,0.3381958,0.7336426,0.6802979,1.0985107,1.022522c1.0750122,1.0080566,2.1398315,2.0268555,3.1818848,3.0687866
			c5.5546265,5.5551758,10.6294556,11.5880737,15.1676025,18.0259399c0.305542,0.4335327,0.6061401,0.8708496,0.9067993,1.3080444
			c0.2998657,0.4360352,0.600647,0.8713989,0.8955688,1.3110352c12.9580078,19.3179321,21.119873,42.1148682,22.7994385,66.699646
			c0.0101929,0.1495361,0.0186768,0.2994995,0.0284424,0.4490967c0.0227051,0.3493652,0.0463867,0.6984863,0.0664673,1.0485229
			c0.0087891,0.1531982,0.020813,0.305542,0.0291138,0.4588623c0.0187378,0.3460083,0.0350952,0.6923828,0.0512695,1.0390625
			c0.0073242,0.1573486,0.0111694,0.3156128,0.0180054,0.4730835c0.0858154,1.9898682,0.1383667,3.9884033,0.1384277,5.9995117
			c-0.0004883,26.463501-7.5130615,51.161438-20.5120239,72.1013184c-0.2817993,0.4539795-0.5617676,0.9091797-0.8487549,1.3596191
			c-0.2984619,0.4684448-0.6039429,0.9318848-0.9078979,1.3964233
			c-5.1851807,7.9244995-11.1623535,15.2846069-17.8324585,21.9553833
			c-1.8671265,1.8669434-3.7941895,3.6732178-5.7659912,5.4302979c-0.3824463,0.3408203-0.7633057,0.6834106-1.1495361,1.0199585
			c-0.3880005,0.3380127-0.7808228,0.6702271-1.1726074,1.0039673
			c-6.6575928,5.6706543-13.8632202,10.7141113-21.5282593,15.0407715c-0.3556519-0.1776733-0.7716675-0.2211304-1.159729-0.0863647
			l-18.0449219,6.265625l-28.0779419,9.7492676l-1.1159058,0.3874512c-2.5336914,0.3479004-5.0881348,0.6303711-7.6641235,0.8377075
			c-3.6727295,0.2955933-7.3846436,0.4524536-11.133728,0.4525146c-8.7236328-0.0001831-17.2526245-0.8255005-25.5219727-2.3845825
			c-7.3338623-1.3827515-14.4630127-3.3430176-21.3330688-5.8450928c-4.9099121-1.788147-9.6849976-3.8552246-14.3141479-6.1711426
			c-5.8370972-2.9202271-11.4353027-6.2449951-16.7602539-9.9383545c-4.2949219-2.9789429-8.4120483-6.1951294-12.3307495-9.6337891
			c-0.3765259-0.3303833-0.7510986-0.6629639-1.1240234-0.9974365c-0.3726807-0.3342896-0.744873-0.6691895-1.1138916-1.0075073
			c-1.4666138-1.3446655-2.9078369-2.7166138-4.3146973-4.123291c-2.2160645-2.2163086-4.3530273-4.5112305-6.4136353-6.8743286
			c-1.6859131-1.9334106-3.3168945-3.9154053-4.8936157-5.9419556
			C215.2414551,295.7246704,204.4924927,266.5845337,204.4918823,234.9206543z M212.4908447,361.9153442
			c-0.0045776-10.9662476,3.5478516-21.2090454,7.8375244-28.6502075c2.1401978-3.7185669,4.4667358-6.7357788,6.5628662-8.7686157
			c1.0455322-1.0164185,2.0342407-1.7845459,2.874939-2.2713623c0.7687988-0.4517822,1.3955688-0.6355591,1.7808228-0.6588135
			c4.6349487,5.8687134,9.7321167,11.3543701,15.2330322,16.4080811c0.3686523,0.338623,0.7389526,0.675354,1.1112671,1.0101318
			c0.3724365,0.3348999,0.7480469,0.6664429,1.1240845,0.9973755c8.9963379,7.9175415,19.0166626,14.6959839,29.8384399,20.1143799
			c2.3249512,1.2883911,4.7452393,2.4910278,7.3079834,3.5895996c2.4066772,1.0319824,4.9348145,1.9727173,7.6046143,2.8231812
			c14.8699951,5.3845825,30.9107056,8.3253174,47.6394043,8.3255005c6.102417-0.000061,12.112915-0.3930054,18.0091553-1.1507568
			c0.1046143,0.2553101,0.2255859,0.5509033,0.3652954,0.8930664c1.7750244,4.3460083,6.2667847,15.4320679,10.7158813,27.1166382
			c2.2244263,5.8417969,4.4382324,11.8336182,6.2946777,17.2010498c0.4605713,1.3311157,0.8989258,2.6240234,1.3102417,3.8670044
			c0.1607666,0.4860229,0.3137207,0.9573364,0.4658203,1.427124c0.1577759,0.4872437,0.3087769,0.9615479,0.4564819,1.4296875
			c0.0031128,0.0099487,0.0063477,0.0200806,0.0095215,0.0300293c-0.3649292,0.0942383-0.7319336,0.1865845-1.0998535,0.2781372
			c-5.0622559,1.2595825-10.4089355,2.2628174-16.052124,2.9777222c-1.9346924,0.2451172-3.9041748,0.4559937-5.9093628,0.6316528
			c-4.7360229,0.4147339-9.6639404,0.6382446-14.8039551,0.6392822c-4.8258667,0-9.8328247-0.1911621-15.0266724-0.5890503
			c-14.8528442-1.1362915-27.8740234-2.9748535-39.2808838-5.3655396
			c-23.7832642-4.9846802-40.5131226-12.3818359-51.9456787-20.9032593
			c-6.1025391-4.5463257-10.7023315-9.4060669-14.1057129-14.4035034c-0.4432373-0.6508789-0.8718262-1.3032837-1.2749023-1.9584961
			c-0.0900879-0.1464844-0.1741943-0.2935791-0.2623291-0.4402466c-0.6886597-1.145813-1.3235474-2.296814-1.8959351-3.4520264
			c-0.3098755-0.6258545-0.5836182-1.2540894-0.8609619-1.8820801c-0.2470093-0.5592651-0.4802246-1.1188965-0.7021484-1.6793823
			c-0.2286987-0.5775146-0.4647217-1.1548462-0.6675415-1.7331543
			C213.2783813,372.4459839,212.4916992,367.0996094,212.4908447,361.9153442z M164.4445801,455.6677856
			c2.3121948-3.272644,5.6138306-5.6362915,9.7729492-6.6376953c1.399292-0.3355103,2.8245239-0.4974976,4.2599487-0.4975586
			c0.4022827-0.0002441,0.8063354,0.0319824,1.210022,0.0571899c0.5149536,0.0322266,1.029541,0.0864258,1.5449219,0.1591187
			c0.5023193,0.0708618,1.0032959,0.1574707,1.5041504,0.2657471c3.4650879,0.7492065,6.8744507,2.3652954,9.9172974,4.72229
			c4.2873535,3.3182373,7.831604,8.0563965,9.7921143,13.6658936c1.0675049,3.0523071,1.5681763,6.076416,1.5681763,8.9429932
			c0,0.2306519-0.0175781,0.4552002-0.0240479,0.6837158c-8.739563-5.5438232-18.3201904-8.9261475-27.927063-9.800415
			c-0.5131226-0.0466919-1.026062-0.0846558-1.5392456-0.1170044c-0.5172729-0.0325928-1.0344849-0.0628662-1.5515747-0.0807495
			c-0.6121216-0.0211792-1.2241211-0.0372314-1.8355103-0.0375977c-3.4584961-0.0004272-6.897583,0.3581543-10.2820435,1.0479126
			c-0.0011597-0.0968018-0.0127563-0.1965942-0.0127563-0.2930298
			C160.8419189,463.1370239,162.1374512,458.9400635,164.4445801,455.6677856z M130.8399658,474.8308105
			c2.0280762-2.8695068,4.9173584-4.9380493,8.5637817-5.8165283c1.2269897-0.2941895,2.4769287-0.4363403,3.7365112-0.4363403
			c2.9260864-0.0018921,5.9087524,0.7885132,8.7125854,2.213623c-1.477356,0.6107178-2.940918,1.2738647-4.3742065,2.0385742
			c-8.0400391,4.2873535-14.4631348,10.5670166-19.1140137,18.0985718
			c-0.4557571-1.8713989-0.6871414-3.7149048-0.6871414-5.4869995
			C127.6774826,481.385498,128.8170166,477.6998291,130.8399658,474.8308105z M120.1572189,533.892395
			c-3.352417-2.7813721-6.2268677-6.7318726-7.9164429-11.3474121c-1.0361328-2.8267822-1.519104-5.5957642-1.5188599-8.1450195
			c-0.0007324-3.4111938,0.8648071-6.4180298,2.3833618-8.6802368c1.5261841-2.2631836,3.6641846-3.8069458,6.4277954-4.4093628
			c0.7932129-0.1709595,1.6050415-0.2545166,2.4313354-0.2545166c0.4766235-0.0007935,0.9592285,0.0318604,1.4448853,0.0872192
			c-2.6053467,7.0596924-3.9481201,14.7807617-3.9483643,22.7675781
			C119.4609909,527.2016602,119.6969528,530.5385742,120.1572189,533.892395z M236.1470337,553.0310059
			c-0.0793457,0.496521-0.1554565,0.9936523-0.2461548,1.4858398c-0.0909424,0.4933472-0.2017212,0.9785156-0.3040771,1.4672852
			c-1.1365356,5.4275513-2.9488525,10.5740356-5.4489746,15.2512207
			c-4.4811401,8.3807373-11.0718384,15.2913818-19.5953369,19.8395386
			c-6.9763184,3.7203979-14.543335,5.4824219-22.2460327,5.4833374
			c-21.5731201,0.0140381-44.236145-13.9161987-56.833252-37.5457153
			c-3.3249512-6.2329102-5.6939774-12.6722412-7.1687698-19.1043091c-0.1389771-0.6060791-0.2683716-1.2119141-0.3914185-1.817688
			c-0.1272583-0.62677-0.246521-1.2531128-0.3567505-1.8792114c-0.7290039-4.1392822-1.095459-8.2589111-1.0953369-12.3006592
			c-0.0003052-7.7938232,1.333313-15.2958374,3.8985596-22.1011353c0.1766357-0.4685669,0.3824463-0.9199829,0.5707397-1.3817749
			c0.1897583-0.4653931,0.3735962-0.9341431,0.5750732-1.392395c0.1292114-0.2938232,0.2578735-0.5873413,0.3919067-0.8781128
			c0.2648392-0.574707,0.5518265-1.1348267,0.8353958-1.6972656c0.190979-0.3789062,0.3632812-0.7702026,0.5627441-1.1433105
			c0.1029053-0.1923828,0.2216187-0.3733521,0.3267212-0.564209c4.4727173-8.1218872,10.9407349-14.831665,19.2685547-19.2753296
			c2.0088501-1.0712891,4.071106-1.9614258,6.1670532-2.7126465c0.5699463-0.2042847,1.1395264-0.4099731,1.7149048-0.5910034
			c0.4520874-0.1422729,0.9089966-0.2617188,1.3641357-0.3897705c0.1256104-0.0353394,0.2512817-0.0699463,0.3771362-0.104187
			c0.361084-0.0982666,0.7194824-0.2093506,1.0823364-0.2988281c0.4932861-0.121521,0.991272-0.2176514,1.4876099-0.322998
			c3.3001099-0.7000732,6.661377-1.0635376,10.0529175-1.0639648c0.289978-0.0001831,0.5808716,0.012146,0.8712158,0.0169678
			c0.5183716,0.008667,1.0368652,0.0217285,1.5561523,0.0462646c0.5150146,0.0244141,1.0301514,0.0516968,1.5458374,0.0916748
			c9.774231,0.757019,19.6279297,4.3060913,28.543335,10.2440186c0.4561157,0.303772,0.911438,0.6096802,1.3624878,0.9259644
			c0.4429321,0.3106079,0.8832397,0.6272583,1.3209839,0.9497681c8.5341187,6.2873535,16.0671387,14.8303833,21.6331787,25.2711182
			c6.1056519,11.4456787,9.0125732,23.5879517,9.0123291,35.1018677
			C236.9823608,546.1797485,236.6868286,549.6505737,236.1470337,553.0310059z M239.0827637,553.7630615
			c0.5924683-3.6206665,0.899353-7.3404541,0.8994751-11.1217041c-0.0003052-12.0178223-3.0313721-24.638855-9.3653564-36.5137939
			l-1.3234863,0.7059326l1.3234863-0.7059937c-6.0447388-11.3256226-14.3276367-20.534729-23.7443237-27.1711426
			c0.0838013-0.859314,0.1416016-1.7271118,0.1416016-2.6105957c0-3.2158203-0.5614624-6.5740967-1.7363892-9.9334106
			c-2.1610107-6.1751099-6.0448608-11.3743896-10.7872925-15.0475464c-3.2283936-2.4985962-6.8665771-4.274353-10.6415405-5.1687622
			c9.5296631-24.0872192,19.911438-44.5944824,30.7539673-61.9855347c0.0300293,0.0612183,0.053894,0.1229248,0.0842285,0.184082
			c0.5681152,1.1480103,1.2024536,2.2890625,1.8769531,3.4251099c-0.7220459,4.3855591-1.0700073,9.3599243-1.0703735,14.8364868
			c0.0015259,14.0515137,2.2652588,31.3739624,6.387146,50.0688477
			c6.1851196,28.0387573,16.5557861,59.1491089,29.8321533,86.7479248
			c3.1009521,6.4407959,6.3599854,12.6870117,9.7599487,18.6621704
			C253.6567383,556.9263916,246.1693726,555.4771729,239.0827637,553.7630615z M362.5892334,603.3809814
			c-6.9412231,7.7594604-16.6500244,12.6069336-28.0064087,12.6123047
			c-10.1172485-0.0012817-21.6048584-3.8627319-33.6152954-13.2025757
			c-11.5690918-8.9953613-22.5657959-22.5547485-32.4955444-38.7050171c-0.421814-0.6856689-0.8346558-1.392334-1.2525635-2.0871582
			c-0.3306274-0.5496826-0.6627197-1.0958252-0.9908447-1.651062c-0.3234253-0.5472412-0.6459961-1.09552-0.967041-1.6480103
			c-13.4881592-23.2128296-24.8441162-50.9954224-32.9750366-78.0201416
			c-8.7730103-29.1403198-13.7973633-57.4174805-13.7927856-78.0231323
			c-0.0002441-3.9805908,0.1907959-7.6662598,0.5700684-11.0158691c6.133667,8.5684204,15.6008911,16.6134644,29.494812,23.3096313
			c10.9047241,5.2575073,24.543396,9.6983032,41.4490967,12.961731c0.2252197,3.3667603,1.4692383,13.4365845,8.2859497,28.7724609
			c8.1891479,18.4273071,24.414856,44.4411621,56.5318604,75.5692139
			c9.8378296,9.5411377,15.4237671,20.1096802,17.6589966,30.4387817c0.107666,0.4974365,0.1983643,0.9932251,0.2905273,1.4894409
			c0.0922852,0.4968262,0.1934204,0.9943848,0.2703247,1.4896851c0.4017944,2.5855103,0.5969849,5.1481934,0.5979614,7.6676025
			C373.644104,584.9361572,369.5231934,595.6210327,362.5892334,603.3809814z M562.619812,501.0558472
			c0.8262329,0,1.6381226,0.0835571,2.4313354,0.2545166c2.7636108,0.602417,4.9016113,2.1461792,6.4277344,4.4093628
			c1.5186157,2.262207,2.3841553,5.269043,2.3834229,8.6802368c0.0001831,2.5492554-0.4827271,5.3181763-1.5189209,8.1450195
			c-1.6895142,4.6156006-4.5640259,8.56604-7.9163208,11.3474121c0.4602661-3.3538208,0.696228-6.6907349,0.6962891-9.9818115
			c-0.0002441-7.9868164-1.3430176-15.7078247-3.9483643-22.7675171
			C561.6606445,501.0877075,562.1432495,501.0550537,562.619812,501.0558472z M541.4439697,468.5779419
			c1.2595215,0,2.5095215,0.1421509,3.7365112,0.4363403c3.6464844,0.878479,6.5357666,2.9470215,8.5637817,5.8164673
			c2.0229492,2.8690796,3.1625366,6.5546875,3.1624756,10.6109619c0,1.7720947-0.2313232,3.6155396-0.6870728,5.4869385
			c-4.6508789-7.5314941-11.0740967-13.8111572-19.1141357-18.0985107
			c-1.4332275-0.7647095-2.8967896-1.4278564-4.3741455-2.0385742
			C535.5351562,469.3664551,538.5178833,468.5760498,541.4439697,468.5779419z M526.0703735,471.6795654
			c0.1257935,0.0342407,0.2515869,0.0687866,0.3771973,0.104126c0.4551392,0.1279907,0.9120483,0.2474976,1.3640747,0.3897705
			c0.5753784,0.1810303,1.1450195,0.3867188,1.7149658,0.5910034c2.0958862,0.7512207,4.1581421,1.6413574,6.1669922,2.7126465
			c8.3278198,4.4437256,14.7957764,11.1533203,19.2685547,19.2752686c0.1051025,0.1908569,0.223877,0.3718262,0.3267822,0.56427
			c0.1994629,0.3731079,0.3717041,0.7644043,0.5626831,1.1432495c0.2835693,0.5625,0.5705566,1.1226196,0.8353882,1.6972656
			c0.1340332,0.2908325,0.2626953,0.5843506,0.3919067,0.8781738c0.2014771,0.458252,0.385437,0.9269409,0.5751343,1.392334
			c0.1882935,0.461792,0.394043,0.913269,0.5706787,1.3818359c2.5652466,6.8052979,3.8988647,14.307312,3.8986206,22.1010742
			c0.000061,4.041748-0.366394,8.161377-1.0953979,12.3006592c-0.1102295,0.6260986-0.2294922,1.2525024-0.3567505,1.8792725
			c-0.1229858,0.6057739-0.2524414,1.2116089-0.3914185,1.817688c-1.4748535,6.4320679-3.8438721,12.8713989-7.1687622,19.1043091
			c-12.5970459,23.6295166-35.2600708,37.5597534-56.8331909,37.5457153
			c-7.7027588-0.0009155-15.2697754-1.7629395-22.2460938-5.4833374
			c-8.5234985-4.5481567-15.1141968-11.4588013-19.5952759-19.8395386
			c-2.5523682-4.7749634-4.3892212-10.0384521-5.5195923-15.5919189c-0.1002197-0.4923706-0.21698-0.9779053-0.3056641-1.4749756
			c-0.0878906-0.4927979-0.1491089-0.9952393-0.225647-1.4923096c-0.5031738-3.2692261-0.7836304-6.6196289-0.7835083-10.03479
			c-0.0003052-11.513916,2.9066162-23.656189,9.0122681-35.1018677c5.56604-10.4407349,13.0991211-18.9837646,21.6331787-25.2711182
			c0.4378052-0.3225098,0.8780518-0.6391602,1.3209839-0.9497681c0.4510498-0.3162842,0.906311-0.6221313,1.3624268-0.9259033
			c8.7265625-5.8122559,18.3518677-9.3297119,27.9221191-10.1860352c0.5131226-0.0458984,1.0258179-0.0818481,1.5384521-0.1124268
			c0.5160522-0.0307617,1.0316162-0.0560913,1.546875-0.071167c0.5033569-0.0147705,1.0068359-0.0296631,1.5091553-0.0293579
			c3.3915405,0.0004272,6.7528687,0.3638916,10.0529785,1.0639648c0.4963379,0.1053467,0.9942627,0.2014771,1.4875488,0.322998
			C525.3508911,471.4701538,525.7092285,471.5812988,526.0703735,471.6795654z M502.7289429,448.8364868
			c0.5081177-0.0875244,1.0167847-0.1660767,1.5252686-0.2145996c0.6185913-0.059021,1.2366943-0.0897217,1.8526611-0.0893555
			c1.4353027,0.000061,2.8605957,0.1620483,4.2598877,0.4975586c4.1591187,1.0014038,7.4607544,3.3650513,9.7729492,6.6376953
			c2.3071289,3.2722778,3.6027222,7.4691772,3.6026611,12.0808105c0,0.0964355-0.0115967,0.196228-0.0127563,0.2930298
			c-3.3845215-0.6897583-6.8236084-1.0483398-10.2821045-1.0479126c-0.8217163,0.0004883-1.6443481,0.0252075-2.4672852,0.0632324
			c-0.5158081,0.0238037-1.0317383,0.0543823-1.5477295,0.0927734c-0.5105591,0.0380249-1.0209351,0.088501-1.5313721,0.140686
			c-9.3988037,0.9609375-18.7555542,4.3145142-27.3070679,9.7390747c-0.0064697-0.2285156-0.0240479-0.453064-0.0240479-0.6837158
			c0-2.8665161,0.5007324-5.890686,1.5682373-8.9429932c1.9605713-5.6094971,5.5048218-10.3476562,9.7921753-13.6658936
			c2.8658447-2.2198486,6.0570679-3.7799683,9.3134155-4.5820312
			C501.7380371,449.0330811,502.2325439,448.921936,502.7289429,448.8364868z M601.8688354,266.1901855
			c-2.3679199,12.2330933-7.7495728,25.5206909-15.2496948,39.0702515
			c-22.4890747,40.6646729-64.0266724,83.6325073-99.3826294,108.8026733
			c-0.5973511,0.4254761-0.7994385,1.2224121-0.4769897,1.8812256c4.6178589,9.4336548,9.0924683,19.5502319,13.3873291,30.3881836
			c-3.5643921,0.9364624-6.9923096,2.6634521-10.0530396,5.0322876c-4.7424316,3.6731567-8.6263428,8.8724976-10.7873535,15.0475464
			c-1.1748657,3.3592529-1.7364502,6.7175903-1.7364502,9.9334106c0,0.8835449,0.0578003,1.7512817,0.1416016,2.6105957
			c-9.416687,6.6364746-17.699585,15.8455811-23.7442627,27.1712036
			c-6.3339844,11.874939-9.3650513,24.4959717-9.3652954,36.5137939c0.0001221,3.6627808,0.2885742,7.2678223,0.8447266,10.781189
			c-6.5952148,1.6296997-13.5316162,3.034729-20.7683716,4.2191772c-15.2995605,2.5076904-31.8890991,4.0679932-49.1516113,4.90979
			c-2.2952881-11.0849609-8.2254028-22.3900757-18.6134033-32.4523926
			c-31.8805542-30.9003906-47.8608398-56.5944824-55.8782959-74.6333618
			c-6.1872559-13.9241943-7.633667-23.2855225-7.9725952-26.9893799c9.8486938,1.7774658,20.7471924,3.1733398,32.8492432,4.1010742
			c5.267334,0.4035034,10.350769,0.5977783,15.2558594,0.5977783c5.0891724,0.0002441,9.9751587-0.2208862,14.6867065-0.6226196
			c0.0011597,0.1711426,0.0019531,0.3496094,0.0019531,0.539856c-0.0003052,7.9707642-1.1331787,32.6525879-13.2012939,69.7453003
			c-0.2163086,0.6641235-0.3309326,1.3306274-0.3308105,1.9865723c-0.0025635,0.9495239,0.2479248,1.8677368,0.6967163,2.6665039
			c0.7918091,1.4058228,2.1018066,2.4389648,3.6916504,3.2643433c2.3955078,1.2321777,5.5158081,2.0339966,9.1069946,2.5648193
			c3.5889282,0.526001,7.6432495,0.762207,11.8424683,0.7625732c4.7545776-0.0006104,9.6852417-0.3084717,14.3206787-0.8540649
			c0.0619507,0.1832886,0.1188965,0.3681641,0.1862183,0.5497437c1.0565186,2.8573608,2.7994385,5.4734497,5.3822021,7.8093872
			c1.9680176,1.7766724,4.614502,2.9602661,7.6599121,3.7330933c3.048584,0.769165,6.5150146,1.1191406,10.1726074,1.1199341
			c7.5322266-0.003418,15.875-1.4864502,22.8969727-4.109375c3.5110474-1.3144531,6.6923828-2.9136963,9.2825317-4.7984619
			c2.5841064-1.8858032,4.6054077-4.0648804,5.6654663-6.6113892c6.8607788-16.5706177,9.6091919-32.7973633,9.6083374-48.1244507
			c-0.0036011-26.0238037-7.9013672-49.4353027-16.9724121-67.7716675
			c6.0856323-6.828064,11.0513306-14.1043091,15.0039062-21.4342041
			c9.0309448-16.753479,12.9118652-33.7166138,13.4586182-46.2504272
			c17.0119019-11.8671265,37.0447388-34.4771118,50.2648315-77.2417603
			c4.2705078-13.7979126,11.6984863-23.9049683,20.4790649-30.5839233
			c8.7815552-6.6771851,18.930603-9.9223633,28.6582031-9.9223022c10.3718872,0.0018311,20.2399292,3.6816406,27.5172729,10.8109741
			c7.2723999,7.1341553,12.0234375,17.734314,12.0316772,31.8601074
			C603.2780762,256.5799561,602.8309937,261.2235107,601.8688354,266.1901855z"/>
		<path class="st9" d="M515.6575317,516.7387695c-0.8943481-2.107605-1.9320068-4.0643921-3.1143799-5.8262939
			c-0.3468018-0.5168457-0.7058716-1.0168457-1.0758057-1.5007324c-0.362915-0.4746704-0.7377319-0.9315186-1.1221924-1.3731689
			c-0.8341064-0.9580688-1.7150269-1.8415527-2.6454468-2.6340942c-3.5419922-3.0217896-7.7946167-4.7733765-12.3754272-4.7694092
			c-0.9276733-0.000061-1.8674316,0.071106-2.8151855,0.2156982l0.2261353,1.4828491l-0.2261963-1.4828491
			c-3.7601318,0.5734253-7.3012695,2.2478027-10.4736328,4.7260132c-4.760437,3.7219238-8.7242432,9.246521-11.5252686,15.8105469
			c-2.7981567,6.565918-4.4293823,14.182251-4.4443359,22.1223755l-0.000061,0.1030273
			c0.0001831,1.1644287,0.0460815,2.3057251,0.114563,3.4345093c0.0318604,0.5244751,0.0731201,1.043457,0.1192627,1.5596313
			c0.0464478,0.5192261,0.1012573,1.0325317,0.1619263,1.5429688c0.6196289,5.2128296,1.9607544,9.9678345,3.9101562,14.041626
			c2.7149658,5.6677246,6.5957031,10.050354,11.3008423,12.4763184l-0.0003662,0.0005493
			c3.7211304,2.3390503,8.3218994,3.4889526,13.3505249,3.4893188c7.2103882-0.0029907,15.331604-2.3545532,23.2318726-7.116394
			c7.414856-4.4733887,13.5101318-10.3952637,17.7766113-16.7836914c4.2611694-6.3895264,6.7138672-13.2537842,6.7195435-19.670166
			c0-0.1938477-0.020813-0.3834839-0.0253296-0.5764771c-0.02771-1.175293-0.12854-2.3361816-0.3310547-3.4703369
			c-0.2538452-1.4215088-0.6420898-2.8059692-1.1872559-4.133606c-0.0405884-0.0991211-0.0906982-0.1907959-0.1327515-0.2887573
			c-0.4856567-1.1315918-1.0733032-2.1824951-1.7451172-3.1582642c-1.6002808-2.3242188-3.6858521-4.208374-6.1358032-5.5864258
			c-3.5687866-2.012085-7.8641357-3.0013428-12.5303345-3.00177
			C519.0370483,516.3718262,517.3630371,516.4984741,515.6575317,516.7387695z M538.4318237,529.5463867
			c0.8875732,2.1624146,1.3185425,4.5296631,1.3188477,7.0410156c0.0057373,5.6379395-2.2025757,12.0014648-6.2146606,18.0045166
			c-4.0067139,6.0041504-9.796875,11.6398315-16.8308105,15.8803711c-7.4918213,4.520874-15.1279907,6.6884155-21.6825562,6.6853638
			c-4.5762939,0.0004272-8.6104126-1.0501099-11.7531128-3.0286865l-0.121582-0.0687866
			c-4.0223389-2.0310059-7.5524292-5.9024048-10.0704346-11.1643066c-1.8851929-3.9350586-3.1960449-8.6361694-3.7358398-13.8573608
			c-0.0532227-0.5148315-0.0835571-1.0443115-0.121582-1.5690918c-0.0380249-0.524292-0.0748291-1.0488281-0.097229-1.5825195
			c-0.0316162-0.7510376-0.057251-1.5056152-0.0571289-2.2741699l0.000061-0.0975952
			c0.0144653-10.0410767,2.7805176-19.5626831,7.1791382-26.7525024c2.1970215-3.5955811,4.7980347-6.6054077,7.6369629-8.8214722
			c2.8409424-2.2178955,5.9074707-3.6409302,9.0794678-4.1246948c0.8008423-0.1221313,1.588562-0.1813965,2.362915-0.1813965
			c3.8121338,0.0039062,7.3336182,1.4242554,10.4309082,4.053833c1.2150269,1.0333252,2.3555298,2.2623901,3.4089966,3.6557007
			c0.3522949,0.4659424,0.6932373,0.9525146,1.0245972,1.4559326c0.3276367,0.4978027,0.6436768,1.0142212,0.9493408,1.5472412
			c0.8121338,1.4158325,1.550293,2.9450073,2.1898193,4.59198c0.2590942,0.6669312,0.9472046,1.0562744,1.6523438,0.9350586
			c1.9602661-0.3371582,3.8632812-0.5030518,5.6827393-0.5030518c4.2453613-0.0004272,8.0259399,0.9037476,11.0562744,2.614624
			C534.7509766,523.7026367,537.0524292,526.1991577,538.4318237,529.5463867z"/>
		<path class="st9" d="M218.5184326,543.5097046c-0.0219727-10.5870361-2.9085083-20.5975952-7.6194458-28.3116455
			c-2.3577271-3.8562622-5.1757202-7.1412354-8.3501587-9.6212769c-3.1723633-2.4782104-6.713501-4.1526489-10.4736938-4.7260132
			l-0.2261353,1.4828491l0.2261353-1.4829102c-0.9478149-0.1445312-1.8875732-0.2156982-2.8152466-0.2156372
			c-4.5808105-0.0039673-8.8334351,1.7476196-12.3754272,4.7694092c-1.1405029,0.9715576-2.2028809,2.0856934-3.1975098,3.3036499
			c-0.3786621,0.4637451-0.7459106,0.9439087-1.1020508,1.4407959c-0.3551636,0.4954224-0.6986084,1.0065308-1.0307617,1.5335693
			c-0.9812622,1.5571899-1.8598633,3.2473145-2.6274414,5.0562744c-1.7055054-0.2402954-3.3795166-0.3669434-5.0054932-0.3670044
			c-4.6661987,0.0004272-8.9615479,0.9896851-12.5303345,3.00177c-2.4499512,1.3781128-4.5354614,3.262207-6.1357422,5.5864258
			c-0.671875,0.975769-1.2595825,2.0268555-1.7452393,3.1585083c-0.0419922,0.0979004-0.0921021,0.1894531-0.1326294,0.2885132
			c-0.5452271,1.3276367-0.9334717,2.7120972-1.1873169,4.133606c-0.2025146,1.1341553-0.3033447,2.2949829-0.3310547,3.4703369
			c-0.0045166,0.1929932-0.0253296,0.3826904-0.0253296,0.5764771c0.0056763,6.4163818,2.458374,13.2806396,6.7195435,19.670166
			c4.2664795,6.3884277,10.3617554,12.3103027,17.7766113,16.7836914c7.9002686,4.7618408,16.0214844,7.1134033,23.2318726,7.116394
			c5.0286255-0.0003662,9.6293945-1.1502686,13.3505249-3.4893188l-0.0003662-0.0005493
			c4.7051392-2.4259644,8.5859375-6.8085938,11.3008423-12.4763184c1.8930664-3.9559326,3.2091675-8.5565186,3.8521118-13.5921021
			c0.0647583-0.5071411,0.1337891-1.0111084,0.1843872-1.5270386c0.050293-0.5124512,0.0829468-1.0351562,0.1190186-1.5559082
			c0.0887451-1.2805786,0.1502686-2.5765381,0.1504517-3.9036865l-0.0001221-0.105835V543.5097046z M215.4468384,546.3902588
			c-0.0273438,0.5309448-0.0773315,1.0478516-0.1201172,1.5692749c-0.0427246,0.5202026-0.0871582,1.0385742-0.1448364,1.5488281
			c-0.5687866,5.0309448-1.8474121,9.5725098-3.6751099,13.3875122c-2.5180664,5.2619019-6.0481567,9.1333008-10.0704956,11.1643066
			l-0.121582,0.0687866c-3.1426392,1.9785767-7.1767578,3.0291138-11.7531128,3.0286865
			c-6.5546265,0.0030518-14.1907349-2.1644897-21.6825562-6.6853638
			c-7.0339355-4.2405396-12.8240356-9.8762207-16.8308105-15.8803711
			c-4.0120239-6.0030518-6.2203369-12.3665771-6.2146606-18.0045166c0.0003052-2.5113525,0.4312744-4.8786011,1.3188477-7.0410156
			c1.3794556-3.347229,3.6808472-5.84375,6.7125244-7.5599976c3.0303345-1.7108765,6.8109131-2.6150513,11.0562744-2.614624
			c1.819458,0,3.7225342,0.1658936,5.6827393,0.5030518c0.7051392,0.1212158,1.3932495-0.2681274,1.6524048-0.9350586
			c0.5201416-1.3395386,1.107666-2.5980225,1.7435913-3.7862549c0.2969971-0.5548096,0.6060791-1.0910034,0.9260254-1.6106567
			c0.3168335-0.5146484,0.6446533-1.0105591,0.982605-1.4893188c1.1919556-1.6883545,2.5047607-3.1607056,3.9204102-4.364624
			c3.09729-2.6295776,6.6187744-4.0499268,10.4309082-4.053833c0.774353,0,1.5621338,0.0592651,2.3629761,0.1813965
			c3.171936,0.4837646,6.2385254,1.9067993,9.0794678,4.1246948c4.2595825,3.3222046,7.9785156,8.4388428,10.6121216,14.6226807
			c2.6364136,6.1820679,4.1915894,13.4202881,4.2039795,20.9511719v0.0028076l0.0001221,0.0949097
			C215.5186768,544.5517578,215.4938354,545.4776001,215.4468384,546.3902588z"/>
		<path class="st9" d="M584.6628418,232.847229c-2.2081909-1.1212769-4.7358398-1.6578369-7.4123535-1.6577148
			c-2.0238647,0.0002441-4.1384888,0.3236084-6.2860107,0.9207153c-1.6453247-2.6415405-3.6225586-4.8226929-5.8527222-6.4066162
			c-2.5076294-1.7825317-5.3553467-2.8045044-8.3165894-2.8030396c-1.2836304-0.0002441-2.5837402,0.1915283-3.8729248,0.5841064
			c-2.2890625,0.6964111-4.3674316,1.9689331-6.180542,3.6550293c-2.7209473,2.5325317-4.864563,5.9899292-6.34375,9.986084
			c-1.477356,3.9978027-2.2883301,8.5427856-2.2890015,13.2831421c0.000061,1.9394531,0.1362305,3.911438,0.4198608,5.8913574
			c0.789856,5.5048828,2.6081543,10.3255005,5.1341553,14.1047974c2.4952393,3.7287598,5.6976318,6.4572754,9.3216553,7.7183228
			l-0.0002441,0.0005493c0.0115356,0.005127,0.0239868,0.0083008,0.0355225,0.0133667
			c0.0319214,0.0110474,0.0626221,0.0264282,0.0946045,0.0372314l0.0005493-0.0015259
			c2.0157471,0.8703613,4.2600708,1.2954712,6.6251831,1.2954712c5.9455566-0.0081177,12.6577759-2.6099243,18.7756348-7.6189575
			c4.2843628-3.513916,7.6947632-7.7434692,10.0487671-12.1543579c2.3511353-4.4119873,3.6557617-9.0084839,3.6588135-13.2952881
			c0.0006104-3.0566406-0.6733398-5.9681396-2.1508789-8.4690552
			C588.7451172,235.678894,586.8703613,233.965271,584.6628418,232.847229z M585.9177246,258.2831421
			c-2.1605835,4.0518799-5.3294678,7.9888306-9.3039551,11.24646c-5.6706543,4.6564331-11.8173218,6.9469604-16.8735352,6.9389038
			c-2.055542-0.000061-3.927002-0.371521-5.5396118-1.0869141l-0.130188-0.0506592
			c-2.8908081-0.9680176-5.6721191-3.2396851-7.9137573-6.5936279c-2.2410889-3.3484497-3.9276733-7.7562866-4.6582031-12.8624878
			c-0.2631226-1.8364258-0.3895264-3.6669312-0.3895264-5.4658813c-0.0023804-5.8623047,1.3502197-11.3901367,3.6346436-15.6757202
			c1.140625-2.1434937,2.5108643-3.9747925,4.0406494-5.3962402c1.5311279-1.4227295,3.2144775-2.4352417,5.0114136-2.9822388
			c1.013855-0.3083496,2.0132446-0.4539795,2.9995117-0.4541626c2.267334,0.0014038,4.4911499,0.7697144,6.5803833,2.2495117
			c2.0849609,1.4782715,4.0137329,3.6741333,5.586853,6.4574585c0.3521729,0.6228027,1.0891113,0.9093018,1.7695312,0.6880493
			c2.2814941-0.7421265,4.4881592-1.1063843,6.5185547-1.1060791c2.2788086,0.0001221,4.3292236,0.4562988,6.053894,1.3325195
			c1.7253418,0.8793945,3.1382446,2.1679688,4.1853027,3.9348145c1.1588745,1.9612427,1.7330933,4.3203125,1.7337646,6.9430542
			C589.2265015,250.0697632,588.0812378,254.2323608,585.9177246,258.2831421z"/>
	</g>
	<g>
		<ellipse class="st10" cx="403.497406" cy="295.0086975" rx="14.9724464" ry="5.944942"/>
		<ellipse class="st10" cx="279.3141785" cy="295.0086975" rx="14.9724464" ry="5.944942"/>
	</g>
</g>
</svg>
