<?xml version="1.0" encoding="iso-8859-1"?>
<!-- Generator: Adobe Illustrator 16.0.0, SVG Export Plug-In . SVG Version: 6.00 Build 0)  -->
<!DOCTYPE svg PUBLIC "-//W3C//DTD SVG 1.1//EN" "http://www.w3.org/Graphics/SVG/1.1/DTD/svg11.dtd">
<svg version="1.1" id="Layer_1" xmlns="http://www.w3.org/2000/svg" xmlns:xlink="http://www.w3.org/1999/xlink" x="0px" y="0px"
	 width="714px" height="714px" viewBox="0 0 714 714" style="enable-background:new 0 0 714 714;" xml:space="preserve">
<g>
	<circle style="fill:#E0ECF8;" cx="378.5" cy="347.498" r="245"/>
	<polygon style="fill:#79ADCE;" points="378.054,484.271 554.369,483.292 547.716,454.166 370.861,462.735 194.007,454.166 
		187.354,483.292 363.669,484.271 363.654,484.559 370.861,484.415 378.069,484.559 	"/>
	<ellipse style="fill:#9BC4E2;" cx="370.861" cy="454.18" rx="176.854" ry="11.883"/>
	<g>
		<path style="fill:#724100;" d="M630.827,592.584c0-12.426-10.073-22.499-22.499-22.499H144.851
			c-12.426,0-22.499,10.073-22.499,22.499c0,8.003,4.18,15.028,10.475,19.017c9.676,15.094,115.115,26.98,243.762,26.98
			c45.065,0,90.116-1.557,135.072-4.741c29.149-2.065,59.767-5.036,88.228-12.064C613.717,618.361,630.827,608.793,630.827,592.584z
			"/>
		<path style="fill:#724100;" d="M595.83,504.09c0,8-4.18,15.03-10.48,19.01c-3.479,2.21-7.6,3.49-12.02,3.49H179.85
			c-3.3,0-6.44-0.72-9.26-1.99c-3.91-1.76-7.21-4.609-9.55-8.159c-2.33-3.54-3.69-7.79-3.69-12.351c0-2.82,0.52-5.52,1.48-8.01
			c3.22-8.47,11.42-14.49,21.02-14.49h393.48C585.75,481.59,595.83,491.66,595.83,504.09z"/>
		<path style="fill:#7F4B00;" d="M615.857,571.38c-2.354-0.836-4.888-1.295-7.529-1.295h-6.925
			c8.436-3.246,14.424-11.421,14.424-20.999c0-12.426-10.073-22.499-22.499-22.499h-19.917c4.389-0.016,8.48-1.291,11.938-3.487
			c0.96-2.489,1.48-5.189,1.48-8.01c0-12.43-10.08-22.5-22.5-22.5H170.85c-4.42,0-8.54,1.28-12.02,3.49
			c-0.96,2.49-1.48,5.189-1.48,8.01c0,4.561,1.36,8.811,3.69,12.351c2.34,3.55,5.64,6.399,9.55,8.159
			c2.79,1.257,5.892,1.972,9.152,1.987h-19.891c-12.426,0-22.499,10.073-22.499,22.499c0,9.123,5.431,16.978,13.235,20.508
			c0.388,0.176,0.782,0.338,1.181,0.491h-6.917c-12.426,0-22.499,10.073-22.499,22.499c0,4.161,1.138,8.053,3.107,11.396
			c25.16,12.951,122.217,22.602,238.13,22.602c45.065,0,90.116-1.557,135.072-4.741c29.149-2.065,59.767-5.036,88.228-12.064
			c13.827-3.414,30.938-12.982,30.938-29.191C617.827,577.304,617.119,574.19,615.857,571.38z"/>
		<path style="fill:#5B3400;" d="M150.59,569.594c0,0,1.79,0.122,5.146,0.351c3.355,0.241,8.282,0.536,14.541,1.026
			c6.26,0.475,13.864,1.026,22.576,1.757c4.357,0.354,8.994,0.732,13.881,1.13c4.89,0.28,10.031,0.574,15.396,0.882
			c10.727,0.594,22.341,1.237,34.609,2.031c3.069,0.178,6.174,0.417,9.327,0.55c3.156,0.098,6.35,0.196,9.579,0.296
			c6.459,0.179,13.051,0.459,19.757,0.7c6.705,0.25,13.521,0.504,20.42,0.762c3.45,0.13,6.919,0.288,10.412,0.264
			c3.491,0.04,6.999,0.081,10.52,0.122c14.086,0.176,28.395,0.354,42.705,0.531c14.31-0.179,28.618-0.358,42.704-0.535
			c3.521-0.043,7.029-0.087,10.521-0.13c3.492,0.025,6.962-0.132,10.411-0.263c6.9-0.257,13.716-0.511,20.421-0.761
			c6.706-0.235,13.297-0.526,19.756-0.704c3.229-0.099,6.423-0.197,9.579-0.294c3.153-0.133,6.263-0.372,9.333-0.549
			c6.142-0.377,12.115-0.744,17.895-1.099c5.783-0.323,11.37-0.635,16.734-0.935c5.366-0.308,10.508-0.603,15.398-0.882
			c4.882-0.396,9.512-0.773,13.863-1.127c8.703-0.727,16.303-1.278,22.562-1.751c6.257-0.488,11.186-0.783,14.542-1.023
			c3.358-0.228,5.149-0.35,5.149-0.35s-1.772,0.271-5.096,0.781c-3.326,0.498-8.197,1.284-14.413,2.173
			c-6.215,0.905-13.761,2.025-22.431,3.216c-4.335,0.605-8.948,1.249-13.811,1.929c-4.872,0.596-10.013,1.044-15.368,1.61
			c-5.358,0.544-10.94,1.11-16.718,1.696c-5.782,0.556-11.76,1.129-17.905,1.719c-3.074,0.278-6.187,0.62-9.345,0.856
			c-3.161,0.2-6.36,0.403-9.595,0.609c-6.468,0.432-13.082,0.763-19.807,1.16c-13.451,0.7-27.344,1.806-41.495,1.839
			c-14.146,0.267-28.516,0.537-42.886,0.809c-14.37-0.272-28.74-0.545-42.885-0.812c-14.151-0.048-28.044-1.141-41.496-1.844
			c-6.724-0.393-13.338-0.734-19.806-1.165c-3.234-0.205-6.434-0.407-9.594-0.607c-3.159-0.236-6.275-0.578-9.352-0.856
			c-12.305-1.139-23.925-2.323-34.643-3.416c-5.357-0.566-10.501-1.012-15.37-1.611c-4.857-0.678-9.464-1.32-13.793-1.925
			c-8.661-1.188-16.203-2.308-22.416-3.21c-6.215-0.887-11.088-1.674-14.415-2.17C152.363,569.865,150.59,569.594,150.59,569.594z"
			/>
		<path style="fill:#5B3400;" d="M175.839,526.597c0,0,1.594,0.096,4.583,0.275c2.986,0.203,7.372,0.452,12.942,0.863
			c5.572,0.398,12.341,0.857,20.094,1.482c3.878,0.302,8.004,0.623,12.354,0.962c4.351,0.236,8.926,0.484,13.699,0.743
			c9.544,0.502,19.876,1.044,30.789,1.731c2.729,0.152,5.492,0.36,8.296,0.473c2.808,0.081,5.649,0.162,8.521,0.245
			c5.746,0.146,11.609,0.392,17.574,0.598c5.964,0.215,12.027,0.434,18.164,0.655c3.068,0.112,6.155,0.249,9.261,0.223
			c3.104,0.035,6.225,0.069,9.357,0.104c12.529,0.151,25.256,0.305,37.983,0.458c12.728-0.155,25.455-0.31,37.983-0.462
			c3.132-0.037,6.252-0.074,9.356-0.111c3.106,0.026,6.192-0.11,9.261-0.223c6.138-0.221,12.201-0.439,18.164-0.654
			c5.966-0.2,11.829-0.457,17.574-0.601c2.873-0.083,5.714-0.164,8.521-0.245c2.806-0.111,5.571-0.319,8.303-0.472
			c5.464-0.323,10.779-0.638,15.92-0.942c5.146-0.272,10.117-0.536,14.89-0.79c4.774-0.259,9.35-0.508,13.701-0.744
			c4.344-0.337,8.464-0.657,12.337-0.958c7.744-0.621,14.509-1.081,20.079-1.477c5.569-0.409,9.956-0.658,12.943-0.86
			c2.991-0.179,4.586-0.274,4.586-0.274s-1.575,0.254-4.529,0.731c-2.957,0.455-7.29,1.168-12.817,1.984
			c-5.526,0.828-12.237,1.856-19.949,2.941c-3.855,0.552-7.958,1.14-12.284,1.76c-4.333,0.546-8.906,0.955-13.67,1.473
			c-4.768,0.498-9.733,1.016-14.873,1.552c-5.145,0.505-10.463,1.027-15.931,1.563c-2.735,0.253-5.505,0.563-8.314,0.778
			c-2.812,0.185-5.659,0.371-8.536,0.56c-5.755,0.398-11.642,0.695-17.625,1.058c-11.97,0.635-24.332,1.645-36.926,1.674
			c-12.588,0.242-25.376,0.488-38.164,0.734c-12.788-0.247-25.576-0.495-38.164-0.738c-12.594-0.044-24.956-1.042-36.926-1.679
			c-5.983-0.357-11.869-0.665-17.624-1.062c-2.877-0.188-5.724-0.375-8.536-0.559c-2.811-0.216-5.584-0.525-8.322-0.778
			c-10.95-1.032-21.288-2.116-30.823-3.116c-4.766-0.518-9.343-0.924-13.673-1.474c-4.319-0.618-8.417-1.204-12.267-1.755
			c-7.703-1.083-14.409-2.11-19.934-2.937c-5.526-0.814-9.86-1.527-12.818-1.981C177.416,526.851,175.839,526.597,175.839,526.597z"
			/>
		<g>
			<path style="fill:#AA732B;" d="M192.833,523.328c1.988-0.07,2.583-3.178,0.486-3.591c-6.826-1.344-13.553-3.306-17.787-9.212
				c-4.29-5.984-7.088-15.625-0.819-21.146c0.661-0.582-0.203-1.69-0.937-1.215c-7.754,5.02-6.806,14.797-3.223,22.27
				C174.754,519.196,183.31,523.665,192.833,523.328z"/>
			<path style="fill:#AA732B;" d="M604.38,541.382c-3.709-8.587-12.326-12.07-21.098-10.671c-0.8,0.128-0.773,1.432,0,1.582
				c6.955,1.351,12.729,3.859,16.179,10.424c3.307,6.294,2.244,13.756-1.115,19.721c-1.168,2.074,1.616,4.297,3.312,2.556
				C607.91,558.581,607.754,549.194,604.38,541.382z"/>
			<path style="fill:#AA732B;" d="M382.167,620.083c-49.648,0.079-99.355-0.082-148.882-3.932
				c-24.969-1.941-49.789-5.013-74.47-9.256c-9.242-1.589-26.947-2.741-28.43-14.599c-1.105-8.843,5.85-17.993,15.084-16.931
				c1.319,0.151,1.59-2.028,0.312-2.302c-16.551-3.541-26.123,17.738-15.256,29.353c3.791,4.052,9.585,5.001,14.675,6.455
				c6.532,1.866,13.221,2.706,19.904,3.839c14.257,2.418,28.604,4.306,42.978,5.875c57.672,6.296,116.135,7.006,174.086,5.669
				C384.853,624.193,384.861,620.079,382.167,620.083z"/>
		</g>
	</g>
	<path style="fill:#FFFFFF;" d="M399.835,125.208c-2.125-0.224-5.246-0.609-9.239-0.982c-3.996-0.514-8.851-0.5-14.454-0.667
		c-1.402-0.026-2.85-0.054-4.339-0.082c-1.492-0.042-3.016,0.097-4.589,0.141c-3.149,0.157-6.46,0.321-9.915,0.494
		c-1.739,0.035-3.481,0.333-5.274,0.522c-1.792,0.214-3.618,0.432-5.475,0.654c-1.859,0.224-3.752,0.452-5.667,0.735
		c-1.902,0.36-3.833,0.726-5.791,1.097c-3.918,0.754-7.963,1.483-12.002,2.64c-2.033,0.526-4.086,1.075-6.156,1.644
		c-1.032,0.293-2.084,0.542-3.115,0.875c-1.027,0.346-2.059,0.693-3.095,1.042c-2.072,0.705-4.161,1.416-6.266,2.132
		c-1.045,0.376-2.115,0.706-3.153,1.126c-1.035,0.429-2.073,0.859-3.114,1.291c-2.084,0.866-4.182,1.737-6.289,2.612
		c-2.126,0.84-4.142,1.944-6.216,2.947c-2.065,1.025-4.138,2.055-6.217,3.088c-2.057,1.075-4.045,2.293-6.07,3.454l-3.028,1.762
		c-1.01,0.588-2.032,1.161-2.996,1.826l-5.869,3.866l-2.912,1.966l-2.809,2.108c-1.87,1.406-3.739,2.81-5.604,4.211
		c-1.837,1.436-3.586,2.975-5.359,4.47c-1.757,1.514-3.563,2.961-5.21,4.573c-1.676,1.576-3.346,3.146-5.007,4.708
		c-0.837,0.774-1.632,1.587-2.406,2.416c-0.782,0.82-1.562,1.638-2.34,2.453c-0.777,0.815-1.551,1.627-2.323,2.438
		c-0.781,0.801-1.538,1.619-2.255,2.467c-1.447,1.683-2.884,3.354-4.309,5.012c-1.453,1.631-2.73,3.385-4.073,5.055
		c-1.312,1.695-2.668,3.327-3.862,5.055c-2.421,3.429-4.862,6.72-6.959,10.118c-2.197,3.326-4.165,6.665-6.045,9.9
		c-0.962,1.603-1.782,3.256-2.653,4.833c-0.843,1.595-1.727,3.125-2.459,4.699c-3.119,6.187-5.627,12.015-7.682,17.229
		c-1.997,5.244-3.587,9.854-4.69,13.72c-1.158,3.843-1.85,6.924-2.324,9.015c-0.239,1.044-0.383,1.857-0.481,2.402
		c-0.095,0.545-0.145,0.826-0.145,0.826s0.461-1.047,1.384-2.971c0.443-0.967,1.042-2.142,1.721-3.523
		c0.728-1.366,1.495-2.956,2.438-4.699c1.824-3.511,4.184-7.693,6.941-12.424c1.444-2.334,2.871-4.865,4.555-7.431
		c0.838-1.285,1.63-2.636,2.526-3.971c0.89-1.336,1.8-2.702,2.729-4.098c3.777-5.535,7.956-11.449,12.729-17.405
		c1.207-1.478,2.337-3.043,3.622-4.519c1.257-1.495,2.529-3.007,3.814-4.537c0.63-0.773,1.303-1.519,1.988-2.259
		c0.673-0.75,1.35-1.503,2.029-2.261c1.374-1.5,2.681-3.084,4.157-4.538c2.896-2.955,5.758-6.028,8.879-8.911
		c3.015-2.993,6.281-5.781,9.506-8.659c1.583-1.474,3.319-2.779,5.004-4.153c1.708-1.346,3.373-2.755,5.097-4.095
		c1.758-1.295,3.519-2.592,5.282-3.891l2.644-1.951l2.742-1.811l5.457-3.659c0.894-0.633,1.845-1.174,2.785-1.731l2.817-1.672
		c1.886-1.099,3.733-2.257,5.622-3.329c1.919-1.019,3.833-2.035,5.739-3.046c7.635-4.031,15.413-7.516,23.098-10.539
		c0.956-0.393,1.908-0.784,2.855-1.173c0.953-0.377,1.93-0.672,2.887-1.011c1.924-0.65,3.826-1.309,5.706-1.978
		c1.889-0.636,3.724-1.39,5.616-1.869c1.876-0.542,3.73-1.077,5.559-1.605c1.83-0.541,3.636-1.075,5.414-1.601
		c1.796-0.459,3.585-0.828,5.332-1.265c1.752-0.421,3.474-0.836,5.165-1.243c1.695-0.392,3.348-0.854,5-1.123
		c3.3-0.623,6.461-1.22,9.469-1.788c1.509-0.273,2.971-0.637,4.412-0.814c1.441-0.202,2.841-0.397,4.196-0.587
		c5.431-0.737,10.184-1.626,14.13-1.917c3.94-0.392,7.053-0.792,9.179-1.026c2.129-0.268,3.265-0.41,3.265-0.41
		S401.956,125.465,399.835,125.208z"/>
	<g>
		<circle style="fill:#FFFFFF;" cx="457.062" cy="163.945" r="8.262"/>
		<circle style="fill:#FFFFFF;" cx="401.704" cy="180.194" r="3.873"/>
		<circle style="fill:#FFFFFF;" cx="446.062" cy="198.646" r="5.325"/>
		<circle style="fill:#FFFFFF;" cx="408.039" cy="212.967" r="8.262"/>
		<circle style="fill:#FFFFFF;" cx="352.682" cy="229.217" r="3.873"/>
		<circle style="fill:#FFFFFF;" cx="397.039" cy="247.669" r="5.326"/>
		<circle style="fill:#FFFFFF;" cx="498.373" cy="215.17" r="8.262"/>
		<circle style="fill:#FFFFFF;" cx="443.016" cy="231.419" r="3.873"/>
		<circle style="fill:#FFFFFF;" cx="310.74" cy="439.319" r="5.325"/>
		<circle style="fill:#FFFFFF;" cx="277.87" cy="437.612" r="3.873"/>
		<circle style="fill:#FFFFFF;" cx="487.373" cy="249.872" r="5.325"/>
		<circle style="fill:#FFFFFF;" cx="278.475" cy="232.919" r="8.262"/>
		<circle style="fill:#FFFFFF;" cx="223.118" cy="249.168" r="3.873"/>
		<circle style="fill:#FFFFFF;" cx="267.475" cy="267.62" r="5.325"/>
		<circle style="fill:#FFFFFF;" cx="229.452" cy="281.941" r="8.262"/>
		<circle style="fill:#FFFFFF;" cx="174.095" cy="298.191" r="3.873"/>
		<circle style="fill:#FFFFFF;" cx="218.453" cy="316.643" r="5.326"/>
		<circle style="fill:#FFFFFF;" cx="319.786" cy="284.145" r="8.262"/>
		<circle style="fill:#FFFFFF;" cx="264.429" cy="300.394" r="3.873"/>
		<circle style="fill:#FFFFFF;" cx="308.787" cy="318.846" r="5.326"/>
		<circle style="fill:#FFFFFF;" cx="448.154" cy="264.291" r="8.262"/>
		<circle style="fill:#FFFFFF;" cx="392.797" cy="280.541" r="3.873"/>
		<circle style="fill:#FFFFFF;" cx="437.154" cy="298.993" r="5.325"/>
		<circle style="fill:#FFFFFF;" cx="399.132" cy="313.314" r="8.262"/>
		<circle style="fill:#FFFFFF;" cx="343.774" cy="329.563" r="3.873"/>
		<circle style="fill:#FFFFFF;" cx="388.132" cy="348.016" r="5.326"/>
		<circle style="fill:#FFFFFF;" cx="489.465" cy="315.517" r="8.262"/>
		<circle style="fill:#FFFFFF;" cx="434.108" cy="331.766" r="3.873"/>
		<circle style="fill:#FFFFFF;" cx="478.466" cy="350.219" r="5.326"/>
		<circle style="fill:#FFFFFF;" cx="573.774" cy="332.861" r="8.262"/>
		<circle style="fill:#FFFFFF;" cx="518.417" cy="349.11" r="3.873"/>
		<circle style="fill:#FFFFFF;" cx="562.774" cy="367.563" r="5.326"/>
		<circle style="fill:#FFFFFF;" cx="524.752" cy="381.884" r="8.262"/>
		<circle style="fill:#FFFFFF;" cx="469.395" cy="398.134" r="3.873"/>
		<circle style="fill:#FFFFFF;" cx="513.752" cy="416.585" r="5.326"/>
		<circle style="fill:#FFFFFF;" cx="559.729" cy="400.336" r="3.873"/>
		<circle style="fill:#FFFFFF;" cx="363.624" cy="169.88" r="5.326"/>
		<circle style="fill:#FFFFFF;" cx="325.601" cy="184.201" r="8.262"/>
		<circle style="fill:#FFFFFF;" cx="357.608" cy="274.291" r="8.262"/>
		<circle style="fill:#FFFFFF;" cx="270.244" cy="200.451" r="3.873"/>
		<circle style="fill:#FFFFFF;" cx="314.601" cy="218.903" r="5.325"/>
		<circle style="fill:#FFFFFF;" cx="360.577" cy="202.653" r="3.873"/>
		<circle style="fill:#FFFFFF;" cx="524.649" cy="312.006" r="5.325"/>
		<circle style="fill:#FFFFFF;" cx="558.104" cy="288.95" r="8.262"/>
		<circle style="fill:#FFFFFF;" cx="439.436" cy="372.825" r="8.262"/>
		<circle style="fill:#FFFFFF;" cx="560.425" cy="252.621" r="5.326"/>
		<circle style="fill:#FFFFFF;" cx="528.117" cy="237.693" r="5.326"/>
		<circle style="fill:#FFFFFF;" cx="519.714" cy="279.463" r="3.873"/>
		<circle style="fill:#FFFFFF;" cx="420.634" cy="414.468" r="5.325"/>
		<circle style="fill:#FFFFFF;" cx="384.538" cy="384.087" r="8.262"/>
		<circle style="fill:#FFFFFF;" cx="449.29" cy="434.763" r="8.262"/>
		<circle style="fill:#FFFFFF;" cx="348.185" cy="382.173" r="5.325"/>
		<circle style="fill:#FFFFFF;" cx="333.618" cy="414.646" r="5.326"/>
		<circle style="fill:#FFFFFF;" cx="375.481" cy="422.581" r="3.873"/>
		<circle style="fill:#FFFFFF;" cx="224.107" cy="425.758" r="8.262"/>
		<circle style="fill:#FFFFFF;" cx="278.991" cy="407.976" r="3.873"/>
		<circle style="fill:#FFFFFF;" cx="234.137" cy="390.764" r="5.325"/>
		<circle style="fill:#FFFFFF;" cx="271.747" cy="375.392" r="8.262"/>
		<circle style="fill:#FFFFFF;" cx="326.631" cy="357.609" r="3.873"/>
		<circle style="fill:#FFFFFF;" cx="281.777" cy="340.397" r="5.326"/>
		<circle style="fill:#FFFFFF;" cx="181.387" cy="375.701" r="8.263"/>
		<circle style="fill:#FFFFFF;" cx="236.271" cy="357.919" r="3.873"/>
		<circle style="fill:#FFFFFF;" cx="191.417" cy="340.707" r="5.326"/>
	</g>
</g>
</svg>
