<?xml version="1.0" encoding="utf-8"?>
<!-- Generator: Adobe Illustrator 25.4.1, SVG Export Plug-In . SVG Version: 6.00 Build 0)  -->
<svg version="1.1" id="Шар_1" xmlns="http://www.w3.org/2000/svg" xmlns:xlink="http://www.w3.org/1999/xlink" x="0px" y="0px"
	 viewBox="0 0 714 714" style="enable-background:new 0 0 714 714;" xml:space="preserve">
<style type="text/css">
	.st0{fill:none;}
	.st1{fill:#E39D6D;}
	.st2{fill:#F8CC9C;}
	.st3{fill:#466184;}
	.st4{fill:#5785AB;}
	.st5{fill:#74BF8D;}
	.st6{fill:#387255;}
	.st7{fill:#853D63;}
	.st8{fill:#37506B;}
	.st9{fill:#53729F;}
	.st10{fill:#48799A;}
	.st11{fill:#C15D8F;}
	.st12{fill:#4B9670;}
	.st13{fill:#97426D;}
	.st14{fill:#AE507B;}
	.st15{fill:#DB5E91;}
	.st16{fill:#EFBD6E;}
</style>
<g>
	<path class="st0" d="M134.8,451.4c-0.2-0.1-0.5-0.2-0.8-0.2C134.3,451.2,134.5,451.3,134.8,451.4z"/>
	<path class="st0" d="M378.2,364.5c-1.6,0-3.2,1.2-4.8,3.5c-1.5,2.4-2.3,5.6-2.3,9.7c0,2.5,0.5,4.5,1.4,6c0.7,1.1,1.6,1.6,2.8,1.6
		c1.6,0,3.1-1,4.4-3c1.7-2.6,2.6-5.9,2.6-9.7c0-2.9-0.4-5-1.2-6.2C380.3,365.1,379.3,364.5,378.2,364.5z"/>
	<path class="st0" d="M302.3,421.7c-2.5,0-4.8,0.6-6.9,1.7c-1.5,0.8-3.3,2.3-5.5,4.4c0.4,6.2,0.5,12.8,0.5,19.7c3,1.2,6,1.7,9,1.7
		c3.4,0,6.1-1.3,7.9-3.8c1.6-2.2,2.4-5.1,2.4-8.7c0-5-0.6-8.8-1.8-11.2C306.6,423,304.8,421.7,302.3,421.7z"/>
	<path class="st0" d="M456.4,420.4c-5.2,0-9.3,1.8-12.1,5.4c-2.6,3.2-3.8,7.4-3.8,12.4c0,4,0.8,7,2.3,9c1.5,2,3.8,3,6.8,3
		c2.8,0,5.5-1.6,8.1-4.7c2.4-2.9,3.7-5.8,4-8.6c0.6-3,1.2-7.6,1.9-14c-1.1-0.9-2.2-1.5-3.4-1.9C458.9,420.6,457.7,420.4,456.4,420.4
		z"/>
	<path class="st0" d="M535.7,407.2c1.4-0.4,3-0.8,4.6-1.1c-5.7-5.4-12.4-12.3-17.3-17.4c0,0.2,0.1,0.3,0.1,0.5c1,1.2,2.3,3,3.5,5.1
		L535.7,407.2z"/>
	<path class="st0" d="M230.3,299.1c-1.3,7.8-3.4,17.2-5,24c0.1-0.1,0.2-0.2,0.4-0.4l0.2-0.2c0.1-0.1,0.3-0.3,0.4-0.4
		c4.4-7.3,9-13.6,9.8-12.5l0.1,0.2c0.2,1.1-2.1,4.1-4.8,8.1c1.3-0.9,2.6-1.7,3.7-2.3l4.6-17c-2.1-1.7-4.1-3.7-5.8-6
		c-0.9-1.2-1.7-2.6-2.3-4.1c0,0.3,0,0.7-0.1,1C231.3,292.2,230.9,295.5,230.3,299.1z"/>
	<path class="st0" d="M306.4,253.5c-0.9,4.9-2.7,10.1-5.2,14.3c3.9-0.2,7.7,0.1,11,0.7c2.3-2.3,4.9-4.4,7.5-6
		C314.2,260.1,309.4,256.8,306.4,253.5z"/>
	<path class="st0" d="M516.6,349.2c-1.8-3.3-5.2-6-9.3-8.2c-0.4,0.1-0.8,0.2-1.3,0.2c-1.5,0.3-3.3,0.4-5.2,0.5
		c4.7,2.7,10.8,5.3,15.9,7.6L516.6,349.2z"/>
	<path class="st0" d="M331.2,367.4c0-0.8-0.2-1.5-0.7-2c-0.4-0.5-1-0.7-1.7-0.7c-0.7,0-1.4,0.3-2.1,0.8c-0.9,0.7-1.7,1.8-2.3,3.3
		c-0.9,2.1-1.5,4.3-1.9,6.5c3.1-1.4,5.5-2.9,7-4.5C330.6,369.6,331.2,368.5,331.2,367.4z"/>
	<path class="st1" d="M288.6,381.3c1.4-2.5,2.7-6.3,4.1-11.5c1.5-0.1,2.9-0.2,4.2-0.3l7.9-0.3l-2.2,8.7c-1,4-1.9,7.1-2.7,9.3
		c0.9-0.3,1.8-0.4,2.6-0.4c1,0,2.3,0.1,3.8,0.2c1.4,0.1,2.5,0.2,3.3,0.2c0.5,0,1.3-0.1,2.3-0.2l0.4-1.7c-1,0.2-1.9,0.3-2.7,0.3
		c-0.7,0-1.6-0.1-2.7-0.3c-0.6-0.1-1.1-0.2-1.4-0.2c3.3-15.5,6.2-25.6,8.7-30.4c1.4-2.7,2.8-4,4.3-4c0.7,0,1.4,0.5,2.3,1.5
		c0.9,1,1.6,1.5,2.3,1.5c0.5,0,0.9-0.2,1.3-0.5c0.3-0.3,0.5-0.7,0.5-1.2c0-0.8-0.5-1.6-1.4-2.2c-0.9-0.6-2.2-1-3.9-1
		c-2,0-3.8,0.5-5.4,1.5c-1.6,1-3,2.6-4.3,4.8c-1.3,2.2-2.8,6.1-4.4,11.7c-3,0.4-7,0.6-12.1,0.6c1.8-7.2,3.4-12.2,4.8-15
		c-5.3,0-8.9,0.2-10.7,0.6c-3.1,0.7-5.5,1.9-7.1,3.7c-1.6,1.7-2.4,3.7-2.4,6c0,1.2,0.2,2.2,0.7,2.8c0.5,0.6,1.1,1,1.7,1
		c0.5,0,1-0.2,1.3-0.5c0.4-0.4,0.5-0.8,0.5-1.4c0-0.5-0.2-1.1-0.7-1.9c-0.5-0.8-0.8-1.5-0.8-2.1c0-1.6,1-3,2.9-4.3
		c1.9-1.3,4.9-1.9,8.7-1.9l-2.8,10.6c-2.6,9.6-4.5,15.7-5.8,18.1c-1.3,2.4-2.7,3.7-4.3,3.7c-0.4,0-0.7-0.1-1-0.3
		c-0.3-0.2-0.7-0.6-1.2-1.2c-0.8-1.1-1.6-1.6-2.3-1.6c-0.5,0-0.9,0.2-1.2,0.5c-0.3,0.3-0.5,0.8-0.5,1.2c0,0.8,0.4,1.5,1.2,2
		c1.1,0.8,2.5,1.2,4.1,1.2c1.6,0,3.4-0.6,5.2-1.8C285.6,385.6,287.2,383.8,288.6,381.3z"/>
	<path class="st1" d="M332.7,379.5c-2.5,1.8-4.3,3.1-5.6,3.7c-0.9,0.4-1.8,0.7-2.6,0.7c-0.8,0-1.5-0.3-1.9-0.8
		c-0.4-0.5-0.7-1.5-0.7-2.9c0-0.9,0.1-1.9,0.3-3c3.7-1.7,6.1-2.8,7.2-3.5c2.2-1.3,3.8-2.6,4.7-3.8c0.9-1.2,1.3-2.5,1.3-3.7
		c0-1.2-0.4-2.1-1.1-2.8c-0.7-0.7-1.8-1-3.2-1c-3.9,0-7.3,2.3-10.1,7c-2.5,4.1-3.8,8.2-3.8,12.4c0,2.1,0.4,3.5,1.1,4.5
		c0.7,0.9,1.8,1.4,3.1,1.4c3.4,0,7.5-2.3,12.2-6.8L332.7,379.5z M324.4,368.7c0.6-1.5,1.4-2.5,2.3-3.3c0.7-0.5,1.4-0.8,2.1-0.8
		c0.7,0,1.3,0.2,1.7,0.7c0.4,0.5,0.7,1.2,0.7,2c0,1.1-0.5,2.2-1.6,3.3c-1.6,1.6-3.9,3.1-7,4.5C322.9,373,323.5,370.9,324.4,368.7z"
		/>
	<path class="st1" d="M347.5,361.7c1-4.4,1.8-7.3,2.2-8.8c0.5-1.5,1-2.5,1.5-2.9c0.4-0.3,1-0.5,1.8-0.5c0.8,0,1.6,0.1,2.6,0.2
		c1.1,0.2,1.9,0.3,2.5,0.3c0.9,0,1.6-0.2,2-0.6c0.5-0.4,0.7-0.9,0.7-1.5c0-0.6-0.2-1-0.7-1.4c-0.5-0.4-1.1-0.6-2-0.6
		c-2.4,0-4.8,0.7-6.9,2c-2.2,1.3-3.9,3.2-5.1,5.5c-0.8,1.6-1.7,4.7-2.9,9.3l-3.1,12.7c-1.2,4.9-1.8,8.1-1.8,9.6
		c0,0.8,0.2,1.4,0.6,1.9c0.4,0.5,0.9,0.7,1.5,0.7c1.3,0,3-0.7,5.1-2.1c2.1-1.4,3.8-3,5.4-4.7l-1-1c-1.6,1.6-3.2,2.9-4.8,3.9
		c-0.8,0.5-1.4,0.8-1.9,0.8c-0.4,0-0.7-0.3-0.7-0.9c0-0.3,0.7-3.5,2.1-9.6L347.5,361.7z"/>
	<path class="st1" d="M361.7,361.7c1-4.4,1.8-7.3,2.2-8.8c0.5-1.5,1-2.5,1.5-2.9c0.4-0.3,1-0.5,1.8-0.5s1.6,0.1,2.6,0.2
		c1.1,0.2,1.9,0.3,2.5,0.3c0.9,0,1.6-0.2,2-0.6c0.5-0.4,0.7-0.9,0.7-1.5c0-0.6-0.2-1-0.7-1.4c-0.5-0.4-1.1-0.6-2-0.6
		c-2.4,0-4.8,0.7-6.9,2c-2.2,1.3-3.9,3.2-5.1,5.5c-0.8,1.6-1.7,4.7-2.9,9.3l-3.1,12.7c-1.2,4.9-1.8,8.1-1.8,9.6
		c0,0.8,0.2,1.4,0.6,1.9c0.4,0.5,0.9,0.7,1.5,0.7c1.3,0,3-0.7,5.1-2.1c2.1-1.4,3.8-3,5.4-4.7l-1-1c-1.6,1.6-3.2,2.9-4.8,3.9
		c-0.8,0.5-1.4,0.8-1.9,0.8c-0.4,0-0.7-0.3-0.7-0.9c0-0.3,0.7-3.5,2.1-9.6L361.7,361.7z"/>
	<path class="st1" d="M380.6,362.3c-4.4,0-8,2.1-10.9,6.4c-2.3,3.4-3.5,7.2-3.5,11.3c0,2.3,0.6,4.2,1.9,5.5c1.3,1.4,2.9,2,5,2
		c3.4,0,6.6-1.7,9.6-5.1c3-3.4,4.5-7.3,4.5-11.6c0-2.7-0.6-4.8-1.9-6.3C384.1,363.1,382.5,362.3,380.6,362.3z M379.7,382.3
		c-1.3,2-2.8,3-4.4,3c-1.2,0-2.1-0.5-2.8-1.6c-0.9-1.5-1.4-3.4-1.4-6c0-4.1,0.8-7.4,2.3-9.7c1.5-2.4,3.1-3.5,4.8-3.5
		c1.2,0,2.2,0.6,2.9,1.9c0.8,1.2,1.2,3.3,1.2,6.2C382.3,376.5,381.4,379.7,379.7,382.3z"/>
	<path class="st2" d="M252.4,420c-4.3-0.3-7.3-0.6-8.8-1c-4.1-0.9-6.1-2.5-6.1-4.8c0-3,1.5-5.6,4.6-7.7c3-2.1,6.6-3.1,10.9-3.2
		c1.5,0,3.6,0.3,6.4,0.8c2.8,0.6,4.7,0.9,5.8,0.9c2.5,0,3.7-1.2,3.7-3.6c0-1.8-2.2-3.4-6.7-4.5c-3.4-0.9-6.4-1.4-9-1.4
		c-5.7,0-11.2,1.9-16.5,5.7c-5.6,4-8.3,8.5-8.3,13.4c0,4.2,2,7.3,5.9,9.6c3.1,1.7,6.8,2.7,11.1,2.8c4.9,0.1,9,1.1,12.3,2.8
		c3.9,2,5.9,4.7,5.9,8.2c0,4.2-2.3,7.5-7,9.9c-3.7,1.8-7.6,2.8-11.9,2.8c-4.5,0-7.9-0.8-10.2-2.3c-1.1-0.7-2.4-2.2-3.8-4.3
		c-1-1.5-2.2-2.3-3.5-2.3c-1.2,0-2.2,0.4-3,1.1c-0.8,0.7-1.2,1.7-1.2,2.8c0.1,4.1,2.7,7.4,7.8,9.7c4.2,1.9,8.8,2.9,13.8,2.9
		c6.9,0,13-1.7,18.3-5.1c6.1-3.9,9.1-9.1,9.1-15.7c0-4.6-1.6-8.5-4.9-11.7C263.7,422.5,258.7,420.5,252.4,420z"/>
	<path class="st2" d="M302.3,413.5c-2,0-4.1,0.4-6.3,1.2c-2.2,0.8-4.5,2-6.9,3.7c0.1-0.7,0.2-1.5,0.3-2.4c0.1-0.7,0.1-1.1,0.1-1.4
		c0-1.1-0.4-2-1.1-2.8c-0.7-0.8-1.6-1.1-2.7-1.1c-1.6,0-2.8,0.8-3.6,2.4c-0.7,1.3-1.1,3-1.1,5l0.6,8.4c0.3,5,0.5,10.4,0.6,16.5v16.5
		l-0.1,16.5c0,1.2,0.4,2.2,1.1,3c0.8,0.8,1.7,1.2,2.9,1.2c1.2,0,2.2-0.4,2.9-1.2c0.8-0.8,1.1-1.8,1.1-3l0.1-19.7
		c3.3,0.9,6.3,1.3,9.1,1.3c5.6,0,10.2-2,13.5-6.1c3.2-3.9,4.8-8.8,4.8-14.7c0-6.5-1-11.8-3.1-15.7
		C312.1,416,307.9,413.5,302.3,413.5z M307.3,445.4c-1.8,2.6-4.4,3.8-7.9,3.8c-3,0-6-0.6-9-1.7c0-6.9-0.2-13.4-0.5-19.7
		c2.2-2.1,4.1-3.6,5.5-4.4c2-1.1,4.3-1.7,6.9-1.7c2.5,0,4.3,1.2,5.6,3.7c1.2,2.5,1.8,6.2,1.8,11.2
		C309.7,440.3,308.9,443.1,307.3,445.4z"/>
	<path class="st2" d="M352.6,412.6c-6.4,0-12.3,2.5-17.6,7.6c0-4.6-1.4-6.9-4.1-6.9c-2.4,0-3.6,1.4-3.6,4.2c0,0.9,0,2.3-0.1,4.1
		c-0.1,1.8-0.1,3.2-0.1,4.1v29c0,2.8,1.2,4.2,3.6,4.2c2.7,0,4.1-1.4,4.1-4.2l-0.1-22.6c1.6-3.6,3.7-6.3,6.1-8.1
		c2.6-1.9,6.1-3.2,10.4-3.7l0.1,3.5c0.1,1.4,0.1,2.4,0.1,2.9c0,2.7,1.2,4.1,3.5,4.1c2.6,0,3.9-1.7,4.1-5.2c0-0.5,0-1.5,0-2.9
		c0-3.4-0.6-5.9-1.7-7.6C356.5,413.4,354.9,412.6,352.6,412.6z"/>
	<path class="st2" d="M374.3,413.8c-1.2,0-2.2,0.4-2.9,1.2c-0.8,0.8-1.1,1.8-1.1,3c0,2.6-0.1,5.8-0.4,9.7c-0.3,3.9-0.4,7.1-0.4,9.7
		c0,1.7,0,4.1,0.1,7.4c0.1,3.3,0.1,5.8,0.1,7.4c0,1.2,0.4,2.2,1.1,3c0.8,0.8,1.7,1.2,2.9,1.2c1.2,0,2.2-0.4,2.9-1.2
		c0.7-0.8,1.1-1.8,1.1-3c0-1.7,0-4.1-0.1-7.4c-0.1-3.3-0.1-5.8-0.1-7.4c0-2.6,0.1-5.8,0.4-9.7c0.3-3.9,0.4-7.1,0.4-9.7
		c0-1.2-0.4-2.2-1.1-3C376.4,414.2,375.4,413.8,374.3,413.8z"/>
	<path class="st2" d="M375.6,394.2c-1.3,0-2.5,0.5-3.4,1.4c-1,0.9-1.4,2.1-1.4,3.4c0,1.3,0.5,2.4,1.4,3.4c1,0.9,2.1,1.4,3.4,1.4
		s2.5-0.5,3.4-1.4c0.9-0.9,1.4-2.1,1.4-3.4c0-1.3-0.5-2.4-1.4-3.4C378.1,394.7,376.9,394.2,375.6,394.2z"/>
	<path class="st2" d="M425.5,437.2l0-3.8v-4.2c-0.1-5.1-0.8-8.9-1.9-11.5c-1.7-3.9-4.8-5.8-9.2-5.8c-4.9,0-9.6,3.1-14.2,9.2
		l-0.1-4.8c-0.2-3.6-1.6-5.4-4.2-5.4c-1.2,0-2.1,0.4-2.9,1.1c-0.8,0.8-1.2,1.7-1.2,2.9c0,0.9,0,2.2,0.1,3.9c0.1,1.7,0.1,3,0.1,3.9
		c0,2.8-0.2,6.8-0.6,11.8c-0.4,5-0.6,9-0.6,11.8c0,0.8,0.1,2.1,0.3,3.7c0.2,1.7,0.3,2.9,0.3,3.7c0,1.2,0.4,2.2,1.1,3
		c0.7,0.8,1.7,1.2,2.9,1.2c1.2,0,2.2-0.4,2.9-1.2c0.8-0.8,1.1-1.8,1.1-3c0-0.8-0.1-2.1-0.2-3.7c-0.2-1.6-0.2-2.9-0.2-3.7
		c0-1.3,0.1-2.6,0.2-4c0.2-1.6,0.3-3,0.4-4c1.4-5.1,3.4-9.3,5.9-12.6c2.8-3.7,5.8-5.5,8.8-5.5c2.2,0,3.3,3,3.3,8.9
		c0,0.8,0,2.1-0.1,3.9c-0.1,1.8-0.1,3.2-0.1,3.9c0,2.8,0.2,5.8,0.6,9l1.2,9c0.3,2.6,1.6,3.9,4,3.9c1.2,0,2.2-0.4,3-1.1
		c0.8-0.8,1.2-1.7,1.2-3c0-2.3-0.3-5.2-0.9-8.8C425.8,442.5,425.5,439.5,425.5,437.2z"/>
	<path class="st2" d="M467.2,417.8c-0.9-1.3-2.2-2.3-4-3c-1.7-0.7-3.9-1-6.4-1c-7.6,0-13.6,2.3-18,7c-4.3,4.5-6.4,10.5-6.4,18
		c0,5.4,1.6,9.8,4.7,13.2c3.1,3.4,7.2,5.1,12.2,5.1c2.6,0,5-0.7,7-2.1c2.1-1.4,3.8-3.4,5.3-6.2c-0.1,7-0.8,12.1-2.1,15.5
		c-2,5-5.7,7.6-10.9,7.7c-2.8,0.1-5.4-0.2-7.7-0.6c-2.3-0.5-4-0.7-5-0.7c-2.4,0-3.6,1.2-3.6,3.7c0,2.2,1.7,3.6,5.2,4.3
		c2.5,0.5,5.5,0.7,9.2,0.7c6.2,0,11-1.3,14.3-3.8c2.7-2.1,4.7-5.4,5.9-9.9c1-3.5,1.5-8,1.7-13.5l0.9-13.9c0.1-1.4,0.5-4,1.1-7.8
		c0.6-3.3,0.9-5.9,0.9-7.8C471.7,419.5,470.2,417.8,467.2,417.8z M461.7,436.9c-0.3,2.8-1.7,5.7-4,8.6c-2.6,3.1-5.3,4.7-8.1,4.7
		c-3,0-5.3-1-6.8-3c-1.5-2-2.3-5-2.3-9c0-5,1.3-9.1,3.8-12.4c2.9-3.6,6.9-5.4,12.1-5.4c1.3,0,2.5,0.2,3.7,0.6c1.2,0.4,2.3,1,3.4,1.9
		C462.9,429.3,462.2,433.9,461.7,436.9z"/>
	<path class="st3" d="M580.5,371.8c1.7,7.7-18.4,3.4-18.4,3.4c0.9,1.9,2.5,4.3,4.3,6.7c11.6,2.2,26.1,0.5,27.4-3.6
		c1.6-5.2-9.8-15-9.8-15s13.9,0.4,17.6-6.7c1.8-3.5-3.5-7.4-9.4-10.4c-5.4,5.9-27.1,6.6-27.1,6.6S578.8,364.1,580.5,371.8z"/>
	<path class="st3" d="M591.9,339.3c2.4-0.6,4.1-1.3,5.4-2.1c3.2-1.9,3.1-6.5-0.1-8.5c-25.2-16.1-67.6,1.7-68.3,2
		c4.6-0.5,9.3-1.3,13.8-2.5C564.1,322.7,585.5,330,591.9,339.3z"/>
	<path class="st4" d="M507.3,340.9c4.1,2.2,7.4,4.9,9.3,8.2l0.1,0.1c6.7,3,11.8,5.3,9.9,6.4c-0.8,0.4-3.1,0.2-6.4-0.3
		c9.4,15.7,26.7,39.4,48.8,39.8c3.5,0.1,5.4-4.1,3.1-6.7c-1.8-2-3.8-4.3-5.6-6.6c-1.9-2.4-3.5-4.8-4.3-6.7c0,0,20,4.3,18.4-3.4
		c-1.7-7.7-15.3-19-15.3-19s21.7-0.7,27.1-6.6c1.2-1.3,1.6-2.9,0.8-4.7c-0.3-0.7-0.7-1.4-1.2-2.2c-6.4-9.3-27.8-16.6-49.1-11.1
		c-4.6,1.2-9.2,2-13.8,2.5c-2.8,0.3-5.6,0.5-8.3,0.5l0,0.2C519.8,335.9,516.9,339.1,507.3,340.9z"/>
	<path class="st5" d="M493.4,307.7c5-1.2,11.1-2.5,17.5-3.8c1-0.2,2-0.5,3.1-0.8c-0.6-0.1-1-0.1-1-0.1s5.4-2.9,14-5.6
		c17.2-9,36.9-23.5,32-23.2c-10.6,0.7-32.5,14.2-39.9,20.3c-3.4,2.8-12,5.6-20.5,7.8C497.3,303.9,495.6,305.7,493.4,307.7z"/>
	<path class="st6" d="M576.7,405.9c-7.1-0.6-15.6-1.1-23.8-0.9c0.9,2.6,0.9,5.2-0.3,7.9c1.6,0.4,3.3,1,4.9,1.8
		c1.6-0.2,3.4-0.2,5.3-0.2c5.3-1.4,10.9-3,16.3-3.8c14.3-2.2,30.5,5.3,32,3.1C612.5,411.7,589.9,407,576.7,405.9z"/>
	<path class="st6" d="M535.7,407.2l4.2,5.9c2.4-0.5,4.9-0.7,7.5-0.7c-2-1.5-4.4-3.7-7.1-6.2C538.6,406.5,537.1,406.8,535.7,407.2z"
		/>
	<path class="st7" d="M380.9,252.3c2.1-0.3,4.1,0.5,6,2.1c2.3-0.2,5.3-1.1,8.5-2.2c-6.5-0.2-13.4-3-18.9-8.7c1.3,4,2.7,6.9,3.9,9
		C380.6,252.4,380.7,252.3,380.9,252.3z"/>
	<path class="st3" d="M470.1,238.2c-0.3,2.6-1.8,3.9-4,4.5c3,1.1,5.3,2.5,6.9,4.1c4.6-1.7,9.4-4.1,10.3-6.9
		c1.9-6-13.4-13.8-24.6-11.7C465.3,230.5,470.6,234.3,470.1,238.2z"/>
	<path class="st8" d="M474.4,254c-0.6,1.1-1.5,2.2-2.6,3.3c3.8,0.4,7.5,1.4,10.4,2.6c3-1,4.9-3.2,5.6-7.3c0.9-5.1-6.8-7.6-14.6-5.7
		C475.2,249.1,475.7,251.5,474.4,254z"/>
	<path class="st3" d="M452.4,268.8c16.5-2.7,24.7-5.3,25.5,1.8c0.4,4.2-9,11.4-23,15.8c9.1,0.5,30-5.6,33.2-20.5
		c0.5-2.2-2-4.4-5.8-6c-2.9-1.3-6.6-2.2-10.4-2.6C467.7,261.4,460.2,265.4,452.4,268.8z"/>
	<path class="st9" d="M398.5,258.5c10.4-5.6,24.4-14.5,38.9-17.3c11.1-2.2,21.6-1.2,28.7,1.4c2.2-0.6,3.6-1.9,4-4.5
		c0.5-3.8-4.8-7.7-11.4-10c-6.2-2.2-13.6-3-18.4-1.1c-6.2,2.3-16,9.4-25.1,15.8l0,0L398.5,258.5z"/>
	<path class="st10" d="M477.8,270.6c-0.7-7.1-8.9-4.5-25.5-1.8c-8.4,3.6-17.2,6.5-22.8,7.8c-6.5,1.6-20.6-0.4-32.6-2.6
		c0.1,0.1,38.6,17.6,54.5,13.3c1.1-0.3,2.3-0.6,3.4-1C468.9,282,478.2,274.8,477.8,270.6z"/>
	<path class="st4" d="M437.5,241.2c-14.5,2.8-28.5,11.7-38.9,17.3l-5.5,5.2c1.1,2.6,1.9,5.4,2.5,8.3c0.1,0.6,0.2,1.3,0.2,1.9
		c0.4,0.1,0.8,0.1,1.2,0.2c12,2.2,26.1,4.2,32.6,2.6c5.6-1.4,14.4-4.2,22.8-7.8c7.8-3.4,15.3-7.4,19.5-11.5c1.1-1.1,2-2.2,2.6-3.3
		c1.3-2.5,0.8-4.9-1.2-7c-0.1-0.1-0.1-0.1-0.2-0.2c-1.6-1.6-3.9-3-6.9-4.1C459.1,240,448.6,239.1,437.5,241.2z"/>
	<path class="st7" d="M439.2,326.7c-1.2-1.6-1.5-3.5-1.1-5.8c-1.3-1.7-3.4-3.6-5.9-5.4c0.3,0.7,0.5,1.1,0.5,1.1s0,0-4.9-0.6
		c5.9,3,9.2,8.5,6.2,18.4c2.6-2.9,4.4-5.4,5.5-7.4C439.4,327,439.3,326.9,439.2,326.7z"/>
	<path class="st11" d="M438.1,321c0.5-2.9,2.2-6.1,4.6-9.2l-15.1-3.5c2.6,3.1,4,5.8,4.6,7.3C434.7,317.4,436.9,319.3,438.1,321z"/>
	<path class="st12" d="M396.6,303c3.1,5.1,11.5,14,14.1,15.3c4.6,2.1,15.8,13.9,20.7,13.6c0,0-4-8.6-14.3-18.4
		c-5.7-2.7-13.3-8-20.2-13.2C396.8,301.3,396.7,302.2,396.6,303z"/>
	<path class="st12" d="M412.4,296.4c0.9,0.5,1.8,1,2.7,1.5c14.1,1.2,39.8,3,39.3,0.1c-2.7-15.7-29.9-8.9-38.9-9.1
		c-6.3-0.2-12.5-2.4-19-2c0.2,1.1,0.4,2.3,0.5,3.5C401.6,291.8,406.9,293.7,412.4,296.4z"/>
	<path class="st6" d="M432.3,315.6c-0.6-1.4-2-4.1-4.6-7.3c-2.7-3.3-6.7-7-12.6-10.4c-0.9-0.5-1.8-1-2.7-1.5
		c-5.4-2.7-10.7-4.6-15.4-6c0,0.4,0.1,0.7,0.1,1.1c0.3,3,0.2,6-0.1,8.8c6.9,5.2,14.5,10.5,20.2,13.2c2,1,3.8,1.6,5.1,1.8
		c2.3,0.3,4.1,0.5,5.6,0.7c4.9,0.6,4.9,0.6,4.9,0.6S432.6,316.3,432.3,315.6z"/>
	<path class="st6" d="M304,238.8c3-3.3,6.1-6.9,9.4-9.9c8.7-7.9,22.8-9.9,22.9-12c0.1-2.1-17.2,4.7-26.6,9.8
		c-6.9,3.8-15.7,8.8-22.2,14.3C294.1,239,300.8,237.8,304,238.8z"/>
	<path class="st5" d="M271.6,248.4c1.9-1.5,4.8-3.1,8.3-4.5c4-10.9,8-25,6.9-27.2c-1.7-3.4-8.2,14.5-14.9,25.2
		C271.9,243.9,271.8,246.1,271.6,248.4z"/>
	<path class="st7" d="M270,271.9c1.2-2.4-0.1-3.3-0.9-5.5c-0.7,3.1-1.4,6.1-2.3,9C268.4,273.8,269.6,272.6,270,271.9z"/>
	<path class="st7" d="M270,261.4c1.5-0.7,4-0.4,6.6,0.9c2.3,1.1,0.3,1.6,0.1,3.2s2.4,2.4,4.7,3.6c2.2,1.2,0.1,7.5-2.8,4.4
		c-2.9-3.1-5.2-0.7-11.3,4.2c-0.6,0.5-1.2,1.1-1.9,1.8c-1.2,3.5-2.6,6.7-4.1,9.4c8.5-6.7,20.2-15.4,28-18.5
		c3.6-1.5,7.8-2.2,11.8-2.5c2.5-4.2,4.3-9.4,5.2-14.3c-2.6-2.8-3.9-5.5-3.1-7.6c0.3-0.8,1.5-2.3,3.3-3.9c-0.3-0.9-0.6-1.7-1.1-2.3
		c-0.3-0.4-0.9-0.7-1.5-0.9c-3.2-1-9.9,0.2-16.6,2.2c-2.6,0.8-5.2,1.8-7.5,2.8c-3.4,1.5-6.4,3.1-8.3,4.5
		C271.4,252.5,270.8,256.9,270,261.4z"/>
	<path class="st7" d="M254.6,302.8c-1.6,1.1-3.6,1.4-5.8,0.9c-2.8,1.9-6,5.9-8.9,10c1.5-0.5,2.3-0.6,2.3-0.6s0,0-2.8,10.2
		c-0.3,0.9-0.7,2-1.3,3.1c0.7-0.6,1.4-1.2,2.1-1.8c1.7-11.4,7-21.3,21.9-16.2c-2.8-2.7-5.2-4.6-7.2-5.8
		C254.8,302.7,254.7,302.7,254.6,302.8z"/>
	<path class="st13" d="M248.3,281.3c0.2,1.7-0.2,3.6,0.5,6.9c0.4,1.9,1.4,3.5,2.6,5.1c3.5-7.2,11.1-13.8,15.5-18
		c0.9-2.9,1.6-5.9,2.3-9c-0.2-0.5-0.4-1.1-0.5-1.8c-0.2-1.6,0.3-2.6,1.4-3.1c0.8-4.5,1.3-8.9,1.6-13c0.2-2.3,0.2-4.5,0.2-6.5
		c0-1.9-0.1-3.7-0.3-5.2c-1.4-10.7-4.5-14-9.2-15c-11.7-2.5-19.5,15.3-21.3,30.2c0.8,0.9,1.6,1.9,2.4,3
		C249.6,262.4,249.5,273.2,248.3,281.3z"/>
	<path class="st13" d="M254.9,294c1.8-1.4,4-3.2,6.5-5.2c1.5-2.7,2.9-5.9,4.1-9.4C261.8,283.2,257.6,289.6,254.9,294z"/>
	<path class="st14" d="M236.1,268c5.7,1,1.6,3.9,7.9,8.3c3.1,2.1,4,3.5,4.2,5c1.2-8.1,1.3-18.9-4.8-26.5c-0.9-1-1.7-2-2.4-3
		c-9.2-11.1-13.8-14.5-17.7-13.5c-6.5,1.7-9.6,22.1,0.9,38.8c2,3.2,4.1,5.8,6.1,7.8c0,0,0.1,0,0.1,0
		C228.5,276.6,230.4,267,236.1,268z"/>
	<path class="st14" d="M301.7,287c-0.9-4.1,3.9-12,10.4-18.4c-3.3-0.7-7.1-0.9-11-0.7c-4.1,0.2-8.2,1-11.8,2.5
		c-7.8,3.1-19.5,11.8-28,18.5c-2.5,2-4.7,3.7-6.5,5.2c-0.5,0.8-0.9,1.5-1.3,2.1c0.5,0.6,1,1.2,1.4,1.8c6.4-3.2,18.1-6.9,30.7,0
		c1.3,0.7,2.5,1.3,3.6,1.9c0.7,0.1,1.3,0.1,2,0.2c8.8,0.9,15.6-2.5,20.5-7.2C306.4,291.3,302.2,289.2,301.7,287z"/>
	<path class="st2" d="M267.4,277.7c6.1-4.9,8.4-7.3,11.3-4.2c2.9,3.1,5-3.2,2.8-4.4c-2.2-1.2-4.9-2.1-4.7-3.6s2.2-2.1-0.1-3.2
		c-2.6-1.3-5.1-1.6-6.6-0.9c-1.1,0.5-1.7,1.5-1.4,3.1c0.1,0.7,0.3,1.3,0.5,1.8c0.8,2.2,2.1,3.1,0.9,5.5c-0.4,0.7-1.6,1.9-3.2,3.5
		c-4.4,4.2-12,10.8-15.5,18c0.7,1,1.6,1.9,2.3,2.8c0.4-0.6,0.8-1.3,1.3-2.1c2.7-4.4,6.9-10.8,10.6-14.5
		C266.1,278.8,266.7,278.2,267.4,277.7z"/>
	<path class="st11" d="M236.8,314.9c1.2-0.6,2.3-1,3.1-1.3c2.9-4.1,6.1-8.1,8.9-10c-2.8-0.6-6-2.4-9-4.9l-4.6,17
		C235.7,315.5,236.3,315.2,236.8,314.9z"/>
	<path class="st15" d="M255,297.9c-0.4-0.6-0.9-1.2-1.4-1.8c-0.7-0.9-1.5-1.8-2.3-2.8c-1.2-1.6-2.2-3.2-2.6-5.1
		c-0.7-3.4-0.2-5.3-0.5-6.9c-0.2-1.6-1.1-2.9-4.2-5c-6.4-4.3-2.2-7.3-7.9-8.3c-5.7-1-7.6,8.6-5.7,16.9c0.1,0,0.2,0,0.4,0
		c0.7,0,0.9,1.4,0.8,3.9c0.6,1.5,1.4,2.9,2.3,4.1c1.8,2.2,3.8,4.2,5.8,6c3,2.5,6.2,4.3,9,4.9c2.2,0.5,4.2,0.3,5.8-0.9
		c0.1-0.1,0.2-0.2,0.3-0.3c1.9,1.2,4.3,3.1,7.2,5.8c2.5,2.5,5.4,5.6,8.5,9.5c10.9,13.6,29.1-5,31.2-8c2-2.8,2.8-1.7-12.5-10
		c-1.1-0.6-2.3-1.2-3.6-1.9C273.2,291,261.5,294.7,255,297.9z"/>
	<path class="st7" d="M546.7,459.2c-2.1-2.6-4-5.3-5.8-7.9c0.2,2.4,0.3,4.2,0.7,5C542.7,458.9,544.3,458.4,546.7,459.2z"/>
	<path class="st7" d="M523,389.2l0,0.2l3.5,4.9C525.3,392.2,524,390.5,523,389.2z"/>
	<path class="st7" d="M526.5,422.6c0.1-2.1,1.3-3.9,3.2-5.4c0.3-3.1-0.5-7.7-1.7-12.2c-1-0.4-2.2-4-4.2-8.5c0,2.4-0.1,4.5-0.4,6.3
		c4.3,7.5,4.3,15.5-6.6,22.2c4.1-0.5,7.3-1.2,9.6-2C526.5,422.9,526.5,422.7,526.5,422.6z"/>
	<path class="st13" d="M573.5,445.9c-10.4-0.1-19.3-7.5-25.1-13.9c-1.5-0.9-2.8-2.6-6-4.3c-1.8-0.9-3.9-1.2-6-1.3
		c3.5,7.7,3.9,18.5,4.4,24.9c1.8,2.7,3.8,5.3,5.8,7.9c0.6,0.2,1.2,0.5,1.8,0.8c1.5,0.9,1.9,2,1.6,3.3c3.2,3.7,6.5,7.1,9.6,10.1
		c3.5,3.3,6.9,6,9.8,7.9c9.7,6.1,14.6,5.7,18.6,2.5c9.9-7.9,0.7-26.4-10.5-38C576.3,445.9,575,445.9,573.5,445.9z"/>
	<path class="st13" d="M533.4,437.6c1.2,3,2.9,6.3,4.9,9.7c-0.6-5.5-3-13.3-4.8-18.6C533.5,431.2,533.5,434.3,533.4,437.6z"/>
	<path class="st14" d="M557.5,414.7c8.2,4,14.9,12.2,10.2,16.2c-4.7,4.1-4.3-1.4-12.2,1c-3.8,1.1-5.5,0.9-7,0.1
		c5.8,6.5,14.7,13.9,25.1,13.9c1.4,0,2.8,0,4.1,0c15.4-0.1,21.3-1.6,23.1-5.5c3-6.5-11.7-22.9-32.5-25.5c-1.9-0.2-3.7-0.4-5.4-0.4
		C560.9,414.5,559.1,414.6,557.5,414.7z"/>
	<path class="st2" d="M548.5,460.1c-0.7-0.4-1.3-0.7-1.8-0.8c-2.4-0.8-4-0.3-5.1-3c-0.4-0.8-0.5-2.6-0.7-5
		c-0.4-6.4-0.8-17.2-4.4-24.9c-1,0-2,0-3,0c0,0.7,0,1.5,0,2.5c1.8,5.2,4.2,13,4.8,18.6c0.1,1,0.2,1.9,0.2,2.8
		c-0.1,8.3,0.4,11.8-4.2,12.1c-4.6,0.3-0.8,6.3,1.7,5.3c2.5-1,5-2.7,6.2-1.4c1.1,1.3,0.3,3.2,2.7,2.1c2.8-1.3,4.8-3.2,5.2-4.9
		C550.4,462.1,550,460.9,548.5,460.1z"/>
	<path class="st11" d="M526.5,394.4l-3.5-4.9c0,0.2,0.1,0.4,0.1,0.5c3.6,7.7,6.4,15.1,5,15.1l-0.2,0c1.2,4.5,2,9.1,1.7,12.2
		c2.4-1.9,6.1-3.3,10.2-4.1l-4.2-5.9L526.5,394.4z"/>
	<path class="st7" d="M349.3,279.7c2.1-2.6,4.3-5.1,6.6-7.4c-2.3,0.7-4,1.2-4.7,1.7C348.8,275.7,349.6,277.2,349.3,279.7z"/>
	<path class="st7" d="M340.1,279.8c-1.6-2.1,0.5-1.7,1.5-3c1-1.4-1.1-3.5-2.6-5.7c-1.5-2.2,3.6-7.2,4.8-2.8
		c1.2,4.4,4.6,3.2,12.7,1.6c0.8-0.2,1.7-0.4,2.7-0.7c2.9-2.7,5.8-5.1,8.5-6.8c-11.4,2.2-26.7,4.7-35.6,3.8
		c-4.1-0.4-8.4-1.7-12.4-3.5c-2.6,1.6-5.1,3.7-7.5,6c-6.5,6.4-11.3,14.3-10.4,18.4c0.5,2.3,4.6,4.3,10.1,5.9
		c8.6,2.5,20.3,3.7,26.2,2.6c2.3-3.7,5-7.7,7.9-11.5C344.2,283.8,342,282.3,340.1,279.8z"/>
	<path class="st13" d="M376.3,275.8c0.6-1.7,2-3.3,3-6.8l0,0c-5.1,1.3-14.3,4.2-18.6,8.3c-6,5.9-8.8,8.9-10.4,6.6
		c-1.5-2.2,4.4-8.1,4.7-9.7c0.3-1.7,5.2,1.2,6.6-0.2c1-1,12.3-6.3,18-8.8c-0.1-0.7-0.2-1.5-0.3-2.2c-6.8,5.1-17.3,7.7-23.5,9.4
		c-2.2,2.3-4.4,4.8-6.6,7.4c-0.1,0.6-0.2,1.2-0.4,2c-0.5,1.6-1.6,2.3-2.9,2.2c-3,3.9-5.7,7.8-7.9,11.5c-2.5,4.1-4.5,8-5.7,11.2
		c-3.9,10.8-2.6,15.4,1.4,18.7c9.8,8.1,26-4.8,35-18.1c-0.3-1.3-0.6-2.6-0.9-4C365.8,293.1,371.2,282.8,376.3,275.8z"/>
	<path class="st13" d="M367.6,262.2c-2.7,1.8-5.6,4.1-8.5,6.8c5.3-1.8,12.4-5.7,17.1-8.6C373.9,261,370.9,261.6,367.6,262.2z"/>
	<path class="st14" d="M397,291.5c0-0.4-0.1-0.7-0.1-1.1c-0.1-1.2-0.3-2.4-0.5-3.5c-0.4-2.2-0.9-4.1-1.4-5.8
		c-2.2,8.9-8.8,17.1-13.8,13.3c-4.9-3.7,0.4-4.5-3.5-11.7c-1.9-3.5-2.1-5.2-1.5-6.8c-5.1,7-10.5,17.3-8.4,27.4
		c0.3,1.4,0.6,2.7,0.9,4c3.3,15,5.9,20.5,10.2,21.5c5.7,1.3,15.2-10.1,17.7-25.6c0.1-0.9,0.3-1.8,0.3-2.7
		C397.2,297.5,397.3,294.6,397,291.5z"/>
	<path class="st14" d="M303.3,246c-0.8,2,0.5,4.8,3.1,7.6c3,3.2,7.8,6.6,13.3,9c4,1.8,8.3,3.1,12.4,3.5c8.9,0.9,24.2-1.6,35.6-3.8
		c3.3-0.6,6.3-1.2,8.7-1.7c0.8-0.5,1.6-0.9,2.2-1.3c-0.2-0.9-0.4-1.7-0.4-2.4c-7.7-0.1-20.5-2.4-29.1-15.1c-0.9-1.3-1.7-2.5-2.4-3.6
		c-0.6-0.4-1.2-0.8-1.8-1.2c-15.2-10-31.3-1-38.2,5.2C304.8,243.7,303.6,245.1,303.3,246z"/>
	<path class="st15" d="M378.1,256.7c0.1,0.8,0.3,1.6,0.4,2.4c0.3,1.2,0.6,2.4,0.8,3.7c0.1,0.7,0.2,1.5,0.3,2.2
		c0.1,1.3,0,2.6-0.3,3.9l0,0c-1,3.5-2.4,5.1-3,6.8c-0.6,1.6-0.4,3.3,1.5,6.8c3.9,7.2-1.5,8,3.5,11.7c5,3.7,11.5-4.5,13.8-13.3
		c0.6-2.4,0.9-4.9,0.7-7.2c0-0.6-0.1-1.3-0.2-1.9c-0.6-2.9-1.4-5.7-2.5-8.3c-1.6-3.9-3.7-7.2-6.2-9.3c-1.9-1.6-3.9-2.4-6-2.1
		c-0.2,0-0.3,0.1-0.4,0.1c-1.3-2.1-2.6-5-3.9-9c-1.2-3.6-2.4-7.9-3.4-13.2c-3.7-18.2-29.9-9.6-33.5-7.8c-3.3,1.7-3.5,0.3,6.9,15.6
		c0.7,1.1,1.5,2.3,2.4,3.6C357.5,254.4,370.4,256.6,378.1,256.7z"/>
	<path class="st2" d="M376.3,260.5c-4.8,2.8-11.9,6.8-17.1,8.6c-1,0.3-1.9,0.6-2.7,0.7c-8.2,1.6-11.5,2.8-12.7-1.6
		c-1.2-4.4-6.3,0.6-4.8,2.8c1.5,2.2,3.7,4.4,2.6,5.7c-1,1.4-3.1,0.9-1.5,3c1.9,2.5,4.1,4,5.9,4.1c1.3,0.1,2.3-0.6,2.9-2.2
		c0.2-0.7,0.4-1.4,0.4-2c0.3-2.5-0.5-4,1.8-5.7c0.7-0.5,2.4-1.1,4.7-1.7c6.2-1.8,16.7-4.4,23.5-9.4c-0.2-1.3-0.5-2.6-0.8-3.7
		C377.8,259.6,377.1,260,376.3,260.5z"/>
	<path class="st16" d="M379.6,265.1c-5.7,2.6-17,7.8-18,8.8c-1.3,1.4-6.3-1.5-6.6,0.2c-0.3,1.7-6.2,7.5-4.7,9.7
		c1.5,2.2,4.3-0.8,10.4-6.6c4.2-4.1,13.4-7,18.6-8.3C379.6,267.7,379.7,266.4,379.6,265.1z"/>
	<path class="st11" d="M393,263.7l5.5-5.2l16.6-15.6l0,0c0,0-10.6,5.9-19.7,9.3c-3.2,1.2-6.2,2-8.5,2.2
		C389.3,256.4,391.4,259.8,393,263.7z"/>
	<path class="st5" d="M526.5,355.7c1.9-1.1-3.1-3.4-9.9-6.4c-5.1-2.3-11.2-4.9-15.9-7.6c-2,0.1-4.2,0.1-6.5,0
		c1.6,1.8,3.3,4.7,4.9,8.1c7.1,2.3,15.4,4.5,21.1,5.5C523.4,355.9,525.8,356.1,526.5,355.7z"/>
	<path class="st7" d="M476.2,339.9c-3.1-0.5-6.1-1.2-9-1.9c1.6,1.6,2.8,2.7,3.6,3C473.2,342.1,474,340.8,476.2,339.9z"/>
	<path class="st7" d="M499.9,351.5c-0.3-0.6-0.5-1.1-0.8-1.7c-1.6-3.4-3.3-6.3-4.9-8.1c-4.1-0.1-8.5-0.5-13.1-1.1
		c0.7,1.5,0.5,4-0.6,6.7c-1,2.3-1.6,0.4-3.2,0.2c-1.6-0.2-2.4,2.5-3.5,4.8c-1.1,2.3-7.5,0.4-4.5-2.6c3-3,0.5-5.2-4.6-11.1
		c-0.5-0.6-1.1-1.2-1.8-1.8c-3.6-1.1-6.8-2.3-9.5-3.8c7,8.3,16.2,19.6,19.6,27.3c1.6,3.6,2.5,7.7,2.9,11.7
		c9.6,5.1,24.2,6.8,28.2,3.3c0.4-0.4,0.7-0.9,0.9-1.6l0-0.1C502,362.2,499.9,351.6,499.9,351.5z"/>
	<path class="st13" d="M460.5,319.6c-1.7,0.3-3.6-0.1-6.9,0.7l0,0c3.5,3.6,10.1,9.7,15.4,11.3c7.6,2.2,11.3,3.1,10.2,5.4
		c-1.1,2.3-8.6,0.1-10.1,0.7c-1.5,0.5-1.5-4.8-3.2-5.3c-1.3-0.3-10.8-7.1-15.5-10.6c-0.6,0.4-1.1,0.8-1.7,1.3
		c7.3,3.2,14.3,10.5,18.6,14.8c2.9,0.7,6,1.4,9,1.9c0.5-0.2,1.1-0.4,1.8-0.6c1.6-0.3,2.6,0.2,3.1,1.3c4.5,0.6,9,1,13.1,1.1
		c2.3,0.1,4.5,0.1,6.5,0c1.9-0.1,3.7-0.3,5.2-0.5c0.5-0.1,0.9-0.2,1.3-0.2c9.6-1.8,12.5-5,13.3-9.6l0-0.2c1.9-11.7-16.1-18.8-31-20
		c-0.9,0.8-1.8,1.7-2.9,2.5C479.5,320.2,468.6,320.6,460.5,319.6z"/>
	<path class="st13" d="M453.5,333c2.7,1.4,6,2.7,9.5,3.8c-3.9-3.5-10.4-7.5-14.9-10C449.6,328.4,451.4,330.6,453.5,333z"/>
	<path class="st14" d="M473.3,307c-0.8,5.8-3.9,1.7-8,8.2c-2,3.2-3.3,4.1-4.9,4.4c8.1,0.9,19,0.6,26.3-5.8c1-0.9,2-1.7,2.9-2.5
		c1.4-1.2,2.7-2.4,3.8-3.5c2.2-2.1,3.9-3.9,5.2-5.5c3.5-4.1,4.5-6.8,3.8-9.3c-1.9-6.4-22.5-8.7-38.7,2.4c-3.2,2.2-5.7,4.4-7.6,6.5
		C464.4,299.7,474.1,301.2,473.3,307z"/>
	<path class="st14" d="M453.5,333c-2-2.4-3.9-4.6-5.4-6.3c-0.8-0.4-1.5-0.8-2.1-1.2c-0.6,0.6-1.2,1.1-1.8,1.5
		c3.5,6.3,7.6,17.9,1.1,30.7c-0.7,1.3-1.3,2.5-1.8,3.6c0,0.7-0.1,1.3-0.1,2c-1.4,21.5,22.6,30.2,26.6,29.6c4.4-0.6,7-10.7,6-21
		c-0.4-4.1-1.3-8.2-2.9-11.7C469.6,352.6,460.5,341.3,453.5,333z"/>
	<path class="st2" d="M478,339.3c-0.7,0.1-1.3,0.3-1.8,0.6c-2.2,0.9-3,2.3-5.5,1.1c-0.8-0.3-2-1.5-3.6-3
		c-4.3-4.2-11.3-11.6-18.6-14.8c-0.9,0.8-1.8,1.6-2.7,2.4c0.6,0.3,1.3,0.7,2.1,1.2c4.5,2.6,11,6.5,14.9,10c0.7,0.6,1.3,1.2,1.8,1.8
		c5.1,5.9,7.6,8.1,4.6,11.1c-3,3,3.4,4.9,4.5,2.6c1.1-2.3,1.9-5,3.5-4.8c1.6,0.2,2.2,2.1,3.2-0.2c1.2-2.7,1.4-5.2,0.6-6.7
		C480.7,339.6,479.6,339,478,339.3z"/>
	<path class="st16" d="M469,337.7c1.5-0.5,9,1.6,10.1-0.7c1.1-2.3-2.6-3.2-10.2-5.4c-5.3-1.5-11.9-7.7-15.4-11.3
		c-1.2,0.3-2.3,0.8-3.3,1.5c4.7,3.4,14.2,10.2,15.5,10.6C467.6,332.9,467.5,338.3,469,337.7z"/>
	<path class="st15" d="M444.2,327c0.6-0.4,1.2-0.9,1.8-1.5c0.8-0.8,1.7-1.6,2.7-2.4c0.5-0.4,1.1-0.9,1.7-1.3c1-0.7,2.1-1.2,3.3-1.5
		l0,0c3.3-0.8,5.3-0.4,6.9-0.7c1.6-0.3,2.9-1.2,4.9-4.4c4.1-6.5,7.2-2.5,8-8.2c0.8-5.8-9-7.3-17.2-5.1c-2.9,0.8-5.6,2.1-7.6,3.8
		c-2.2,1.9-4.1,3.9-5.7,6c-2.4,3.1-4.1,6.3-4.6,9.2c-0.4,2.2-0.1,4.2,1.1,5.8c0.1,0.1,0.2,0.2,0.3,0.3c-1.1,2-2.9,4.5-5.5,7.4
		c-2.4,2.6-5.4,5.6-9.2,8.9c-13.1,11.4,6.1,28.9,9.1,30.9c2.9,1.9,1.8,2.7,9.5-12.9c0.6-1.1,1.2-2.3,1.8-3.6
		C451.7,344.9,447.6,333.3,444.2,327z"/>
	<path class="st3" d="M158,303c2.4,0.7,3.4,2.3,3.6,4.3c1.5-2.5,3.2-4.4,4.9-5.5c-0.9-4.4-2.4-9.2-4.9-10.4
		c-5.4-2.7-15.2,9.8-15,20.2C149.9,306.1,154.4,301.9,158,303z"/>
	<path class="st8" d="M173.6,301.8c1,0.7,1.9,1.7,2.7,2.9c1-3.4,2.5-6.5,4.1-8.9c-0.5-2.8-2.3-5-6-6.3c-4.7-1.6-8.3,4.9-7.7,12.2
		C169.1,300.3,171.5,300.2,173.6,301.8z"/>
	<path class="st3" d="M184.2,324.1c0-15.3-1.2-23.1,5.7-22.6c4.1,0.3,9.4,9.9,11.4,23.3c1.9-8.1-0.6-27.9-14.2-33.2
		c-2-0.8-4.5,1-6.6,4.2c-1.6,2.4-3.1,5.5-4.1,8.9C179.6,309.1,182.3,316.4,184.2,324.1z"/>
	<path class="st9" d="M155.7,332.9c-0.3-10.4,2.3-19.6,5.9-25.6c-0.2-2-1.2-3.6-3.6-4.3c-3.6-1.1-8,3.1-11.3,8.6
		c-3,5.2-4.9,11.7-4,16.4c2,9.7,14.4,30,17.9,40.4c2.6,7.6,2.6,13.8,4.4,16.1c1-2.2,2.1-4.3,3.1-6.3
		C166.2,368.2,156.2,350.1,155.7,332.9z"/>
	<path class="st10" d="M189.9,301.5c-6.8-0.5-5.6,7.3-5.7,22.6c2.1,8.1,3.4,16.5,3.8,21.8c0.5,6.1-3.6,18.5-7.6,28.8
		c0.1-0.1,22.7-31.8,21.2-46.8c-0.1-1.1-0.2-2.1-0.4-3.2C199.3,311.4,194,301.8,189.9,301.5z"/>
	<path class="st4" d="M161.6,307.3c-3.6,5.9-6.2,15.2-5.9,25.6c0.5,17.2,10.4,35.4,12.5,45.4c0.3-0.6,0.6-1.2,0.9-1.8
		c4.9-9.5,15.4-24.8,16.5-23c1.1,1.8-9.4,11.4-12.2,22.8c-1.1,4.3-1.6,9-2.2,13.4c0.7-0.2,1.3-0.2,1.8-0.1c0.4,0.1,0.8,0.3,1.2,0.5
		c1.2-2.8,3.8-8.7,6.3-15.4c4-10.4,8.1-22.8,7.6-28.8c-0.4-5.3-1.7-13.7-3.8-21.8c-2-7.6-4.6-15-7.9-19.4c-0.9-1.2-1.8-2.2-2.7-2.9
		c-2.2-1.6-4.5-1.5-6.8-0.1l-0.2,0.1C164.8,303,163.1,304.8,161.6,307.3z"/>
	<path class="st6" d="M187.5,386.4c3-8.7,6.9-17.9,11.4-24c0.5-0.7-0.3-1.6-1-1.2c-5.7,2.7-18,11-20.2,32.6c1.8,2.5,3.4,5.8,4.7,9.4
		C183.6,398.8,185.3,392.7,187.5,386.4z"/>
	<path class="st6" d="M171.2,389.7c0.6-4.4,1.2-9.1,2.2-13.4c2.8-11.4,13.3-21,12.2-22.8c-1.1-1.8-11.7,13.5-16.5,23
		c-0.3,0.6-0.6,1.2-0.9,1.8c-1,2-2.1,4.1-3.1,6.3c-2.5,5.2-4.9,10.9-6.4,16.2C163,395.3,167.9,390.6,171.2,389.7z"/>
	<path class="st5" d="M154,407.3c-2.8-11.3-7.4-25.2-9.5-26.4c-3.4-1.9,1.3,16.7,1.7,29.2c1.2,1.7,2.3,3.5,3.5,5.5
		C150.4,413.4,152,410.4,154,407.3z"/>
	<path class="st7" d="M161.4,436.1c-0.3-2.7-1.9-2.7-3.8-4.1c1.2,2.9,2.2,5.8,3.1,8.7C161.2,438.5,161.5,436.9,161.4,436.1z"/>
	<path class="st7" d="M177.7,393.8c-1.2-1.7-2.4-2.9-3.6-3.7c-0.4-0.2-0.8-0.4-1.2-0.5c-0.5-0.2-1.1-0.1-1.8,0.1
		c-3.2,1-8.1,5.7-12.5,11.1c-1.7,2.1-3.3,4.3-4.7,6.5c-2,3.1-3.6,6.1-4.3,8.4c2.1,3.5,4.1,7.5,5.9,11.7c0.9-1.4,3.1-2.5,6-3
		c2.5-0.4,1.2,1.1,1.8,2.6c0.7,1.5,3.4,0.7,5.9,0.4c2.5-0.3,4.3,6.2,0.2,5.2c-4.2-1-4.7,2.3-7,9.8c-0.2,0.7-0.4,1.6-0.6,2.5
		c0.9,3.6,1.6,7,1.8,10.1c3.3-10.3,8.1-24.1,12.9-31c2.2-3.2,5.2-6.2,8.4-8.7c-0.2-2.7-0.7-5.6-1.5-8.5c-0.3-1.2-0.7-2.4-1.1-3.6
		C181.1,399.6,179.5,396.3,177.7,393.8z"/>
	<path class="st13" d="M147.9,454.4c0.9,1,1.9,2.2,3.7,3.5c0.6,0.5,1.3,0.8,2,1.1c1.1-5,2.2-12,0.9-16.5c-2.1-7.6-3.3-11.2-0.8-11.5
		c2.5-0.3,4.7,7.2,5.9,8.2c1.3,1-3.3,3.8-2.8,5.5c0.3,1.1-0.1,9.1-0.5,15.2c0.3,0.1,0.6,0.2,0.9,0.2c0.2,0,0.3,0.1,0.5,0.1
		c0-7,1.9-14.6,3-19.5c-0.9-2.9-2-5.8-3.1-8.7c-0.5-0.3-0.9-0.7-1.4-1.3c-1.1-1.2-1.2-2.3-0.5-3.4c-1.9-4.2-3.9-8.2-5.9-11.7
		c-1.2-2-2.3-3.9-3.5-5.5c-1.1-1.6-2.2-3-3.2-4.2c-7.1-8.1-11.6-9.1-16-7.3c-11.1,4.5-7.7,23.6-0.8,36.9c1.2,0.3,2.4,0.7,3.7,1.1
		C138.5,439.4,144.3,447.3,147.9,454.4z"/>
	<path class="st13" d="M161.2,460.8c0.2,0,0.4,0.1,0.7,0.1c0.5-1.8,1.2-3.8,1.9-6c-0.2-3-0.9-6.5-1.8-10.1
		C161.1,449.4,161.1,455.8,161.2,460.8z"/>
	<path class="st14" d="M133.7,467.6c-7-5.4-11.6-13.9-6.5-17c3.6-2.2,4.2-0.4,6.8,0.6c0.3,0,0.5,0.1,0.8,0.2
		c1.1,0.3,2.5,0.4,4.5,0.2c4-0.5,5.6,0,6.9,1.1c0.5,0.5,1,1,1.6,1.7c-3.6-7-9.4-15-18-17.6c-1.3-0.4-2.5-0.8-3.7-1.1
		c-13.9-4-19.6-4.3-22.2-1.3c-4.5,5,4.4,23.7,22.4,31.6c3.4,1.5,6.4,2.4,9.2,3C134.3,468.2,133.7,467.6,133.7,467.6
		C133.7,467.6,133.7,467.6,133.7,467.6z"/>
	<path class="st14" d="M176.6,423.9c-4.7,6.9-9.5,20.7-12.9,31c-0.7,2.2-1.3,4.2-1.9,6c0.5,0.1,1,0.2,1.5,0.3
		c2.9-7.1,9.7-18.3,24.7-21.6c1.5-0.3,2.9-0.6,4.2-0.9c7.3-1.6,11.4-2.7,13.8-3.1c5-11.1,1.8-24.2,0-26.4c-2.8-3.4-12.7-0.3-21,6
		C181.8,417.8,178.8,420.7,176.6,423.9z"/>
	<path class="st2" d="M156.2,430.7c0.5,0.5,1,0.9,1.4,1.3c1.9,1.4,3.5,1.4,3.8,4.1c0.1,0.8-0.2,2.5-0.7,4.6
		c-1.1,4.9-3.1,12.6-3,19.5c0.8,0.2,1.6,0.3,2.4,0.4c0.4,0.1,0.7,0.1,1.1,0.2c-0.1-5-0.1-11.4,0.7-15.9c0.2-0.9,0.4-1.8,0.6-2.5
		c2.4-7.4,2.8-10.7,7-9.8c4.2,1,2.4-5.5-0.2-5.2c-2.5,0.3-5.2,1.1-5.9-0.4c-0.7-1.5,0.6-3-1.8-2.6c-2.9,0.4-5.1,1.6-6,3
		C155,428.4,155.1,429.6,156.2,430.7z"/>
	<path class="st16" d="M156.8,444.7c-0.6-1.7,4-4.5,2.8-5.5c-1.3-1-3.4-8.5-5.9-8.2c-2.5,0.3-1.3,3.9,0.8,11.5
		c1.3,4.5,0.2,11.6-0.9,16.5c0.9,0.4,1.8,0.7,2.7,0.9C156.7,453.9,157.1,445.8,156.8,444.7z"/>
	<path class="st12" d="M538.8,305.5c-1.7,2.6,18.7,8.3,22.6,7.8c5-0.7,20.8,3.2,24.8,0.4c0,0-9.5-6.1-25.8-8.5
		C555.2,306.2,546.9,306,538.8,305.5z"/>
	<path class="st6" d="M514.1,303.1c3.2,0.4,13.8,1.8,24.7,2.5c8.1,0.5,16.4,0.6,21.6-0.3c1.4-0.3,2.5-0.6,3.4-1
		c9.6-4.5,9.6-4.5,9.6-4.5s-9.7-8.1-28-6.2c-6.8,0.7-13.1,2.2-18.2,3.8c-8.5,2.6-14,5.6-14,5.6S513.5,303,514.1,303.1z"/>
	<path class="st5" d="M505.4,453.2c-8.2,3.3-12.2,5.1-14.2,5.6c-5.6,12.8-11.1,28.5-10,31.1c1.4,3.6,8-10.1,15.3-22.1
		c1-4.6,3.3-9.1,7.4-13.1C504.4,454.2,504.9,453.7,505.4,453.2z"/>
	<path class="st14" d="M533.5,426.4c-1.2,0-2.3,0-3.3-0.1c-1.7,7.5-6.6,19.6-20.8,25.3c-1.4,0.6-2.8,1.1-4,1.6c-0.5,0.5-1,1-1.5,1.5
		c-4.1,4-6.3,8.6-7.4,13.1c-2.7,12.1,3.3,24.4,6.6,28.3c0.4,0.5,0.8,0.9,1.1,1.1c0.6,0.4,1.4,0.6,2.3,0.6c0.6,0,1.2-0.1,1.9-0.3
		c2.4-0.7,5.3-2.4,8.3-5c2.5-2.2,5-4.9,7.2-7.9c2.6-3.5,4.7-7.5,6-11.4c2.7-8.5,3.5-24,3.7-35.6c0.1-3.4,0.1-6.4,0.1-8.8
		C533.5,427.9,533.5,427.1,533.5,426.4z"/>
	<path class="st15" d="M509.4,451.6c14.2-5.7,19.1-17.8,20.8-25.3c1,0.1,2.1,0.1,3.3,0.1c1,0,2,0,3,0c2.1,0.1,4.2,0.4,6,1.3
		c3.2,1.7,4.5,3.4,6,4.3c1.5,0.9,3.2,1.1,7-0.1c7.9-2.3,7.5,3.1,12.2-1c4.7-4.1-2-12.2-10.2-16.2c-1.6-0.8-3.2-1.4-4.9-1.8
		c-0.2,0.5-0.5,1-0.8,1.5c-0.4,0.7-2.1-0.2-4.5-2.1c-2.6,0-5.1,0.3-7.5,0.7c-4.1,0.8-7.7,2.2-10.2,4.1c-1.9,1.5-3.1,3.3-3.2,5.4
		c0,0.2,0,0.3,0,0.4c-2.3,0.8-5.5,1.5-9.6,2c-3.7,0.4-8.2,0.7-13.6,0.6c-18.5-0.2-15.6,27.3-14.6,31.1c0.5,1.8,0.4,2.7,2.5,2.1
		c2-0.5,6-2.3,14.2-5.6C506.6,452.7,507.9,452.2,509.4,451.6z"/>
	<path class="st12" d="M505.7,400.6c2,4.7,2.6,20.9,6.4,23.9c0,0,3.2-10.8,1.1-27c-2.5-4.6-5-12.4-7.2-20.3
		C504.1,380.7,504.3,397.5,505.7,400.6z"/>
	<path class="st12" d="M522.9,388.7c4.9,5.1,11.6,12,17.3,17.4c2.7,2.5,5.1,4.7,7.1,6.2c2.4,1.9,4.1,2.8,4.5,2.1
		c0.3-0.5,0.6-1,0.8-1.5c1.2-2.7,1.2-5.4,0.3-7.9c-3.4-9.9-19.1-18.5-24.1-23.2c-5.6-5.2-9-12.6-16.5-16.4c2.9,4.1,5.7,8.9,7.9,14.4
		C521.5,383,522.4,386,522.9,388.7z"/>
	<path class="st6" d="M528,405l0.2,0c1.4,0-1.4-7.4-5-15.1c0-0.2-0.1-0.4-0.1-0.5l0-0.2c0-0.2-0.1-0.3-0.1-0.5
		c-0.6-2.8-1.4-5.8-2.7-9c-2.2-5.5-5-10.3-7.9-14.4c-6.2-8.7-12.4-13.9-12.4-13.9l0,0c0,0.1,2.2,10.7,5.2,22.1l0,0.1l0.1,0
		c0.3,1.2,0.6,2.4,1,3.6c2.2,7.9,4.7,15.7,7.2,20.3c0.6,1.2,1.2,2.1,1.9,2.8c6.9,8,6.9,8,6.9,8s0.9-2,1.4-5.6
		c0.3-1.7,0.4-3.8,0.4-6.3C525.7,401.1,526.9,404.6,528,405z"/>
	<path class="st7" d="M166.5,465.1c0,0.1,0,0.3-0.1,0.4c-0.5,2-1.9,3.6-4,4.8c0,0,0.9,15.8,2.5,21l0,0c0.4-2.3,0.8-4.2,1.4-5.9
		c-3-8.1-1.7-16,10.1-20.8C172.2,464.5,168.9,464.6,166.5,465.1z"/>
	<path class="st15" d="M188.1,439.7c-15,3.3-21.8,14.5-24.7,21.6c-0.5-0.1-1-0.2-1.5-0.3c-0.2,0-0.4-0.1-0.7-0.1
		c-0.4-0.1-0.7-0.1-1.1-0.2c-0.8-0.1-1.6-0.2-2.4-0.4c-0.2,0-0.3-0.1-0.5-0.1c-0.3-0.1-0.6-0.1-0.9-0.2c-0.9-0.2-1.8-0.5-2.7-0.9
		c-0.7-0.3-1.4-0.7-2-1.1c-1.7-1.3-2.8-2.5-3.7-3.5c-0.6-0.7-1-1.2-1.6-1.7c-1.3-1.1-2.9-1.6-6.9-1.1c-2,0.2-3.4,0.1-4.5-0.2
		c-0.3-0.1-0.5-0.2-0.8-0.2c-2.7-1-3.2-2.9-6.8-0.6c-5.1,3.1-0.4,11.7,6.5,17c0,0,0,0,0,0s0.6,0.6,1.8,1.4c2,1.3,5.8,3.2,11.5,3.5
		c0.1,0,0.1,0,0.2,0c1.5,0.1,3,0.2,4.4,0.1c0.8,0,1.6-0.1,2.4-0.1c0.6-0.1,1.2-0.1,1.7-0.2c0.1,0,0.2,0,0.3-0.1
		c0.5-0.1,1-0.2,1.5-0.3c0.1,0,0.2,0,0.2,0c0.5-0.1,1-0.3,1.5-0.4c0.1,0,0.2-0.1,0.3-0.1c0.5-0.2,1-0.3,1.4-0.5l1.3-0.6
		c2.1-1.2,3.5-2.7,4-4.8c0-0.2,0.1-0.3,0.1-0.4c2.4-0.4,5.6-0.6,9.8-0.4c3.8,0.2,8.2,0.7,13.5,1.6c18.3,3.2,19.8-24.4,19.4-28.3
		c-0.2-1.9,0.1-2.7-2.2-2.5c-0.3,0-0.7,0.1-1.1,0.2c-2.3,0.4-6.5,1.4-13.8,3.1C191,439,189.6,439.3,188.1,439.7z"/>
	<path class="st12" d="M225.1,343.5c3.9-0.2,17.8-9.7,19.6-12.6c2.8-4.3,16-13.7,16.4-18.6c0,0-9.5,2.9-20.9,12.2
		c-0.7,0.6-1.4,1.2-2.1,1.8C235.6,330.9,230.5,337.3,225.1,343.5z"/>
	<path class="st12" d="M219.3,330.3c2-2.8,4-5.2,6-7.2c1.6-6.9,3.6-16.3,5-24c0.6-3.6,1.1-6.8,1.3-9.3c0-0.4,0-0.7,0.1-1
		c0.1-2.4-0.1-3.9-0.8-3.9c-0.1,0-0.2,0-0.4,0c0,0-0.1,0-0.1,0c-0.4,0-0.8,0.1-1.2,0.1c-2.9,0.5-5.1,2-6.8,4.2
		c-6.3,8.3-4.9,26.1-6,32.9c-0.5,2.9-1.4,5.8-2.4,8.7c-0.1,1.8-0.2,5.6-0.6,10.4C214.9,337.6,216.9,333.9,219.3,330.3z"/>
	<path class="st6" d="M239.4,323.2c2.8-10.2,2.8-10.2,2.8-10.2s-0.9,0.2-2.3,0.6c-0.9,0.3-1.9,0.7-3.1,1.3c-0.5,0.2-1.1,0.5-1.7,0.9
		c-1.2,0.6-2.4,1.4-3.7,2.3c2.7-4.1,5-7,4.8-8.1l-0.1-0.2c-0.8-1.1-5.4,5.2-9.8,12.5c-0.1,0.1-0.3,0.3-0.4,0.4l-0.2,0.2
		c-0.1,0.1-0.2,0.2-0.4,0.4c-2,2-4,4.4-6,7.2c-2.5,3.6-4.4,7.3-6,10.8c-0.5,5.4-1.2,11.9-2.6,18c3-3.1,7.4-7.7,11.9-12.7l0.1,0
		l0-0.1c0.8-0.9,1.6-1.8,2.4-2.8c5.4-6.2,10.5-12.6,12.9-17.2C238.7,325.2,239.1,324.1,239.4,323.2z"/>
	<path class="st5" d="M213.9,330.8c0-0.7,0-1.2,0-1.2c0.3-12.3-0.6-21.7-2.3-19c-2.3,3.7-3.8,10.2-4.8,17.3l0,0c0,0.5-0.1,1-0.2,1.5
		c-0.1,0.9-0.2,1.8-0.3,2.7c-1.8,14.2-6.4,36.2-6.5,36.8c-3.6,5.8-8.2,12.1-12.3,17.5c-2.2,6.3-3.9,12.4-5.1,16.9
		c0.4,1.2,0.8,2.4,1.1,3.6c3.8-5.1,16.6-22.5,23.2-35.5l0,0c0,0,0,0,0,0c0.2-0.5,0.5-1,0.7-1.4c0,0,0,0,0,0
		c1.4-3.1,2.5-6.8,3.3-10.7c1.3-6.1,2.1-12.6,2.6-18C213.7,336.4,213.8,332.6,213.9,330.8z"/>
	<path class="st11" d="M162.4,470.3l-1.3,0.6c-0.5,0.2-0.9,0.4-1.4,0.5c-0.1,0-0.2,0.1-0.3,0.1c-0.5,0.2-1,0.3-1.5,0.4
		c-0.1,0-0.2,0-0.2,0c-0.5,0.1-1,0.2-1.5,0.3c-0.1,0-0.2,0-0.3,0.1c-0.6,0.1-1.1,0.2-1.7,0.2c0,0-0.1,0-0.1,0
		c-1.1,0.1-1.7,1.2-1.2,2.2l2.2,4.4l6.9,14.2l0.1,0.3c0.7,1.4,2.8,1,2.9-0.6l0.1-1.7l0,0C163.3,486,162.4,470.3,162.4,470.3z"/>
</g>
<g>
</g>
<g>
</g>
<g>
</g>
<g>
</g>
<g>
</g>
<g>
</g>
</svg>
