<?xml version="1.0" encoding="utf-8"?>
<!-- Generator: Adobe Illustrator 25.0.0, SVG Export Plug-In . SVG Version: 6.00 Build 0)  -->
<svg version="1.1" id="Layer_1" xmlns="http://www.w3.org/2000/svg" xmlns:xlink="http://www.w3.org/1999/xlink" x="0px" y="0px"
	 viewBox="0 0 714 714" style="enable-background:new 0 0 714 714;" xml:space="preserve">
<style type="text/css">
	.st0{fill:#F3E600;}
	.st1{fill:#F1873A;}
	.st2{fill:#C1282E;}
	.st3{fill:#291818;}
	.st4{fill:#FEE4C6;}
	.st5{fill:#FBC382;}
	.st6{fill:#FEF2E4;}
	.st7{fill:#EE777B;}
	.st8{fill:#EA555A;}
	.st9{fill:#FCE5E6;}
	.st10{fill:#E18FBC;}
	.st11{fill:#DA5C9D;}
	.st12{fill:#FBDDEC;}
	.st13{fill:#C782B7;}
	.st14{fill:#E0C0DD;}
	.st15{fill:#432258;}
	.st16{fill:#FBD2B3;}
	.st17{fill:#FCFCFC;}
	.st18{fill:#561415;}
	.st19{fill:#E09CC5;}
	.st20{fill:#F1D0E5;}
	.st21{fill:#D4155B;}
	.st22{fill:#FCE7F2;}
	.st23{fill:#ECB6D5;}
	.st24{fill:#CBE9F7;}
	.st25{fill:#6EC6D9;}
	.st26{fill:#0871B8;}
	.st27{fill:#2F358B;}
	.st28{fill:#A1D9F7;}
	.st29{fill:#D24F97;}
	.st30{fill:#F39322;}
	.st31{fill:#47AE4C;}
	.st32{fill:#F2979D;}
	.st33{fill:#F9B03D;}
	.st34{fill:#EB5B27;}
	.st35{fill:#FFDB4A;}
</style>
<g>
	<path class="st13" d="M363.2714844,191.1259766c0.109375,0,0.2158203,0.0004883,0.3251953,0.0009766
		c9.9912109,0.0371094,20.0244141,1.7939453,30.0634766,5.2412109c0.7695312-27.1381836-4.2324219-51.140625-16.4746094-70.7646484
		c-4.6660156-0.8398438-9.3339844-1.2626953-14.0009766-1.2626953c-4.7099609,0-9.4189453,0.4355469-14.1269531,1.2915039
		c-12.2373047,19.6411133-17.2441406,43.6616211-16.4775391,70.8203125
		C342.8388672,192.9082031,353.0820312,191.1259766,363.2714844,191.1259766z"/>
	<path class="st14" d="M423.5947266,357.1689453c-4.6416016-6.6865234-11.7333984-13.4848633-17.6103516-11.2680664
		c-3.9755859,1.5-7.6630859,4.8647461-10.8828125,9.4868164l15.984375,28.9038086
		C415.5263672,375.1083984,419.7001953,366.0644531,423.5947266,357.1689453z"/>
	<path class="st14" d="M301.6787109,440.9594727c1.5761719,0.2700195,3.1982422,0.3618164,4.8603516,0.2353516
		c2.9033203-0.2207031,5.4560547-1.0981445,7.7158203-2.4584961l-5.6328125-9.7714844
		C306.3388672,432.9619141,304.0175781,436.9609375,301.6787109,440.9594727z"/>
	<path class="st14" d="M297.8349609,458.4204102c-2.1074219-0.1020508-4.1279297-0.3657227-6.0644531-0.769043
		C267.25,498.3066406,240.2539062,538.6928711,213.0878906,576.8569336l64.0839844-21.6401367l3.2275391,47.1694336
		c24.03125-35.5014648,46.9365234-70.597168,67.8222656-104.7285156l-26.6025391-46.1464844
		C315.3300781,456.2094727,307.4882812,458.887207,297.8349609,458.4204102z"/>
	<path class="st13" d="M337.7021484,428.4326172c-3.484375,9.2915039-8.7138672,17.574707-16.0830078,23.0786133
		l26.6025391,46.1464844c4.9619141-8.097168,9.7880859-16.1367188,14.4970703-24.1176758c0-0.3442383,0-0.6884766,0-1.0327148
		C353.9130859,457.5834961,345.5537109,442.8789062,337.7021484,428.4326172z"/>
	<path class="st13" d="M318.7841797,410.8310547c3.1240234,0.5356445,6.2988281,0.9052734,9.4726562,1.0678711
		c0.0517578-0.3046875,0.0976562-0.6098633,0.1464844-0.9145508c-1.5976562-3.0625-3.1757812-6.1152344-4.7216797-9.1513672
		C322.0703125,404.8291016,320.4335938,407.8291016,318.7841797,410.8310547z"/>
	<path class="st13" d="M308.6220703,428.9648438l5.6328125,9.7714844
		c5.7617188-3.4697266,9.5537109-10.1855469,11.9238281-17.9316406c-4.0908203-0.1113281-8.1699219-0.5791016-12.1650391-1.375
		C312.2333984,422.605957,310.4404297,425.7841797,308.6220703,428.9648438z"/>
	<path class="st13" d="M411.0859375,384.2915039l-15.984375-28.9038086
		c-3.1816406,4.5673828-5.9033203,10.3652344-7.9951172,16.8105469c4.8623047,9.7998047,9.9707031,19.6650391,15.2900391,29.5683594
		C405.3964844,395.8925781,408.296875,390.0644531,411.0859375,384.2915039z"/>
	<path class="st13" d="M363.0820312,319.2412109c2.3359375,5.7363281,4.7851562,11.5166016,7.3388672,17.3339844
		c4.7744141-2.4580078,10.2919922-1.878418,10.9853516,5.0556641c0.6835938,6.8442383,0.8808594,13.7807617,0.8955078,20.7358398
		c0.0634766,0.1318359,0.1269531,0.2636719,0.1904297,0.3955078c0.4511719-1.0756836,0.9082031-2.1445312,1.3925781-3.1879883
		c1.8457031-3.980957,4.3046875-7.8852539,7.234375-11.3881836l-23.0224609-41.6313477
		C366.4941406,310.7573242,364.8154297,314.9887695,363.0820312,319.2412109z"/>
	<path class="st14" d="M381.9628906,444.6108398c0.0029297,15.9516602,0.0078125,31.9033203,0.0107422,47.8544922
		c0.0009766,3.9731445,0.0019531,7.9462891,0.0029297,11.9194336c19.7626953,32.0083008,41.2285156,64.8208008,63.6875,98
		l3.2226562-47.1621094l64.0791016,21.6386719c-28.5693359-40.137207-56.9423828-82.7363281-82.4423828-125.5224609
		c-6.0888672,5.0664062-13.3496094,8.3359375-21.7705078,8.609375
		C397.6230469,460.309082,387.8466797,453.652832,381.9628906,444.6108398z"/>
	<path class="st14" d="M327.0351562,351.4433594c11.1513672,10.4316406,15.8183594,25.6083984,16.3193359,40.5239258
		c0.2011719,5.9916992-0.1582031,12.5415039-1.1845703,19.1186523c7.5986328-1.402832,14.2617188-4.6542969,20.5634766-8.7719727
		c0-2.3242188,0.0009766-4.6489258,0.0009766-6.9731445c0.0039062-16.3764648-1.0117188-33.1455078,0.5449219-49.4536133
		c0.3710938-3.8896484,3.5458984-7.4609375,7.1416016-9.3120117c-2.5537109-5.8173828-5.0029297-11.5976562-7.3388672-17.3339844
		c-17.7675781-43.637207-29.0068359-84.7553711-30.4228516-120.5551758
		c20.3242188-7.0546875,40.6640625-7.0795898,60.9423828-0.0791016
		c-1.2861328,32.3300781-10.6005859,69.0024414-25.5048828,107.9477539l23.0224609,41.6313477
		c9.1367188-10.9248047,22.875-17.9150391,37.0664062-10.902832c1.0605469,0.5239258,2.0683594,1.1054688,3.0527344,1.7128906
		c28.2382812-70.1831055,36.9179688-129.8994141,14.2353516-171.8935547
		c-0.6865234-0.7944336-1.3867188-1.5898438-2.0927734-2.3852539c-1.4316406-2.565918-3.2451172-4.9291992-5.4003906-6.9868164
		c-4.6289062-4.4189453-9.2753906-8.4057617-13.9316406-12.0087891c-12.0097656-10.0922852-25.375-18.0932617-38.9707031-20.5029297
		c-4.2773438-1.1904297-8.5507812-2.0410156-12.8134766-2.5263672c-9.7070312-1.1049805-19.4814453-0.3725586-29.2646484,2.1469727
		c-22.7001953,3.3842773-52.3037109,26.7641602-62.4150391,42.2592773
		c-22.9560547,42.5087891-13.7744141,103.1826172,15.2841797,174.4731445
		C306.9648438,339.6987305,318.8984375,343.831543,327.0351562,351.4433594z M349.0576172,125.6323242
		c4.7080078-0.855957,9.4169922-1.2915039,14.1269531-1.2915039c4.6669922,0,9.3349609,0.4228516,14.0009766,1.2626953
		c12.2421875,19.6240234,17.2441406,43.6264648,16.4746094,70.7646484
		c-10.0390625-3.4472656-20.0722656-5.2041016-30.0634766-5.2412109c-0.109375-0.0004883-0.2158203-0.0009766-0.3251953-0.0009766
		c-10.1894531,0-20.4326172,1.7822266-30.6914062,5.3266602
		C331.8134766,169.2939453,336.8203125,145.2734375,349.0576172,125.6323242z"/>
	<path class="st14" d="M419.9980469,433.375c-6.0791016-10.5556641-11.9589844-21.1030273-17.6015625-31.6083984
		c-5.3193359-9.9033203-10.4277344-19.7685547-15.2900391-29.5683594
		c-6.3154297,19.4599609-6.8681641,44.8212891,3.1542969,60.0664062
		C395.8808594,440.8154297,409.4990234,444.1044922,419.9980469,433.375z"/>
	<path class="st14" d="M362.7246094,446.1640625c0.0019531-11.5957031,0.0039062-23.1904297,0.0068359-34.784668
		c-6.6933594,4.2143555-14.3447266,7.0087891-22.3310547,8.4057617c-0.7451172,2.9423828-1.6445312,5.8388672-2.6982422,8.6474609
		c7.8515625,14.4462891,16.2109375,29.1508789,25.0166016,44.074707
		C362.7207031,463.7260742,362.7226562,454.9453125,362.7246094,446.1640625z"/>
	<path class="st14" d="M328.4033203,410.984375c1.5439453-9.6420898,1.4658203-19.418457,0.6757812-25.6733398
		c-1.3642578-10.8139648-5.640625-21.6914062-14.6259766-28.3959961c-4.2695312-3.1850586-9.3339844-5.0107422-14.3681641-5.2338867
		c6.9384766,16.2285156,14.8486328,32.9731445,23.5966797,50.1518555
		C325.2275391,404.8691406,326.8056641,407.921875,328.4033203,410.984375z"/>
	<path class="st14" d="M382.3076172,363.184082c0.0595703-0.1425781,0.125-0.2797852,0.1845703-0.421875
		c-0.0634766-0.1318359-0.1269531-0.2636719-0.1904297-0.3955078
		C382.3017578,362.6396484,382.3076172,362.9116211,382.3076172,363.184082z"/>
	<path class="st15" d="M143.3691406,401.3793945c0.0498047,10.605957,0.1367188,21.2133789,0.2089844,31.8193359
		c0.0673828,9.8417969-2.0214844,22.7973633,3.1914062,31.4770508c2.9580078,4.925293,10.9052734,0.6674805,12.6542969-3.0639648
		c4.375-9.3378906,2.6738281-21.1240234,2.6230469-31.2329102c-0.0566406-11.1142578-0.0976562-22.2299805-0.1796875-33.3442383
		c-0.1630859-22.2163086-0.3457031-44.4326172-0.5166016-66.6503906c-0.0078125-1.0649414-0.0136719-2.1298828-0.0205078-3.1928711
		c11.2871094,0.4760742,22.5810547,0.7827148,33.8769531,1.1132812c11.9648438,0.3549805,24.7568359,1.7685547,36.9150391,0.5595703
		c0.0078125,1.3710938,0.0166016,2.7441406,0.0224609,4.1152344c0.0927734,22.2363281,0.171875,44.4707031,0.2783203,66.7070312
		c0.0498047,10.605957,0.1357422,21.2133789,0.2089844,31.8193359c0.0664062,9.840332-2.0224609,22.7973633,3.1914062,31.4770508
		c2.9580078,4.925293,10.9052734,0.6674805,12.6542969-3.0639648c4.3740234-9.3378906,2.6738281-21.1240234,2.6220703-31.2329102
		c-0.0556641-11.1142578-0.0966797-22.2299805-0.1787109-33.3442383
		c-0.1640625-22.2163086-0.3457031-44.434082-0.5175781-66.6503906c-0.34375-44.2294922,0.4482422-88.703125-3.1259766-132.8095703
		c-0.7294922-9.0058594-13.1347656-3.7333984-13.5947266,3.1914062
		c-2.6357422,39.6196289-1.9443359,79.4560547-1.6298828,119.1787109
		c-11.3525391-1.1435547-23.4677734,0.1005859-34.4443359,0.1987305c-12.1113281,0.109375-24.21875,0.1870117-36.3232422,0.4702148
		c-0.1728516-40.4443359,0.2050781-81.046875-3.0615234-121.3447266
		c-0.7294922-9.0058594-13.1347656-3.7329102-13.5957031,3.1914062
		c-2.9619141,44.5175781-1.7216797,89.3085938-1.5361328,133.9047852
		C143.1835938,356.9086914,143.2626953,379.1445312,143.3691406,401.3793945z"/>
	<path class="st15" d="M291.7705078,457.6513672c1.9365234,0.4033203,3.9570312,0.6669922,6.0644531,0.769043
		c9.6533203,0.4667969,17.4951172-2.2109375,23.7841797-6.9091797c7.3691406-5.5039062,12.5986328-13.7871094,16.0830078-23.0786133
		c1.0537109-2.8085938,1.953125-5.7050781,2.6982422-8.6474609c7.9863281-1.3969727,15.6376953-4.1914062,22.3310547-8.4057617
		c-0.0029297,11.5942383-0.0048828,23.1889648-0.0068359,34.784668c-0.0019531,8.78125-0.0039062,17.5620117-0.0058594,26.3432617
		c0,0.3442383,0,0.6884766,0,1.0327148c-0.0019531,7.3173828-0.0039062,14.6342773-0.0048828,21.9516602
		c-0.0019531,7.9726562-0.0029297,15.9438477-0.0048828,23.9169922c-0.0009766,8.3154297-1.2177734,17.6791992,1.2275391,25.7021484
		c2.7744141,9.1025391,15.2744141,2.1323242,16.9296875-4.003418c2.1201172-7.8603516,1.1152344-16.6459961,1.1132812-24.7280273
		c-0.0009766-3.9980469-0.0019531-7.996582-0.0029297-11.9946289c-0.0009766-3.9731445-0.0019531-7.9462891-0.0029297-11.9194336
		c-0.0029297-15.9511719-0.0078125-31.902832-0.0107422-47.8544922
		c5.8837891,9.0419922,15.6601562,15.6982422,26.7900391,15.3374023c8.4208984-0.2734375,15.6816406-3.5429688,21.7705078-8.609375
		c13.4833984-11.21875,21.2216797-31.2573242,23.0683594-47.1591797
		c2.546875-21.9462891-1.7167969-52.4458008-22.3535156-65.1835938c-0.984375-0.6074219-1.9921875-1.1889648-3.0527344-1.7128906
		c-14.1914062-7.012207-27.9296875-0.0219727-37.0664062,10.902832c-2.9296875,3.5029297-5.3886719,7.4072266-7.234375,11.3881836
		c-0.484375,1.043457-0.9414062,2.1123047-1.3925781,3.1879883c-0.0595703,0.1420898-0.125,0.2792969-0.1845703,0.421875
		c0-0.2724609-0.0058594-0.5444336-0.0058594-0.8173828c-0.0146484-6.9550781-0.2119141-13.8916016-0.8955078-20.7358398
		c-0.6933594-6.934082-6.2109375-7.5136719-10.9853516-5.0556641c-3.5957031,1.8510742-6.7705078,5.4223633-7.1416016,9.3120117
		c-1.5566406,16.3081055-0.5410156,33.0771484-0.5449219,49.4536133c0,2.3242188-0.0009766,4.6489258-0.0009766,6.9731445
		c-6.3017578,4.1176758-12.9648438,7.3691406-20.5634766,8.7719727c1.0263672-6.5771484,1.3857422-13.1269531,1.1845703-19.1186523
		c-0.5009766-14.9155273-5.1679688-30.0922852-16.3193359-40.5239258
		c-8.1367188-7.6118164-20.0703125-11.7446289-31.1660156-9.871582c-2.4980469,0.421875-4.9541016,1.1455078-7.3144531,2.2055664
		c-11.3212891,5.0844727-17.5712891,16.7661133-18.4121094,28.8007812
		c-0.1699219,2.4243164-0.0634766,4.8164062,0.2705078,7.1630859c-2.3574219,0.9873047-4.4736328,2.6103516-5.4003906,4.4248047
		C252.0751953,409.5209961,261.3955078,451.3188477,291.7705078,457.6513672z M387.1064453,372.1982422
		c2.0917969-6.4453125,4.8134766-12.2431641,7.9951172-16.8105469c3.2197266-4.6220703,6.9072266-7.9868164,10.8828125-9.4868164
		c5.8769531-2.2167969,12.96875,4.581543,17.6103516,11.2680664c2.1269531,3.0639648,3.7412109,6.1044922,4.4863281,8.2436523
		c6.4794922,18.5952148,7.7177734,48.1899414-5.9570312,65.5400391c-0.6914062,0.8774414-1.4013672,1.6816406-2.1259766,2.4223633
		c-10.4990234,10.7294922-24.1171875,7.4404297-29.7373047-1.1103516
		C380.2382812,417.0195312,380.7910156,391.6582031,387.1064453,372.1982422z M314.2548828,438.7363281
		c-2.2597656,1.3603516-4.8125,2.237793-7.7158203,2.4584961c-1.6621094,0.1264648-3.2841797,0.034668-4.8603516-0.2353516
		c-9.3212891-1.5952148-16.9384766-9.612793-20.390625-18.1040039c-3.3027344-8.1230469-3.0615234-15.90625-2.3515625-23.8452148
		c2.2216797,2.8500977,4.7587891,5.4619141,7.5224609,7.7480469c7.7451172,6.4077148,17.3671875,10.6411133,27.5546875,12.6713867
		c3.9951172,0.7958984,8.0742188,1.2636719,12.1650391,1.375
		C323.8085938,428.5507812,320.0166016,435.2666016,314.2548828,438.7363281z M283.5087891,358.3618164
		c4.5244141-4.8955078,10.5283203-6.9487305,16.5761719-6.6806641c5.0341797,0.2231445,10.0986328,2.0488281,14.3681641,5.2338867
		c8.9853516,6.7045898,13.2617188,17.5820312,14.6259766,28.3959961c0.7900391,6.2548828,0.8681641,16.03125-0.6757812,25.6733398
		c-0.0488281,0.3046875-0.0947266,0.6098633-0.1464844,0.9145508c-3.1738281-0.1625977-6.3486328-0.5322266-9.4726562-1.0678711
		c-3.015625-0.5166016-5.9853516-1.1879883-8.859375-1.9853516c-10.7685547-2.9882812-20.8994141-8.5766602-27.1367188-18.1147461
		c-1.0830078-1.6567383-2.0058594-3.4174805-2.7734375-5.2333984c0.0136719-0.4155273,0.0332031-0.8295898,0.0410156-1.2485352
		c0.0380859-2.2358398-0.6962891-3.6860352-1.859375-4.5336914
		C276.6230469,372.2216797,277.9599609,364.3642578,283.5087891,358.3618164z"/>
	<path class="st15" d="M497.2314453,460.3105469c28.7392578,1.6625977,50.8310547-45.8950195,52.2402344-57.2036133
		c0.4580078-3.6826172-4.7207031-4.7915039-6.0478516-1.5908203c-6.2587891,15.0898438-23.2548828,44.0820312-40.1923828,43.0825195
		c-15.3554688-0.9072266-20.6425781-22.6196289-21.4931641-34.6015625c-0.2519531-3.5527344-0.3945312-7.293457-0.375-11.1083984
		c10.2177734,3.4995117,26.7597656-6.2919922,32.9306641-13.6821289
		c10.9472656-13.1137695,18.7412109-36.8120117,1.8457031-46.4853516
		c-9.4775391-5.4257812-21.6425781-3.2216797-29.921875,3.0869141
		c-20.2978516,15.4707031-24.390625,44.4799805-23.5205078,68.3129883
		C463.4384766,430.4414062,472.4394531,458.8754883,497.2314453,460.3105469z M489.7880859,361.9008789
		c3.0419922-4.9873047,7.8076172-10.1523438,14.1162109-9.9111328c4.8798828,0.1865234,12.2353516,4.934082,11.4970703,13.5200195
		c-0.4433594,5.1376953-3.1142578,10.0566406-6.0273438,14.2661133
		c-6.7802734,9.8022461-16.3632812,14.2270508-27.8720703,13.9082031
		C482.0390625,382.4516602,484.25,370.9780273,489.7880859,361.9008789z"/>
	<path class="st15" d="M548.5,323.5c-0.9667969,7.2553711-5.1523438,11.7167969-13,13
		c7.4677734,0.7338867,11.9238281,4.9267578,13,13c0.7900391-7.4794922,5.1005859-11.8330078,13-13
		C554.5273438,335.1420898,550.0761719,330.9418945,548.5,323.5z"/>
	<path class="st15" d="M564.5,326.3198242c0.9970703-9.4414062,6.4384766-14.9365234,16.4101562-16.409668
		C572.109375,308.1958008,566.4902344,302.894043,564.5,293.5c-1.2197266,9.1586914-6.5039062,14.7900391-16.4101562,16.4101562
		C557.5166016,310.8364258,563.140625,316.1289062,564.5,326.3198242z"/>
	<path class="st15" d="M529.5,323.3198242c1.453125-13.7563477,9.3808594-21.7631836,23.9101562-23.909668
		C540.5859375,296.9121094,532.3994141,289.1875,529.5,275.5c-1.7773438,13.3442383-9.4765625,21.5498047-23.9101562,23.9101562
		C519.3242188,300.7597656,527.5195312,308.4711914,529.5,323.3198242z"/>
</g>
</svg>
