<?xml version="1.0" encoding="utf-8"?>
<!-- Generator: Adobe Illustrator 27.0.1, SVG Export Plug-In . SVG Version: 6.00 Build 0)  -->
<svg version="1.1" id="Layer_1" xmlns="http://www.w3.org/2000/svg" xmlns:xlink="http://www.w3.org/1999/xlink" x="0px" y="0px"
	 viewBox="0 0 714 714" style="enable-background:new 0 0 714 714;" xml:space="preserve">
<style type="text/css">
	.st0{fill:#BE304B;}
	.st1{fill:#95314E;}
	.st2{fill:#9F8254;}
	.st3{fill:#DEB475;}
	.st4{fill:#FCC396;}
	.st5{fill:#B3595F;}
	.st6{fill:#D65058;}
	.st7{fill:#EE2C3F;}
	.st8{fill:#BD8B3E;}
	.st9{fill:#FCB853;}
	.st10{fill:#F7934E;}
	.st11{fill:#641826;}
	.st12{fill:#F89E60;}
	.st13{fill:#615C9B;}
	.st14{fill:#9B77AD;}
	.st15{fill:#AF8CB8;}
	.st16{fill:#E19B31;}
	.st17{fill:#F2A634;}
	.st18{fill:#FEC155;}
	.st19{fill:#EDA44E;}
	.st20{fill:#ED1A3E;}
	.st21{fill:#BC102F;}
	.st22{fill:#9F0624;}
	.st23{fill:#F16470;}
	.st24{fill:#FBB040;}
	.st25{fill:#D1D3D4;}
	.st26{fill:#E6E7E8;}
	.st27{fill:#414042;}
	.st28{fill:#F78F3D;}
	.st29{fill:#F1F2F2;}
	.st30{fill:#BECAD1;}
	.st31{fill:#A682AD;}
	.st32{fill:#F37886;}
	.st33{fill:#F4898D;}
	.st34{fill:#4CC9F5;}
	.st35{fill:#D4D2D1;}
	.st36{fill:#E8E7E6;}
	.st37{fill:#424241;}
	.st38{fill:#75CAC1;}
	.st39{fill:#F2F1F1;}
	.st40{fill:#D1C2BE;}
	.st41{fill:#ADAA82;}
	.st42{fill:#A8D272;}
	.st43{fill:#ABD484;}
	.st44{fill:#D257A0;}
	.st45{fill:#D4D4D1;}
	.st46{fill:#E8E8E6;}
	.st47{fill:#414342;}
	.st48{fill:#A458A3;}
	.st49{fill:#F2F2F1;}
	.st50{fill:#CDD2BF;}
	.st51{fill:#83A7AD;}
	.st52{fill:#7475B7;}
	.st53{fill:#8B86C0;}
	.st54{fill:#FFFFFF;}
	.st55{fill:#FFF45F;}
	.st56{fill:#7F94CB;}
	.st57{fill:#FCB246;}
	.st58{fill:#FAA643;}
	.st59{fill:#FFD640;}
	.st60{fill:#E4C3DD;}
	.st61{fill:#C8ABD1;}
	.st62{fill:#FCE1EC;}
	.st63{fill:#A8DEEB;}
	.st64{fill:#95D5CD;}
	.st65{fill:#CFD6ED;}
	.st66{fill:#5CC7F2;}
	.st67{fill:#11ACE4;}
	.st68{fill:#2E6D7A;}
	.st69{fill:#5EB1C2;}
	.st70{fill:#6AC7D8;}
	.st71{fill:#327987;}
	.st72{fill:#4297AA;}
	.st73{fill:#3E457D;}
	.st74{fill:#48508D;}
	.st75{fill:#6392AA;}
	.st76{fill:#75ADC8;}
	.st77{fill:#4E929F;}
	.st78{fill:#59A7B6;}
	.st79{fill:#4F6091;}
	.st80{fill:#BD96C5;}
	.st81{fill:#9B79B6;}
	.st82{fill:#FCDFEA;}
	.st83{fill:#BDD2D7;}
	.st84{fill:#E68B6A;}
	.st85{fill:#92A7B5;}
	.st86{fill:#5D686E;}
	.st87{fill:#E6E7E7;}
	.st88{fill:#016182;}
	.st89{fill:#066A8D;}
	.st90{fill:#414881;}
	.st91{fill:#0B78A0;}
	.st92{fill:#0A81AC;}
	.st93{fill:#27AAE1;}
	.st94{fill:#4DBEEE;}
	.st95{fill:#9ECC49;}
	.st96{fill:#85BD3C;}
	.st97{fill:#956034;}
	.st98{fill:#A8D04D;}
	.st99{fill:#754C29;}
	.st100{fill:#8DC63F;}
	.st101{fill:#FFD200;}
	.st102{fill:#9ED8D4;}
	.st103{fill:#6D6E71;}
	.st104{fill:#808285;}
	.st105{fill:#2E2E2F;}
	.st106{fill:#00A651;}
	.st107{fill:#41485F;}
	.st108{fill:#2E3246;}
	.st109{fill:#515974;}
	.st110{fill:#1B0B00;}
	.st111{fill:#8B5E3C;}
	.st112{fill:#54395E;}
	.st113{fill:#603913;}
	.st114{fill:#F7941D;}
	.st115{fill:#54300A;}
	.st116{fill:#311737;}
</style>
<g>
	<g>
		<g>
			<rect x="262.1651306" y="276.3215027" class="st14" width="189.6697235" height="311.3676758"/>
			<rect x="290.477417" y="276.3146667" class="st15" width="39.6609306" height="311.3751526"/>
			<rect x="383.8571472" y="276.3146667" class="st15" width="39.6611214" height="311.3751526"/>
		</g>
		<rect x="536.0793457" y="288.678772" class="st16" width="8.1482592" height="314.6934509"/>
		<rect x="358.0434265" y="288.678772" class="st16" width="8.1482592" height="314.6934509"/>
		<rect x="169.3112488" y="288.678772" class="st16" width="8.1482592" height="314.6934509"/>
		<g>
			<g>
				<path class="st14" d="M356.999939,120.6505585c-65.936676,101.7540741-247.8728943,190.8907928-247.8728943,190.8907928
					H356.999939h247.8730469C604.8729858,311.5413513,422.936615,222.4046326,356.999939,120.6505585z"/>
				<path class="st15" d="M357,120.6505585l60.8974304,190.8907623h72.1370239
					C490.0344543,311.5413208,387.1192322,183.3311157,357,120.6505585z"/>
				<path class="st15" d="M357,120.6505585l-60.8974304,190.8907623h-72.1370239
					C223.9655457,311.5413208,326.8807678,183.3311157,357,120.6505585z"/>
			</g>
			<g>
				<path class="st17" d="M359.559021,134.4891205h-5.118042V79.8114319c0-1.4132996,1.1457214-2.5590134,2.559021-2.5590134l0,0
					c1.4132996,0,2.559021,1.1457138,2.559021,2.5590134V134.4891205z"/>
				<path class="st18" d="M362.5647278,131.4364929h-11.1302795c-2.4794006,0-4.4893799-2.009964-4.4893799-4.4893799v-2.6212006
					c0-2.4794159,2.0099792-4.4893875,4.4893799-4.4893875h11.1302795c2.4794312,0,4.4893799,2.0099716,4.4893799,4.4893875
					v2.6212006C367.0541077,129.4265289,365.0441589,131.4364929,362.5647278,131.4364929z"/>
				<path class="st14" d="M359.559021,110.6786575V82.5945129c0,0-13.5484619-1.2210541-26.6747742,8.8526077
					c-13.1262817,10.0736618-24.7262573-4.884201-24.7262573-4.884201s2.7473755,26.2525711,16.1789246,24.1157379
					C337.7684631,108.5418167,356.9285889,105.7944565,359.559021,110.6786575z"/>
			</g>
		</g>
		<g>
			<path class="st18" d="M625.6309814,218.7415619c-12.2106323-9.7683868-42.7368164,26.8630219-42.7368164,26.8630219
				s-21.9788208,0-30.5261841,3.6631775c-8.5473633,3.6631622-31.7474365,25.6420898-31.7474365,25.6420898l-17.0945435-1.2211304
				c0,0-15.8736877-12.2104187-29.3051758-14.5431519c-13.4314575-2.3326416-21.9788208,12.1011047-21.9788208,12.1011047
				s-6.1053162-14.6525879-28.084137-12.1011047c-21.9790344,2.5515442-36.6315002,13.3221436-41.5158081,0
				c-4.8842773-13.322052,0-12.31987,0-34.2987823s-25.6420898-24.8279877-25.6420898-24.8279877
				s-25.6419067,2.8490601-25.6419067,24.8279877s4.8840942,20.9767303,0,34.2987823
				c-4.8842773,13.3221436-19.5367737,2.5515442-41.5158081,0c-21.9790039-2.5514832-28.084137,12.1011047-28.084137,12.1011047
				s-8.5473633-14.4337463-21.9790039-12.1011047c-13.4314728,2.3327332-29.3049927,14.5431519-29.3049927,14.5431519
				l-17.0947266,1.2211304c0,0-23.2000427-21.9789276-31.7473145-25.6420898
				c-8.5473633-3.6631775-30.5262909-3.6631775-30.5262909-3.6631775s-30.5261841-36.6314087-42.7367249-26.8630219
				s8.5473709,29.3051605,8.5473709,29.3051605l12.210434,63.4946289h247.8731079h247.8730164l12.2106323-63.4946289
				C617.0836182,248.0467224,637.8414307,228.5099487,625.6309814,218.7415619z"/>
			<g>
				<path class="st17" d="M88.3690567,218.7415619c12.2106323-9.7683868,42.736824,26.8630219,42.736824,26.8630219
					s21.9788208,0,30.5261993,3.6631775c2.0458832,0.87677,4.9347534,2.8085785,8.1403503,5.2313995v57.0421906h-60.6453781
					L96.91642,248.0467224C96.91642,248.0467224,76.1586151,228.5099487,88.3690567,218.7415619z"/>
			</g>
			<g>
				<path class="st17" d="M625.6309814,218.7415619c-12.2106323-9.7683868-42.7368164,26.8630219-42.7368164,26.8630219
					s-21.9788208,0-30.5261841,3.6631775c-2.0458984,0.87677-4.9348145,2.8085785-8.1403809,5.2313995v57.0421906h60.6453857
					l12.2106323-63.4946289C617.0836182,248.0467224,637.8414307,228.5099487,625.6309814,218.7415619z"/>
			</g>
			<g>
				<g>
					<polygon class="st19" points="296.8510437,305.0680542 304.6423035,295.370697 304.6423035,281.9876099 
						296.8510437,272.2895203 285.4837646,272.2895203 277.6917419,281.9876099 277.6917419,295.370697 285.4837646,305.0680542 
											"/>
					<polygon class="st20" points="286.2319641,273.8500061 296.1026001,273.8500061 303.0821838,282.5366516 
						303.0821838,294.8214111 296.1026001,303.5080566 286.2319641,303.5080566 279.2523804,294.8214111 279.2523804,282.5366516 
											"/>
					<polygon class="st21" points="293.7333374,298.5650635 298.1391907,293.0816956 298.1391907,284.2764282 
						293.7333374,278.7930298 288.6012573,278.7930298 284.1954041,284.2764282 284.1954041,293.0816956 288.6012573,298.5650635 
											"/>
					<polygon class="st22" points="286.2319641,303.5080566 288.6012573,298.5650635 293.7333374,298.5650635 
						296.1026001,303.5080566 					"/>
					<polygon class="st22" points="279.2523804,294.8214111 284.1954041,293.0816956 284.1954041,284.2764282 
						279.2523804,282.5366516 					"/>
					<polygon class="st23" points="303.0821838,282.5366516 298.1391907,284.2764282 298.1391907,293.0816956 
						303.0821838,294.8214111 					"/>
					<polygon class="st23" points="296.1026001,273.8500061 293.7333374,278.7930298 288.6012573,278.7930298 
						286.2319641,273.8500061 					"/>
				</g>
				<g>
					<polygon class="st19" points="243.1248627,305.0680542 250.9161072,295.370697 250.9161072,281.9876099 
						243.1248627,272.2895203 231.7575836,272.2895203 223.9655609,281.9876099 223.9655609,295.370697 231.7575836,305.0680542 
											"/>
					<polygon class="st20" points="232.5057678,273.8500061 242.3764038,273.8500061 249.3559875,282.5366516 
						249.3559875,294.8214111 242.3764038,303.5080566 232.5057678,303.5080566 225.5261841,294.8214111 225.5261841,282.5366516 
											"/>
					<polygon class="st21" points="240.0071564,298.5650635 244.4130096,293.0816956 244.4130096,284.2764282 
						240.0071564,278.7930298 234.8750763,278.7930298 230.469223,284.2764282 230.469223,293.0816956 234.8750763,298.5650635 
											"/>
					<polygon class="st22" points="232.5057678,303.5080566 234.8750763,298.5650635 240.0071564,298.5650635 
						242.3764038,303.5080566 					"/>
					<polygon class="st22" points="225.5261841,294.8214111 230.469223,293.0816956 230.469223,284.2764282 
						225.5261841,282.5366516 					"/>
					<polygon class="st23" points="249.3559875,282.5366516 244.4130096,284.2764282 244.4130096,293.0816956 
						249.3559875,294.8214111 					"/>
					<polygon class="st23" points="242.3764038,273.8500061 240.0071564,278.7930298 234.8750763,278.7930298 
						232.5057678,273.8500061 					"/>
				</g>
				<g>
					<polygon class="st19" points="150.9356079,305.0680542 158.7268524,295.370697 158.7268524,281.9876099 
						150.9356079,272.2895203 139.5683289,272.2895203 131.7763062,281.9876099 131.7763062,295.370697 139.5683289,305.0680542 
											"/>
					<polygon class="st20" points="140.3165131,273.8500061 150.187149,273.8500061 157.1667328,282.5366516 
						157.1667328,294.8214111 150.187149,303.5080566 140.3165131,303.5080566 133.3369293,294.8214111 133.3369293,282.5366516 
											"/>
					<polygon class="st21" points="147.8179016,298.5650635 152.2237549,293.0816956 152.2237549,284.2764282 
						147.8179016,278.7930298 142.6858215,278.7930298 138.2799683,284.2764282 138.2799683,293.0816956 142.6858215,298.5650635 
											"/>
					<polygon class="st22" points="140.3165131,303.5080566 142.6858215,298.5650635 147.8179016,298.5650635 
						150.187149,303.5080566 					"/>
					<polygon class="st22" points="133.3369293,294.8214111 138.2799683,293.0816956 138.2799683,284.2764282 
						133.3369293,282.5366516 					"/>
					<polygon class="st23" points="157.1667328,282.5366516 152.2237549,284.2764282 152.2237549,293.0816956 
						157.1667328,294.8214111 					"/>
					<polygon class="st23" points="150.187149,273.8500061 147.8179016,278.7930298 142.6858215,278.7930298 
						140.3165131,273.8500061 					"/>
				</g>
			</g>
			<g>
				<g>
					<polygon class="st19" points="417.1489868,305.0680542 409.3577271,295.370697 409.3577271,281.9876099 
						417.1489868,272.2895203 428.5162659,272.2895203 436.3082581,281.9876099 436.3082581,295.370697 428.5162659,305.0680542 
											"/>
					<polygon class="st20" points="427.7680664,273.8500061 417.8974304,273.8500061 410.9178467,282.5366516 
						410.9178467,294.8214111 417.8974304,303.5080566 427.7680664,303.5080566 434.7476501,294.8214111 434.7476501,282.5366516 
											"/>
					<polygon class="st21" points="420.2666931,298.5650635 415.8608398,293.0816956 415.8608398,284.2764282 
						420.2666931,278.7930298 425.3987732,278.7930298 429.8046265,284.2764282 429.8046265,293.0816956 425.3987732,298.5650635 
											"/>
					<polygon class="st22" points="427.7680664,303.5080566 425.3987732,298.5650635 420.2666931,298.5650635 
						417.8974304,303.5080566 					"/>
					<polygon class="st22" points="434.7476501,294.8214111 429.8046265,293.0816956 429.8046265,284.2764282 
						434.7476501,282.5366516 					"/>
					<polygon class="st23" points="410.9178467,282.5366516 415.8608398,284.2764282 415.8608398,293.0816956 
						410.9178467,294.8214111 					"/>
					<polygon class="st23" points="417.8974304,273.8500061 420.2666931,278.7930298 425.3987732,278.7930298 
						427.7680664,273.8500061 					"/>
				</g>
				<g>
					<polygon class="st19" points="470.8751526,305.0680542 463.0839233,295.370697 463.0839233,281.9876099 
						470.8751526,272.2895203 482.2424622,272.2895203 490.0344543,281.9876099 490.0344543,295.370697 482.2424622,305.0680542 
											"/>
					<polygon class="st20" points="481.4942627,273.8500061 471.6236267,273.8500061 464.644043,282.5366516 
						464.644043,294.8214111 471.6236267,303.5080566 481.4942627,303.5080566 488.4738464,294.8214111 488.4738464,282.5366516 
											"/>
					<polygon class="st21" points="473.9928894,298.5650635 469.5870361,293.0816956 469.5870361,284.2764282 
						473.9928894,278.7930298 479.124939,278.7930298 483.5307922,284.2764282 483.5307922,293.0816956 479.124939,298.5650635 
											"/>
					<polygon class="st22" points="481.4942627,303.5080566 479.124939,298.5650635 473.9928894,298.5650635 
						471.6236267,303.5080566 					"/>
					<polygon class="st22" points="488.4738464,294.8214111 483.5307922,293.0816956 483.5307922,284.2764282 
						488.4738464,282.5366516 					"/>
					<polygon class="st23" points="464.644043,282.5366516 469.5870361,284.2764282 469.5870361,293.0816956 
						464.644043,294.8214111 					"/>
					<polygon class="st23" points="471.6236267,273.8500061 473.9928894,278.7930298 479.124939,278.7930298 
						481.4942627,273.8500061 					"/>
				</g>
				<g>
					<polygon class="st19" points="563.0643921,305.0680542 555.2731934,295.370697 555.2731934,281.9876099 
						563.0643921,272.2895203 574.4317017,272.2895203 582.2236938,281.9876099 582.2236938,295.370697 574.4317017,305.0680542 
											"/>
					<polygon class="st20" points="573.6835327,273.8500061 563.8128662,273.8500061 556.833313,282.5366516 
						556.833313,294.8214111 563.8128662,303.5080566 573.6835327,303.5080566 580.6630859,294.8214111 580.6630859,282.5366516 
											"/>
					<polygon class="st21" points="566.1821289,298.5650635 561.7763062,293.0816956 561.7763062,284.2764282 
						566.1821289,278.7930298 571.314209,278.7930298 575.7200317,284.2764282 575.7200317,293.0816956 571.314209,298.5650635 
											"/>
					<polygon class="st22" points="573.6835327,303.5080566 571.314209,298.5650635 566.1821289,298.5650635 
						563.8128662,303.5080566 					"/>
					<polygon class="st22" points="580.6630859,294.8214111 575.7200317,293.0816956 575.7200317,284.2764282 
						580.6630859,282.5366516 					"/>
					<polygon class="st23" points="556.833313,282.5366516 561.7763062,284.2764282 561.7763062,293.0816956 
						556.833313,294.8214111 					"/>
					<polygon class="st23" points="563.8128662,273.8500061 566.1821289,278.7930298 571.314209,278.7930298 
						573.6835327,273.8500061 					"/>
				</g>
			</g>
			<g>
				<polygon class="st19" points="348.5890808,255.7800751 337.0599976,241.4304352 337.0599976,221.6268311 
					348.5890808,207.276062 365.4098206,207.276062 376.940033,221.6268311 376.940033,241.4304352 365.4098206,255.7800751 				"/>
				<polygon class="st20" points="364.3026733,209.5851898 349.6966248,209.5851898 339.3685913,222.4392395 339.3685913,240.61763 
					349.6966248,253.4716797 364.3026733,253.4716797 374.6307373,240.61763 374.6307373,222.4392395 				"/>
				<polygon class="st21" points="353.2025146,246.1573029 346.6829529,238.0432739 346.6829529,225.0136719 
					353.2025146,216.8996429 360.7966919,216.8996429 367.3162537,225.0136719 367.3162537,238.0432739 360.7966919,246.1573029 
									"/>
				<polygon class="st22" points="364.3026733,253.4716797 360.7966919,246.1573029 353.2025146,246.1573029 
					349.6966248,253.4716797 				"/>
				<polygon class="st22" points="374.6307373,240.61763 367.3162537,238.0432739 367.3162537,225.0136719 374.6307373,222.4392395 
									"/>
				<polygon class="st23" points="339.3685913,222.4392395 346.6829529,225.0136719 346.6829529,238.0432739 339.3685913,240.61763 
									"/>
				<polygon class="st23" points="349.6966248,209.5851898 353.2025146,216.8996429 360.7966919,216.8996429 
					364.3026733,209.5851898 				"/>
			</g>
			<g>
				<polygon class="st19" points="351.105835,305.6739807 343.0265503,295.618103 343.0265503,281.7402344 351.105835,271.6835632 
					362.8934021,271.6835632 370.9734802,281.7402344 370.9734802,295.618103 362.8934021,305.6739807 				"/>
				<polygon class="st20" points="362.1175537,273.3017578 351.8819885,273.3017578 344.6443481,282.3095703 
					344.6443481,295.0485229 351.8819885,304.0563354 362.1175537,304.0563354 369.3551941,295.0485229 369.3551941,282.3095703 
									"/>
				<polygon class="st21" points="354.3388367,298.9305725 349.7700806,293.2444763 349.7700806,284.1136475 
					354.3388367,278.4275513 359.6606445,278.4275513 364.2294006,284.1136475 364.2294006,293.2444763 359.6606445,298.9305725 
									"/>
				<polygon class="st22" points="362.1175537,304.0563354 359.6606445,298.9305725 354.3388367,298.9305725 
					351.8819885,304.0563354 				"/>
				<polygon class="st22" points="369.3551941,295.0485229 364.2294006,293.2444763 364.2294006,284.1136475 
					369.3551941,282.3095703 				"/>
				<polygon class="st23" points="344.6443481,282.3095703 349.7700806,284.1136475 349.7700806,293.2444763 
					344.6443481,295.0485229 				"/>
				<polygon class="st23" points="351.8819885,273.3017578 354.3388367,278.4275513 359.6606445,278.4275513 
					362.1175537,273.3017578 				"/>
			</g>
		</g>
		<g>
			<rect x="120.9224319" y="587.6898193" class="st17" width="483.950531" height="49.0577621"/>
			<rect x="120.9224319" y="587.6898193" class="st18" width="483.950531" height="12.4262695"/>
		</g>
		<g>
			<path class="st24" d="M305.1845093,410.2055054c0,0-5.302124-9.0653076-11.4111938-2.3744507
				c-6.1090393,6.6908569,1.1636353,28.2179871-8.1453857,32.2906799s-9.309021-3.2969666-9.309021-3.2969666
				s-5.2363281,16.6786804,4.3636169,16.0968628c9.5999146-0.5818176,18.5828247-7.6837463,21.800415-23.7689819
				C305.700531,413.0673828,305.1845093,410.2055054,305.1845093,410.2055054z"/>
			<path class="st25" d="M384.810791,366.3271179c0,0-1.8225403-3.0868225-0.3938293-6.7955627
				s1.7788391-1.8525696,3.229248,0.1019287c1.4504089,1.9545288,6.2995911,8.1747131,1.6952209,8.772522
				C384.7370605,369.0037842,384.810791,366.3271179,384.810791,366.3271179z"/>
			<path class="st26" d="M402.0707397,389.9337463c4.6599121,0.3193054,9.579834,0.1479492,14.7598267-1.2046204
				c8.9211426-2.3269653,6.2001648-11.6347046,0-13.9616394c-6.2076721-2.3268738-30.7779846-20.1171875-34.1382446-11.3670044
				c-0.1413574,0.3682556-0.2720337,0.7305908-0.3982544,1.0904236c-0.2880554,0.0505371-0.5759277,0.0972595-0.8648682,0.1684265
				c0,0-3.5837402,7.3901367-8.5291443,20.1900635s-9.8908691,18.6180115-24.7271118,18.0362244
				c-14.8362732-0.5818176-39.5633545-3.7817993-44.217865,9.8908081
				c-1.4827881,4.3556213-1.9275818,9.1531982-1.3437805,13.7643738l0,0
				c-0.1940308,9.1729431-2.9228516,19.980896-8.3531189,26.2661438c-5.4302673,6.2853088-1.1636353,6.5146179-6.2060242,11.1691284
				c-5.0423584,4.6545105-9.3089905,5.8181763-12.7998962,6.8370972s-5.4302673,11.3931274,0,11.3931274
				c5.4302368,0,13.1877747-6.2060242,13.963501-5.0424194c0.7757874,1.1636353,3.7860718-3.1849976,9.559906-13.2698059
				c15.3667908,1.039917,22.7669373-7.6691284,26.3276672-15.9714966
				c16.366333,0.9799194,41.8653564-5.7307739,49.5421753-5.3310547c0.0822449,0.0042419,0.168335,0.005249,0.2515869,0.008667
				c0.3117371,1.5515442,1.225769,2.75177,3.1423035,3.1532898c7.3696289,1.5439453,32.1937256-5.0499573,32.1937256-5.0499573
				l-8.1670532,12.1034241l-6.7688904,1.4722595l-4.0161743-1.4722595l-3.7054443,10.3934021h7.7216187l14.9359436-6.2060242
				l8.5332336-18.618042l-6.2059631-4.4764099l-17.2632141-1.0941467c1.2200012-2.2340393,1.973938-4.9111938,2.0390625-8.1020813
				C397.5920105,412.1707153,398.9729614,397.6169434,402.0707397,389.9337463z"/>
			<path class="st26" d="M404.2071533,384.5138855c-0.0446167,1.0259399-0.2899475,1.9254456-0.7583008,2.661438
				c-1.1002808,1.7322083-2.0369873,4.2301025-2.8175964,7.2410278c-5.2783813-2.6243286-12.1030579-6.9213257-12.1030579-6.9213257
				L404.2071533,384.5138855z"/>
			<ellipse class="st27" cx="399.8089294" cy="371.4313049" rx="0.5818141" ry="1.4908985"/>
			<path class="st28" d="M381.9191284,373.7267151c-3.1075439,4.2598267-5.2337341,5.8210754-6.5942078,12.6085815
				c-1.3605042,6.7874756-1.1672058,11.0547791-4.2301331,15.5153503
				c-2.6466064,3.8435364-14.1697388,2.9365234-14.4671021-0.1412354c-0.0445862-0.4832458,0.1932678-1.0333862,0.7954407-1.620697
				c4.401123-4.2895813,2.9663086-8.1257019,3.7469177-13.9467163c0.7731323-5.8136292,5.8135986-6.2002258,9.6942749-9.5010376
				c3.8807373-3.293396,0.1932983-5.2337341,2.7135315-12.4078369c2.4607544-7.0105286,10.7797241-5.0627747,11.1737366-4.9735413
				c0.0074463,0.0074158,0.0148621,0.0074158,0.0148621,0.0074158
				C388.0003662,359.5866699,385.0192566,369.4668884,381.9191284,373.7267151z"/>
			<path class="st24" d="M380.5884094,372.1803589c-3.1000977,4.2598572-5.2337341,5.8210754-6.5942383,12.6085815
				c-1.3604736,6.7875061-1.1671753,11.0547791-4.2301025,15.5153809
				c-2.1261902,3.0851746-9.9768066,3.1075134-13.1363831,1.4050903c-0.0445862-0.4832458,0.1932678-1.0333862,0.7954407-1.620697
				c4.401123-4.2895813,2.9663086-8.1257019,3.7469177-13.9467163c0.7731323-5.8136292,5.8135986-6.2002258,9.6942749-9.5010376
				c3.8807373-3.293396,0.1932983-5.2337341,2.7135315-12.4078369c2.4607544-7.0105286,10.7797241-5.0627747,11.1737366-4.9735413
				C385.3016968,362.2704468,382.9822083,368.8944397,380.5884094,372.1803589z"/>
			<path class="st29" d="M382.5094604,367.9087219c0,0-2.3695679-2.6898804-1.662384-6.6008606
				s1.3995056-2.1535339,3.1910095-0.506012c1.7914734,1.6475525,7.7220154,6.8469849,3.3117065,8.2984009
				C382.9394531,370.5516663,382.5094604,367.9087219,382.5094604,367.9087219z"/>
			<path class="st30" d="M319.3853455,403.0786438l-0.0003357-1.0671082
				c-0.0001221-0.4421692-0.3267822-0.8005066-0.7297058-0.8005066h-1.1221313
				c-0.4710693,0-0.8196411,0.4779968-0.7109985,0.9809875c0.522522,2.4189453,1.8766479,8.7397766,2.5625916,12.4271851
				c0.8611145,4.6289978,5.9000549,10.3753662,16.6168518,10.3753662s15.6805725-8.140686,16.6168518-11.8917847
				c0.7590332-3.0410461,1.2850952-9.4916687,1.4570618-11.8248291c0.0343933-0.4664612-0.3009033-0.8650208-0.727356-0.8650208l0,0
				c-0.4030151,0-0.7297058,0.3585205-0.7297058,0.8007812v1.8694153c0,3.7084961-15.6454468,15.3669739-21.8999329,12.1745605
				C324.4640198,412.0652466,319.3853455,403.0786438,319.3853455,403.0786438z"/>
			<path class="st31" d="M319.3853455,402.842041l-0.0003357-0.9724121
				c-0.0001221-0.4028931-0.3267822-0.7294312-0.7297058-0.7294312h-1.1221313
				c-0.4710693,0-0.8196411,0.4355469-0.7109985,0.8939209c0.522522,2.2042542,1.8766479,7.9640503,2.5625916,11.3241577
				c0.8611145,4.2181702,5.9000549,9.4544983,16.6168518,9.4544983s15.6805725-7.4181519,16.6168518-10.8363037
				c0.7590332-2.7711182,1.2850952-8.649231,1.4570618-10.7752991c0.0343933-0.4250488-0.3009033-0.7882385-0.727356-0.7882385l0,0
				c-0.4030151,0-0.7297058,0.3266907-0.7297058,0.7297058v1.7034912c0,3.3793335-15.6454468,14.0030212-21.8999329,11.0939636
				C324.4640198,411.0310364,319.3853455,402.842041,319.3853455,402.842041z"/>
			<path class="st32" d="M352.6206055,402.8468323c0,0,0,0-0.5724487,5.2783508
				c-0.565033,5.2709045-6.586792,13.5749817-19.7752075,12.2145386
				c-13.1884155-1.3604736-12.8910828-17.5003357-12.8910828-17.5003357
				c0.0371704-0.0074463,0.0817566-0.0222778,0.118988-0.0297241c6.4529419-1.5240173,30.2947083-0.1338196,32.8892822,0.0222778
				C352.5388184,402.839386,352.6206055,402.8468323,352.6206055,402.8468323z"/>
			<path class="st33" d="M352.3901367,402.8319397c-0.0817566,0.7434387-0.1932983,1.7545166-0.34198,3.1075745
				c-0.565033,5.2783203-6.586792,13.5749817-19.7752075,12.2219849
				c-10.1849976-1.0482788-12.3260803-10.9135742-12.7720947-15.3518372
				C325.9537964,401.2856445,349.7955627,402.6758423,352.3901367,402.8319397z"/>
			<g>
				<path class="st30" d="M402.0660706,389.9334717c-0.5204163,1.3084412-1.0036621,2.8175659-1.4348145,4.4828796
					c-5.2783813-2.6243286-12.1030579-6.9213257-12.1030579-6.9213257c1.2713013,0.6244812,2.5871277,1.0333557,3.8658447,1.2341003
					C395.479248,389.2123718,398.7057495,389.7030029,402.0660706,389.9334717z"/>
				<path class="st30" d="M325.1033325,447.9225769c0,0,1.6879578-7.0735779-2.0938416-9.1099243
					c0,0,5.7211914,0.6212158,5.5757141,9.2075195L325.1033325,447.9225769z"/>
				<path class="st30" d="M374.6455078,442.5915222c0,0,0.3878479-6.5424805,4.1696472-10.2273254
					c0,0-4.5575562,2.4249878-7.8059998,10.379364C371.0091553,442.7435608,373.0818481,442.521698,374.6455078,442.5915222z"/>
			</g>
		</g>
		<g>
			<path class="st34" d="M502.204895,491.7338867c0,0-5.302124-9.0653381-11.4111938-2.3744507
				c-6.1090393,6.6908569,1.1636353,28.2179565-8.1453857,32.2906494s-9.309021-3.296936-9.309021-3.296936
				s-5.2363281,16.6786499,4.3636169,16.0968628c9.5999146-0.5817871,18.5828247-7.6837158,21.800415-23.7690125
				C502.7209167,494.5957642,502.204895,491.7338867,502.204895,491.7338867z"/>
			<path class="st35" d="M581.8311768,447.8554993c0,0-1.8225708-3.086853-0.3937988-6.7955627
				c1.4287109-3.7087402,1.7788086-1.8525696,3.229248,0.1019287c1.4503784,1.9545288,6.2995605,8.1747131,1.6951904,8.772522
				C581.7574463,450.5321655,581.8311768,447.8554993,581.8311768,447.8554993z"/>
			<path class="st36" d="M599.0911255,471.4620972c4.6599121,0.3193054,9.579834,0.1479797,14.7598267-1.2046204
				c8.9211426-2.3269348,6.2001953-11.6346741,0-13.9616089c-6.2076416-2.3269043-30.7779541-20.1171875-34.1382446-11.3670044
				c-0.1413574,0.3682556-0.2720337,0.7305908-0.3982544,1.0903931c-0.2880249,0.0505676-0.5759277,0.09729-0.8648682,0.168457
				c0,0-3.5837402,7.3901367-8.5291748,20.1900635c-4.9453735,12.7998962-9.8908691,18.6180115-24.7270508,18.0362244
				c-14.8363037-0.5818176-39.563385-3.7817993-44.2178955,9.8908081
				c-1.4827881,4.3556213-1.9275818,9.1531982-1.3437805,13.7643738l0,0
				c-0.1940308,9.1729431-2.9228516,19.9808655-8.3531189,26.2661438s-1.1636353,6.5146484-6.2060242,11.1691284
				c-5.0423584,4.65448-9.3089905,5.8181763-12.7998962,6.8370972s-5.4302673,11.3931274,0,11.3931274
				c5.4302368,0,13.1877747-6.2060547,13.963501-5.0424194c0.7757874,1.1636353,3.7860718-3.1849976,9.559906-13.2697754
				c15.3667908,1.039917,22.7669373-7.6691895,26.3276672-15.9715576
				c16.366333,0.9799194,41.8653564-5.7307739,49.5421753-5.3310547c0.0822754,0.0042725,0.168335,0.005249,0.2515869,0.008667
				c0.3117676,1.5515747,1.225769,2.75177,3.1422729,3.1533203c7.3696289,1.5439453,32.1937866-5.0499268,32.1937866-5.0499268
				l-8.1670532,12.1033936l-6.7689209,1.472229l-4.0161743-1.472229l-3.7054443,10.3933716h7.7216187l14.9359741-6.2059937
				l8.5332031-18.618042l-6.2059937-4.4764404l-17.2631836-1.0941162c1.2199707-2.2340698,1.973938-4.9111938,2.0390625-8.1020813
				C594.6124268,493.6990967,595.9933472,479.1453247,599.0911255,471.4620972z"/>
			<path class="st36" d="M601.2275391,466.0422668c-0.0446167,1.0259399-0.289978,1.9254456-0.7583008,2.661438
				c-1.1002808,1.7322083-2.0369873,4.2301025-2.8175659,7.2410278c-5.2783813-2.6243286-12.1030884-6.9213257-12.1030884-6.9213257
				L601.2275391,466.0422668z"/>
			<ellipse class="st37" cx="596.8293457" cy="452.9596863" rx="0.5818141" ry="1.4908985"/>
			<path class="st38" d="M578.9395142,455.2550964c-3.1075439,4.2598267-5.2337646,5.8210754-6.5942383,12.6085815
				c-1.3604736,6.7874451-1.1671753,11.0547791-4.2301025,15.5153503
				c-2.6466064,3.8435059-14.1697388,2.9365234-14.4671021-0.1412659c-0.0446167-0.4832458,0.1932373-1.0333557,0.7954102-1.6206665
				c4.4011841-4.2895813,2.9663696-8.1257019,3.7469482-13.9467163c0.7731323-5.8136292,5.8135986-6.2002258,9.6942749-9.5010681
				c3.8807373-3.2933655,0.1932983-5.2337036,2.713562-12.4078064c2.4607544-7.0105591,10.7797241-5.0627747,11.1737061-4.9735718
				c0.0074463,0.0074463,0.0148926,0.0074463,0.0148926,0.0074463
				C585.020752,441.1150513,582.0396118,450.9952698,578.9395142,455.2550964z"/>
			<path class="st34" d="M577.6087646,453.7087402c-3.1000977,4.2598572-5.2337036,5.8210754-6.5941772,12.6085815
				c-1.3605347,6.7875061-1.1672363,11.0547791-4.2301025,15.5153503
				c-2.1262207,3.0852051-9.9768066,3.1075439-13.1364136,1.4050903c-0.0446167-0.4832458,0.1932373-1.0333557,0.7954102-1.6206665
				c4.4011841-4.2895813,2.9663696-8.1257019,3.7469482-13.9467163c0.7731323-5.8136292,5.8135986-6.2002258,9.6942749-9.5010681
				c3.8807373-3.2933655,0.1932983-5.2337036,2.713562-12.4078064c2.4607544-7.0105591,10.7797241-5.0627747,11.1737061-4.9735718
				C582.3220825,443.7988281,580.0026245,450.4227905,577.6087646,453.7087402z"/>
			<path class="st39" d="M579.5298462,449.4371033c0,0-2.3695679-2.6898804-1.6623535-6.6008606
				c0.7071533-3.9110107,1.3994751-2.1535339,3.190979-0.506012c1.7915039,1.6475525,7.7220459,6.8469849,3.3117065,8.2984009
				C579.9598389,452.0800171,579.5298462,449.4371033,579.5298462,449.4371033z"/>
			<path class="st40" d="M516.4057617,484.6070251l-0.0003662-1.0671082
				c-0.0001221-0.4421692-0.3267822-0.8005066-0.7296753-0.8005066h-1.1221924
				c-0.4710083,0-0.8196411,0.4779968-0.7109985,0.9809875c0.522583,2.4189453,1.876709,8.7397766,2.5626221,12.4271851
				c0.861084,4.6289978,5.9000244,10.3753662,16.6168213,10.3753662s15.680603-8.140686,16.6168823-11.8917847
				c0.7590332-3.0410461,1.2850952-9.4916992,1.4570923-11.8248291c0.0343628-0.4664612-0.3009644-0.8650513-0.727417-0.8650513l0,0
				c-0.4029541,0-0.7296753,0.3585205-0.7296753,0.8007812v1.8694458c0,3.7084961-15.6454468,15.3669739-21.8999634,12.17453
				C521.484436,493.5936279,516.4057617,484.6070251,516.4057617,484.6070251z"/>
			<path class="st41" d="M516.4057617,484.3704224l-0.0003662-0.9724121
				c-0.0001221-0.4028931-0.3267822-0.7294617-0.7296753-0.7294617h-1.1221924
				c-0.4710083,0-0.8196411,0.4355774-0.7109985,0.8939209c0.522583,2.2042847,1.876709,7.9640808,2.5626221,11.3241882
				c0.861084,4.2181396,5.9000244,9.4544678,16.6168213,9.4544678s15.680603-7.4181213,16.6168823-10.8362732
				c0.7590332-2.7711487,1.2850952-8.649231,1.4570923-10.7752991c0.0343628-0.4250488-0.3009644-0.788269-0.727417-0.788269l0,0
				c-0.4029541,0-0.7296753,0.3267212-0.7296753,0.7297058v1.7035217c0,3.3793335-15.6454468,14.0030212-21.8999634,11.0939636
				C521.484436,492.5593872,516.4057617,484.3704224,516.4057617,484.3704224z"/>
			<path class="st42" d="M549.6409912,484.3752136c0,0,0,0-0.5724487,5.2783508
				c-0.5650024,5.2709045-6.586792,13.5749817-19.7752075,12.2145386
				c-13.1884155-1.3604736-12.8910522-17.5003357-12.8910522-17.5003357
				c0.0371094-0.0074463,0.0817261-0.0222778,0.1189575-0.0297241c6.4529419-1.5240173,30.2947388-0.1338196,32.8892822,0.0222778
				C549.5592041,484.3677673,549.6409912,484.3752136,549.6409912,484.3752136z"/>
			<path class="st43" d="M549.4105225,484.360321c-0.0817871,0.7434387-0.1932983,1.7545166-0.34198,3.1075745
				c-0.5650024,5.2783203-6.586792,13.5749817-19.7752075,12.2219849
				c-10.1849976-1.0482788-12.3260498-10.9136047-12.7720947-15.3518372
				C522.9741821,482.8140259,546.815979,484.2042236,549.4105225,484.360321z"/>
			<g>
				<path class="st40" d="M599.0864868,471.461853c-0.5204468,1.3084412-1.0036621,2.8175659-1.4348145,4.4828796
					c-5.2783813-2.6243286-12.1030884-6.9213257-12.1030884-6.9213257c1.2713013,0.6244507,2.5871582,1.0333252,3.8658447,1.2340698
					C592.4996338,470.7407227,595.7261353,471.2313843,599.0864868,471.461853z"/>
				<path class="st40" d="M522.1237183,529.4509277c0,0,1.6879272-7.0735474-2.0938721-9.1099243
					c0,0,5.7211914,0.6212158,5.5757446,9.2075195L522.1237183,529.4509277z"/>
				<path class="st40" d="M571.6658936,524.119873c0,0,0.3878784-6.5424805,4.1696167-10.2272949
					c0,0-4.5574951,2.4249878-7.8059692,10.3793335C568.029541,524.2719116,570.1022339,524.0501099,571.6658936,524.119873z"/>
			</g>
		</g>
		<g>
			<path class="st44" d="M131.3626709,493.5335083c0,0-5.302124-9.0653076-11.411171-2.3744507
				c-6.1090546,6.6908875,1.1636276,28.2180176-8.145401,32.2907104s-9.309021-3.296936-9.309021-3.296936
				s-5.2363281,16.6786499,4.3636017,16.0968018c9.5999298-0.5817871,18.5828323-7.6837158,21.8004227-23.7689819
				S131.3626709,493.5335083,131.3626709,493.5335083z"/>
			<path class="st45" d="M210.9889679,449.6551208c0,0-1.8225555-3.0868225-0.3938446-6.7955627
				c1.4287262-3.7087097,1.7788544-1.8525391,3.2292633,0.1019592c1.4503937,1.9545288,6.2995911,8.1747131,1.6952209,8.7724915
				C210.9152374,452.3318176,210.9889679,449.6551208,210.9889679,449.6551208z"/>
			<path class="st46" d="M228.2489166,473.2617493c4.6599121,0.3193054,9.5798187,0.1479797,14.7598114-1.2046204
				c8.9211578-2.3269348,6.2001801-11.6346741,0-13.9616089c-6.2076569-2.3269043-30.7779846-20.1171875-34.1382446-11.3670044
				c-0.1413422,0.3682556-0.2720337,0.7305603-0.3982544,1.0903931c-0.2880554,0.0505676-0.5759125,0.09729-0.8648529,0.1684265
				c0,0-3.5837555,7.3901672-8.5291595,20.1900635c-4.9454041,12.7999268-9.8908691,18.618042-24.7270966,18.0362549
				c-14.8362732-0.5818176-39.5633698-3.7818298-44.2178802,9.8908081
				c-1.4827728,4.3556213-1.9275818,9.1531982-1.3437805,13.7643738l0,0
				c-0.1940308,9.1729126-2.9228516,19.980896-8.353096,26.2661133c-5.4302902,6.2853394-1.1636505,6.5146484-6.2060318,11.1691284
				c-5.0423737,4.654541-9.3090134,5.8181763-12.7999191,6.8371582c-3.4909058,1.0188599-5.4302444,11.3930664,0,11.3930664
				s13.1877899-6.2059937,13.9635239-5.0424194c0.7757874,1.1636353,3.7860718-3.1849976,9.5598984-13.2697754
				c15.3667984,1.039917,22.7669296-7.6691284,26.3276596-15.9714966
				c16.366333,0.9799194,41.8653564-5.7307739,49.5421753-5.3310547c0.0822601,0.0042725,0.1683502,0.005249,0.2516022,0.008667
				c0.3117371,1.5515137,1.225769,2.75177,3.1422882,3.1533203c7.3696289,1.5438843,32.1937408-5.0499878,32.1937408-5.0499878
				l-8.1670532,12.1033936l-6.7689056,1.47229l-4.0161743-1.47229l-3.7054443,10.3934326h7.7216187l14.9359589-6.2060547
				l8.5332336-18.618042l-6.2059784-4.4763794l-17.2632141-1.0941162c1.2200012-2.2340698,1.9739532-4.9112244,2.0390625-8.1021118
				C223.7701874,495.4987488,225.1511383,480.9449768,228.2489166,473.2617493z"/>
			<path class="st46" d="M230.3853149,467.8419189c-0.0446014,1.0259094-0.2899475,1.9254456-0.7583008,2.661438
				c-1.1002655,1.7322083-2.0369873,4.2301025-2.8175812,7.2410278c-5.2783813-2.6243286-12.1030579-6.9213257-12.1030579-6.9213257
				L230.3853149,467.8419189z"/>
			<ellipse class="st47" cx="225.9871063" cy="454.7593384" rx="0.5818141" ry="1.4908985"/>
			<path class="st48" d="M208.09729,457.0547485c-3.1075287,4.2598267-5.2337341,5.8210449-6.594223,12.6085815
				c-1.3604736,6.7874451-1.1671753,11.0547791-4.2301025,15.5153503
				c-2.6466064,3.8435059-14.169754,2.9364929-14.4671021-0.1412659c-0.0446014-0.4832458,0.1932526-1.0333557,0.7954254-1.6206665
				c4.4011383-4.2895813,2.9663239-8.1257019,3.7469177-13.9467468c0.7731476-5.8135986,5.8136139-6.2001953,9.6942902-9.5010376
				c3.880722-3.2933655,0.1932983-5.2337036,2.7135315-12.4078369c2.4607544-7.0105286,10.7797241-5.0627441,11.1737213-4.9735413
				c0.0074463,0.0074463,0.0148773,0.0074463,0.0148773,0.0074463
				C214.1785278,442.9147034,211.1974182,452.7949219,208.09729,457.0547485z"/>
			<path class="st44" d="M206.766571,455.5083923c-3.1000977,4.2598267-5.2337341,5.8210754-6.594223,12.6085815
				s-1.1671906,11.0547791-4.2301025,15.5153503c-2.1262054,3.0852051-9.9768066,3.1075439-13.1363831,1.4050903
				c-0.0446014-0.4832458,0.1932526-1.0333557,0.7954254-1.6206665c4.4011383-4.2895813,2.9663239-8.1257019,3.7469177-13.9467468
				c0.7731476-5.8135986,5.8136139-6.2001953,9.6942902-9.5010376c3.880722-3.2933655,0.1932983-5.2337036,2.7135315-12.4078369
				c2.4607544-7.0105286,10.7797241-5.0627441,11.1737213-4.9735413
				C211.4798737,445.5984802,209.1603851,452.2224426,206.766571,455.5083923z"/>
			<path class="st49" d="M208.6876221,451.2367249c0,0-2.3695526-2.6898499-1.6623688-6.6008301
				c0.7071838-3.9110107,1.3995056-2.1535339,3.1909943-0.506012c1.7914886,1.6475525,7.7220306,6.8469849,3.3117065,8.2983704
				C209.1176147,453.8796692,208.6876221,451.2367249,208.6876221,451.2367249z"/>
			<path class="st50" d="M145.5635223,486.4066772l-0.0003357-1.0671082
				c-0.0001373-0.4421692-0.3267975-0.8005066-0.7297058-0.8005066h-1.1221466
				c-0.4710541,0-0.8196564,0.4779663-0.7109985,0.9809875c0.522522,2.4189453,1.8766632,8.7397766,2.5625916,12.4271545
				c0.8611145,4.6290283,5.9000549,10.3753967,16.6168518,10.3753967s15.6805878-8.140686,16.6168518-11.8917847
				c0.7590332-3.0410461,1.2851105-9.4916992,1.457077-11.8248291c0.0343781-0.4664612-0.3009186-0.8650513-0.7273712-0.8650513l0,0
				c-0.4029999,0-0.7297058,0.3585205-0.7297058,0.8007812v1.8694458c0,3.7084961-15.6454468,15.3669739-21.8999481,12.17453
				C150.6421814,495.39328,145.5635223,486.4066772,145.5635223,486.4066772z"/>
			<path class="st51" d="M145.5635223,486.1700745l-0.0003357-0.9724121
				c-0.0001373-0.4028931-0.3267975-0.7294617-0.7297058-0.7294617h-1.1221466
				c-0.4710541,0-0.8196564,0.4355774-0.7109985,0.8939209c0.522522,2.2042847,1.8766632,7.9640808,2.5625916,11.3241882
				c0.8611145,4.2181396,5.9000549,9.4544678,16.6168518,9.4544678s15.6805878-7.4181213,16.6168518-10.8362732
				c0.7590332-2.7711487,1.2851105-8.649231,1.457077-10.7752991c0.0343781-0.4250488-0.3009186-0.788269-0.7273712-0.788269l0,0
				c-0.4029999,0-0.7297058,0.3267212-0.7297058,0.7297058v1.7035217c0,3.3793335-15.6454468,14.0030212-21.8999481,11.0939636
				C150.6421814,494.3590393,145.5635223,486.1700745,145.5635223,486.1700745z"/>
			<path class="st52" d="M178.7987671,486.1748352c0,0,0,0-0.5724487,5.2783813
				c-0.5650177,5.2709045-6.5867767,13.5749817-19.7752075,12.2145386
				c-13.1884155-1.3604736-12.8910828-17.5003357-12.8910828-17.5003357
				c0.0371704-0.0074463,0.0817719-0.0223083,0.118988-0.0297241c6.4529572-1.5240173,30.2947235-0.1338196,32.8892822,0.0222778
				C178.7169952,486.1674194,178.7987671,486.1748352,178.7987671,486.1748352z"/>
			<path class="st53" d="M178.5682983,486.1599731c-0.0817566,0.7434082-0.1932983,1.7545166-0.34198,3.1075745
				c-0.5650177,5.2783203-6.5867767,13.5749512-19.7752075,12.2219543
				c-10.1849823-1.0482483-12.3260651-10.9135742-12.7720947-15.3518066
				C152.1319733,484.613678,175.9737396,486.0038757,178.5682983,486.1599731z"/>
			<g>
				<path class="st50" d="M228.2442474,473.2614746c-0.5204163,1.3084412-1.0036621,2.8175964-1.4348145,4.4829102
					c-5.2783813-2.6243286-12.1030579-6.9213257-12.1030579-6.9213257c1.271286,0.6244507,2.5871277,1.0333252,3.8658447,1.2340698
					C221.6574249,472.5403748,224.8839264,473.0310364,228.2442474,473.2614746z"/>
				<path class="st50" d="M151.2814941,531.2506104c0,0,1.6879578-7.0736084-2.0938416-9.1099243
					c0,0,5.7211914,0.6212158,5.5757294,9.2075195L151.2814941,531.2506104z"/>
				<path class="st50" d="M200.8236694,525.9195557c0,0,0.3878632-6.5424805,4.1696472-10.2272949
					c0,0-4.5575409,2.4249268-7.8059998,10.3793335C197.1873169,526.0715942,199.260025,525.8497314,200.8236694,525.9195557z"/>
			</g>
		</g>
	</g>
	<g>
		<path class="st54" d="M353.7564697,220.1860199c-5.8533936,1.6749115-7.9762268,3.79776-9.6511536,9.6511383
			c-0.2851868,0.9966583-1.7013245,0.9966583-1.9865112,0c-1.6749268-5.8533783-3.79776-7.9762268-9.6511536-9.6511383
			c-0.9966736-0.2851868-0.9966736-1.701355,0-1.9865417c5.8533936-1.6749115,7.9762268-3.79776,9.6511536-9.6511383
			c0.2851868-0.9966583,1.7013245-0.9966583,1.9865112,0c1.6749268,5.8533783,3.79776,7.9762268,9.6511536,9.6511383
			C354.7531128,218.4846649,354.7531128,219.9008331,353.7564697,220.1860199z"/>
		<path class="st55" d="M289.5076294,530.2748413c-4.280304,1.2247925-5.8326416,2.7771606-7.0574036,7.0574341
			c-0.2085571,0.7288208-1.2441101,0.7288208-1.4526672,0c-1.2247925-4.2802734-2.7770996-5.8326416-7.0574036-7.0574341
			c-0.7288208-0.2084961-0.7288208-1.2440796,0-1.4526367c4.280304-1.2247925,5.8326111-2.7770996,7.0574036-7.057373
			c0.2085571-0.7288208,1.2441101-0.7288208,1.4526672,0c1.224762,4.2802734,2.7770996,5.8325806,7.0574036,7.057373
			C290.2364197,529.0307617,290.2364197,530.0663452,289.5076294,530.2748413z"/>
		<path class="st55" d="M330.2824707,574.543335c-3.9994202,1.1444092-5.4498901,2.5948486-6.5943298,6.5942993
			c-0.1948547,0.6809692-1.1624756,0.6809692-1.3573303,0c-1.1444092-3.9994507-2.5948792-5.4498901-6.5943298-6.5942993
			c-0.6809692-0.1948853-0.6809692-1.1624756,0-1.3573608c3.9994507-1.1444092,5.4499207-2.5949097,6.5943298-6.5942993
			c0.1948547-0.6810303,1.1624756-0.6810303,1.3573303,0c1.1444397,3.9993896,2.5949097,5.4498901,6.5943298,6.5942993
			C330.9634705,573.3808594,330.9634705,574.3484497,330.2824707,574.543335z"/>
		<path class="st55" d="M233.8419189,410.8841553c-3.9994354,1.1444397-5.4499054,2.5949097-6.5943298,6.5943298
			c-0.1948547,0.6809998-1.1624756,0.6809998-1.3573303,0c-1.1444244-3.9994202-2.5948944-5.4498901-6.5943298-6.5943298
			c-0.6809845-0.1948547-0.6809845-1.1624756,0-1.3573303c3.9994354-1.1444092,5.4499054-2.5948792,6.5943298-6.5943298
			c0.1948547-0.6809692,1.1624756-0.6809692,1.3573303,0c1.1444244,3.9994507,2.5948944,5.4499207,6.5943298,6.5943298
			C234.5229034,409.7216797,234.5229034,410.6893005,233.8419189,410.8841553z"/>
		<path class="st55" d="M459.1078491,564.4133301c-3.9994202,1.1444092-5.4498901,2.5949097-6.5943298,6.5943604
			c-0.1948547,0.6809692-1.1624756,0.6809692-1.3573303,0c-1.1444092-3.9994507-2.5948792-5.4499512-6.5943298-6.5943604
			c-0.6809692-0.1948242-0.6809692-1.1624756,0-1.3573608c3.9994507-1.1444092,5.4499207-2.5948486,6.5943298-6.5942993
			c0.1948547-0.6809692,1.1624756-0.6809692,1.3573303,0c1.1444397,3.9994507,2.5949097,5.4498901,6.5943298,6.5942993
			C459.7888489,563.2508545,459.7888489,564.2185059,459.1078491,564.4133301z"/>
		<path class="st55" d="M515.8909912,433.0428772c-3.9994812,1.1444092-5.4499512,2.5948792-6.5943604,6.5943298
			c-0.1948547,0.6809692-1.1624756,0.6809692-1.3573303,0c-1.1444092-3.9994507-2.5949097-5.4499207-6.5943298-6.5943298
			c-0.6809998-0.1948547-0.6809998-1.1624756,0-1.3573303c3.9994202-1.1444397,5.4499207-2.5949097,6.5943298-6.5943298
			c0.1948547-0.6809998,1.1624756-0.6809998,1.3573303,0c1.1444092,3.9994202,2.5948792,5.4498901,6.5943604,6.5943298
			C516.5719604,431.8804016,516.5719604,432.8480225,515.8909912,433.0428772z"/>
		<path class="st55" d="M157.460144,558.9758301c-3.9994354,1.1444092-5.4499207,2.5949097-6.5943298,6.5943604
			c-0.1948547,0.6809692-1.1624756,0.6809692-1.3573456,0c-1.1444092-3.9994507-2.5948792-5.4499512-6.5943146-6.5943604
			c-0.6809845-0.1948242-0.6809845-1.1624756,0-1.3572998c3.9994354-1.1444092,5.4499054-2.5949097,6.5943146-6.5943604
			c0.19487-0.6809692,1.1624908-0.6809692,1.3573456,0c1.1444092,3.9994507,2.5948944,5.4499512,6.5943298,6.5943604
			C158.1411285,557.8133545,158.1411285,558.7810059,157.460144,558.9758301z"/>
		<path class="st55" d="M433.947052,353.7312927c-6.2693176,1.7939148-8.5430298,4.067627-10.3369446,10.3369446
			c-0.3054504,1.0674744-1.8222656,1.0674744-2.1277161,0c-1.7939148-6.2693176-4.067627-8.5430298-10.3369446-10.3369446
			c-1.0674744-0.3054504-1.0674744-1.8222656,0-2.1277161c6.2693176-1.7939148,8.5430298-4.067627,10.3369446-10.3369446
			c0.3054504-1.0674744,1.8222656-1.0674744,2.1277161,0c1.7939148,6.2693176,4.067627,8.5430298,10.3369446,10.3369446
			C435.0145264,351.9090271,435.0145264,353.4258423,433.947052,353.7312927z"/>
		<path class="st55" d="M411.0075989,341.1005859c-3.739563,1.0700684-5.0957947,2.4263-6.165863,6.1658936
			c-0.1822205,0.6367493-1.0869446,0.6367493-1.269165,0c-1.0700684-3.7395935-2.4263-5.0958252-6.1658936-6.1658936
			c-0.6367188-0.1821899-0.6367188-1.0869446,0-1.2691345c3.7395935-1.0700684,5.0958252-2.4263,6.1658936-6.1658936
			c0.1822205-0.6367493,1.0869446-0.6367493,1.269165,0c1.0700684,3.7395935,2.4263,5.0958252,6.165863,6.1658936
			C411.6443481,340.0136414,411.6443481,340.918396,411.0075989,341.1005859z"/>
		<path class="st55" d="M253.6849518,390.0997009c-3.7395782,1.0700684-5.0958099,2.4263-6.1658783,6.1658936
			c-0.1822052,0.6367188-1.0869598,0.6367188-1.2691498,0c-1.0700684-3.7395935-2.4263-5.0958252-6.1658936-6.1658936
			c-0.636734-0.1821899-0.636734-1.0869446,0-1.269165c3.7395935-1.0700378,5.0958252-2.4263,6.1658936-6.165863
			c0.1821899-0.6367493,1.0869446-0.6367493,1.2691498,0c1.0700684,3.739563,2.4263,5.0958252,6.1658783,6.165863
			C254.321701,389.0127563,254.321701,389.917511,253.6849518,390.0997009z"/>
		<path class="st54" d="M338.7158508,233.6845398c-3.8469543,1.1007843-5.2421265,2.4959412-6.3428955,6.3428955
			c-0.187439,0.655014-1.1181641,0.655014-1.305603,0c-1.100769-3.8469543-2.4959412-5.2421112-6.3428955-6.3428955
			c-0.6549988-0.1874237-0.6549988-1.1181641,0-1.3055878c3.8469543-1.1007843,5.2421265-2.4959412,6.3428955-6.3428955
			c0.187439-0.655014,1.1181641-0.655014,1.305603,0c1.100769,3.8469543,2.4959412,5.2421112,6.3428955,6.3428955
			C339.3708496,232.5663757,339.3708496,233.4971161,338.7158508,233.6845398z"/>
		<path class="st54" d="M374.3119507,284.4612427c-3.8469543,1.1007996-5.2421265,2.4959717-6.3428955,6.3428955
			c-0.187439,0.6550293-1.1181641,0.6550293-1.3055725,0c-1.1007996-3.8469238-2.4959717-5.2420959-6.3428955-6.3428955
			c-0.6550293-0.1874084-0.6550293-1.1181335,0-1.3055725c3.8469238-1.100769,5.2420959-2.4959412,6.3428955-6.3428955
			c0.1874084-0.6549988,1.1181335-0.6549988,1.3055725,0c1.100769,3.8469543,2.4959412,5.2421265,6.3428955,6.3428955
			C374.9669495,283.3431091,374.9669495,284.2738342,374.3119507,284.4612427z"/>
	</g>
</g>
</svg>
