<?xml version="1.0" encoding="utf-8"?>
<!-- Generator: Adobe Illustrator 25.2.1, SVG Export Plug-In . SVG Version: 6.00 Build 0)  -->
<svg version="1.1" id="Слой_2" xmlns="http://www.w3.org/2000/svg" xmlns:xlink="http://www.w3.org/1999/xlink" x="0px" y="0px"
	 viewBox="0 0 714 714" style="enable-background:new 0 0 714 714;" xml:space="preserve">
<style type="text/css">
	.st0{fill:#FAFAFA;}
	.st1{fill:#E6E6E6;}
	.st2{fill:#BFADD5;}
	.st3{fill:#AC9ACA;}
	.st4{fill:#9386B2;}
	.st5{fill:#F2F2F2;}
	.st6{fill:#FFDB0B;}
	.st7{fill:#978DB7;}
	.st8{fill:#C9BDD6;}
	.st9{fill:#C8BADC;}
	.st10{fill:#6EB52C;}
	.st11{fill:#2F358B;}
	.st12{fill:#FFEE00;}
	.st13{fill:#40519E;}
	.st14{fill:#282B74;}
	.st15{fill:#D8EDEC;}
	.st16{fill:#77BAE7;}
	.st17{fill:#0871B8;}
	.st18{fill:#005CA9;}
	.st19{fill:#48A5DC;}
	.st20{fill:#00B0EA;}
	.st21{fill:#006FB9;}
	.st22{fill:#1A1A1A;}
	.st23{fill:#1D1D1E;}
	.st24{fill:#47474B;}
	.st25{fill:#28292A;}
	.st26{fill:#FFD300;}
	.st27{fill:#754D24;}
	.st28{fill:#543616;}
	.st29{fill:#62401C;}
	.st30{fill:#EFEFEE;}
	.st31{fill:#F7A715;}
	.st32{fill:#47AE4C;}
	.st33{fill:#44A549;}
	.st34{fill:#F7F1F4;}
	.st35{fill:#F9B97F;}
	.st36{fill:#026838;}
	.st37{fill:#FFDA00;}
	.st38{fill:#333333;}
	.st39{fill:#EB5C88;}
	.st40{fill:#F9BB3E;}
	.st41{fill:#40BFE6;}
	.st42{fill:#A079B4;}
	.st43{fill:#9370A5;}
	.st44{fill:#010202;}
</style>
<g>
	<g>
		<path class="st39" d="M341.9481506,249.8033905c109.4116516-6.3352051,206.0654602,70.1960602,232.4890442,176.8159943
			c1.2699585,5.1244812,5.869873,8.6911316,11.0996094,8.6911316h0.000061c7.4981689,0,12.9393921-7.1404419,11.105896-14.4844666
			c-12.4116821-49.7151489-39.1719971-94.664856-77.7989502-129.6658936
			c-24.2990723-22.0177002-51.9101257-38.8366394-82.0654297-49.9892578
			c-31.1438293-11.5183105-63.4880371-16.3972321-96.141571-14.5161896
			c-59.9014893,3.4603577-116.8597107,29.8344879-160.3806,74.2638702
			c-32.7206268,33.4034729-55.6417084,74.8899536-66.7730026,119.914978
			c-1.8160019,7.3455505,3.6098099,14.4769592,11.1051941,14.4769592h0.1100769
			c5.2164688,0,9.8123398-3.5474243,11.0913162-8.6557617C159.9878387,330.0046997,243.8056335,255.4724121,341.9481506,249.8033905
			z"/>
	</g>
	<g>
		<path class="st40" d="M344.4643555,287.7581177c87.844635-4.8699341,165.1990051,55.4701538,183.6200562,138.4942932
			c1.1742554,5.29245,5.8158569,9.0581055,11.1853027,9.0581055h0.000061c7.3355103,0,12.8178101-6.8661499,11.2091064-14.095459
			c-9.1485596-41.1112366-31.3612061-78.3394775-64.2684631-106.9396057
			c-40.171936-34.9126587-90.9578857-52.5552368-143.0036011-49.6683044
			c-48.0680237,2.6633301-93.7890472,22.9777527-128.7424927,57.2015076
			c-28.0411682,27.4553223-47.1484985,62.0006714-55.3877716,99.4047852
			c-1.5933533,7.2333984,3.874176,14.0970764,11.2103424,14.0970764h0.0531464c5.3560944,0,9.9968414-3.7453003,11.1768036-9.022583
			C198.3580627,350.9669495,265.4891052,292.1338196,344.4643555,287.7581177z"/>
	</g>
	<g>
		<path class="st41" d="M456.280426,344.3607178c-31.0373535-26.2218628-70.2487488-39.4694824-110.453186-37.3071289
			c-37.1278076,1.9993591-72.4544678,17.2638855-99.4737549,42.9808044
			c-20.8841095,19.8780518-35.3781128,44.7037659-42.1526642,71.6479187
			c-1.7410278,6.92453,3.5521851,13.6282043,10.625061,13.6282043h0.0000305c5.005249,0,9.3331604-3.4446106,10.5894012-8.338623
			c13.7111664-53.4152832,63.3492737-94.7871094,121.5730896-97.9232483
			c63.6948242-3.4371033,121.8119507,39.7923584,137.0602417,97.946106
			c1.2793579,4.8792725,5.5906067,8.3157654,10.587616,8.3157654h0.0267639c7.1690979,0,12.3665771-6.8467712,10.5750732-13.8585205
			C497.6729431,391.8428955,480.8103333,365.0845947,456.280426,344.3607178z"/>
	</g>
	<g>
		<path class="st42" d="M430.9804688,371.6349182c-23.1491394-18.4747009-52.3786316-27.8074341-82.2962952-26.2881165
			c-27.6581116,1.4072571-54.0004272,12.17099-74.1737976,30.3088684
			c-14.3553162,12.9064026-24.7056427,28.7733765-30.2834473,46.0673523
			c-2.1650238,6.7126465,2.8998108,13.5874939,9.8890839,13.5874939h0.0000305c4.4192657,0,8.4073944-2.8132324,9.7905426-7.052887
			c11.1088257-34.0506897,45.5870972-60.0227661,85.8177185-62.069397
			c44.1694031-2.236084,84.5463867,24.8912048,96.9268799,62.0548401c1.4110107,4.2355957,5.366333,7.0674438,9.7905884,7.0674438
			h0.0473328c7.0797729,0,12.0509644-7.0068665,9.8268433-13.7961426
			C460.0541382,402.3997498,447.957489,385.1840515,430.9804688,371.6349182z"/>
	</g>
	<g>
		<path class="st41" d="M248.5240479,429.1083374c-0.8364563,0-1.6629333,0.0490417-2.4771729,0.1409302
			c-5.4047241-13.730957-17.9115906-23.3731689-32.4436951-23.3731689c-0.918396,0-1.8253174,0.0506897-2.7268677,0.1262817
			c-6.2649231-15.2022095-20.2600708-25.8190918-36.4911041-25.8190918c-17.0376129,0-31.6133728,11.6956787-37.368927,28.1161499
			c-2.1217499-0.4585266-4.311676-0.7104797-6.5552216-0.7104797c-18.5979004,0-33.7274628,16.5196533-33.7274628,36.826355
			c0,20.3066711,15.1295624,36.8263245,33.7274628,36.8263245c5.7846527,0,11.2322845-1.6017151,15.9951172-4.4151001
			c6.2120667,5.9409485,14.3360138,9.5536804,23.2228699,9.5536804c9.223114,0,17.6281738-3.8876038,23.9229736-10.2351074
			c5.6896667,4.2893677,12.5796204,6.8093872,20.0011597,6.8093872c7.5969543,0,14.6347504-2.64328,20.4002533-7.1193542
			c4.0305634,3.3758545,9.0561371,5.4064941,14.5206146,5.4064941c13.1824341,0,23.9060974-11.6922302,23.9060974-26.0657959
			C272.4301453,440.8022461,261.7064819,429.1083374,248.5240479,429.1083374z"/>
	</g>
	<g>
		<path class="st41" d="M593.3605957,429.7644348c-0.8364258,0-1.6629639,0.0496521-2.4771729,0.1427307
			c-5.4047241-13.9050598-17.9115601-23.6695557-32.4436646-23.6695557c-0.918396,0-1.8253174,0.0513306-2.7268677,0.1278687
			c-6.2649536-15.3949585-20.2600708-26.1464539-36.4911499-26.1464539c-17.0375977,0-31.6133423,11.8439636-37.3688965,28.4726562
			c-2.1217651-0.4643555-4.311676-0.7195129-6.5552368-0.7195129c-18.5979004,0-33.7274475,16.7291565-33.7274475,37.293335
			s15.1295471,37.2933044,33.7274475,37.2933044c5.784668,0,11.2322693-1.6220398,15.9951172-4.4710999
			c6.2120667,6.0162659,14.3360291,9.6748047,23.2229004,9.6748047c9.2230835,0,17.6281738-3.9368591,23.9229126-10.3648682
			c5.6896973,4.34375,12.5796509,6.895752,20.0012207,6.895752c7.5969238,0,14.6347046-2.6768188,20.4002075-7.2096558
			c4.0305786,3.4186401,9.0561523,5.4750671,14.5206299,5.4750671c13.1824341,0,23.9061279-11.8404846,23.9061279-26.3963318
			S606.5430298,429.7644348,593.3605957,429.7644348z"/>
	</g>
	<g>
		<path class="st38" d="M599.315979,427.6297913c0.6724854-2.4144287,0.7385864-4.9888306,0.1081543-7.5124817
			c-12.6281128-50.5870361-39.8300781-95.9260864-78.664856-131.1144104
			c-24.5714417-22.2650757-52.4952087-39.2736511-82.9945679-50.5536499
			c-31.5013733-11.6507721-64.2356262-16.592514-97.2915649-14.6882782
			c-60.61203,3.5016937-118.2360382,30.1792297-162.2568054,75.1191864
			c-30.2152405,30.8453674-52.3819733,68.7946167-64.5539246,110.3144226
			c-11.7482834,6.6092224-19.7979126,19.9110107-19.7979126,35.22052c0,21.871582,16.4175644,39.6648865,36.5965576,39.6648865
			c5.3854675,0,10.7305908-1.3014526,15.58255-3.7801819c6.7259674,5.7655945,15.041214,8.9182739,23.6355591,8.9182739
			c8.8700562,0,17.3724823-3.3200989,24.1925964-9.3993835c5.9514771,3.9154053,12.7245026,5.973999,19.731781,5.973999
			c7.2628174,0,14.2555237-2.204895,20.35495-6.3974609c4.3487244,3.0718079,9.3419189,4.6847534,14.5659943,4.6847534
			c14.7632599,0,26.7749176-12.9666748,26.7749176-28.9042358c0-9.2228394-4.0270386-17.4441833-10.2766418-22.7403564
			c0.6719055-0.9941406,1.222229-2.0864563,1.6083374-3.2700806c10.9099426-33.4375305,45.1382141-58.1440125,83.2366638-60.0822449
			c41.163269-2.0828247,79.8002319,21.9164429,93.0969238,57.3931274
			c-2.7174072,5.6106567-4.2640991,12.0042725-4.2640991,18.7893677c0,22.1478271,16.4175415,40.166687,36.5965271,40.166687
			c5.3843689,0,10.7294922-1.3179626,15.5825806-3.8269653c6.7259521,5.8386841,15.0411987,9.0313721,23.6355591,9.0313721
			c8.8688965,0,17.3724976-3.3622131,24.1937256-9.5185547c5.9503174,3.9650269,12.722229,6.0485535,19.7306519,6.0485535
			c7.2628174,0,14.2554932-2.2328491,20.3560791-6.4785461c4.3486938,3.1118774,9.3407593,4.7441406,14.5648804,4.7441406
			c14.7632446,0,26.7749023-13.1299744,26.7749023-29.2695618
			C620.135498,442.2601013,611.2211914,430.598877,599.315979,427.6297913z M182.2960815,302.9569702
			c43.0210114-43.9187622,99.3123474-69.989502,158.504364-73.4085388
			c32.2679749-1.862915,64.2288818,2.9673157,94.9916382,14.344101
			c29.8111877,11.0252686,57.1095276,27.6545868,81.136261,49.4249115
			c37.9807129,34.4156494,64.5841675,78.7521973,76.9321289,128.2172852
			c0.4533691,1.816803,0.3149414,3.6765442-0.3424072,5.3605042c-0.0526733-0.0003357-0.1047974-0.0043945-0.1574707-0.0043945
			c-0.2062378,0-0.4135742,0.0027771-0.6220703,0.0078735c-4.4378052-9.9783325-12.190979-17.4396362-21.4213867-21.0724487
			c-32.305542-94.8581848-119.4571838-159.2862396-216.7588196-159.2862396c-4.2355347,0-8.50354,0.1228333-12.7738037,0.3696442
			c-85.7870483,4.9558411-162.2921295,62.04599-196.7490692,143.1656189
			c-4.115036,4.1925659-7.5138702,9.2558594-9.8647614,15.0119934c-1.5736237-0.2239685-3.1494751-0.3364563-4.7096252-0.3364563
			c-3.4319153,0-6.750061,0.5257263-9.9017639,1.4873962C132.7222748,367.4320679,153.8668365,331.9790955,182.2960815,302.9569702z
			 M479.3040161,405.3629456c-21.8136902-47.1437378-71.6699219-79.4021912-125.2836914-79.4021912
			c-2.3872986,0-4.7846985,0.0639648-7.1843567,0.1936035c-51.7156677,2.7854614-97.4349976,34.9532166-117.4503479,80.5898438
			c-4.8603821-2.3952332-10.2189484-3.7060852-15.782074-3.7060852c-0.0818176,0-0.1669922,0.0030518-0.249939,0.0037537
			c7.7935181-18.9962463,19.6667786-36.3342285,34.9680176-50.8983154
			c26.526123-25.2476501,61.208313-40.2331238,97.6580505-42.1956787
			c39.4736633-2.1318054,77.983429,10.8877258,108.4603882,36.6358032
			c14.7834167,12.4894409,26.7569885,27.2344666,35.521698,43.5599365
			c-4.1559448,4.2633972-7.5873108,9.4237976-9.9550171,15.2953796
			C479.7724915,405.4052429,479.538269,405.3916626,479.3040161,405.3629456z M234.3675995,409.716217
			c19.0032501-44.0119019,62.9775238-75.0911865,112.7743683-77.7732849
			c52.9967346-2.8613281,103.2346191,27.5453186,125.6938782,73.2563477
			c-3.2223206,0.2362061-6.3291931,0.9324646-9.2713013,2.0287781c-7.0773315-14.3654175-17.541748-27.281189-30.8053589-37.8670349
			c-23.6904602-18.9071655-53.5879517-28.4578247-84.219574-26.9090881
			c-28.3093262,1.4406433-55.2770386,12.4636536-75.9368591,31.0385437
			c-13.7007141,12.3179932-24.0171814,27.499054-29.990509,44.0786743
			C240.21315,414.5196838,237.4369202,411.8772888,234.3675995,409.716217z M458.1207886,342.1377869
			c-31.5921631-26.6922607-71.5444031-40.1759644-112.4459839-37.9784851
			c-37.8047791,2.0361328-73.7759094,17.5786133-101.289444,43.7659302
			c-14.9470673,14.2268677-26.7312164,31.0173035-34.822876,49.3924255
			c-2.8322754-4.4111328-6.322464-8.2194824-10.2861938-11.2920837
			c27.9926758-53.9037476,83.8076935-91.9641724,145.3449554-95.3737488
			c67.2814331-3.7368774,130.0941772,32.4293518,162.2658081,88.7168884
			c-4.5067749,1.5071411-8.7327881,3.841095-12.5373535,6.8287964
			C485.3036804,369.7068787,473.1070862,354.7982788,458.1207886,342.1377869z M464.0364075,321.7311096
			c-31.6728516-24.1308289-70.3193665-37.1418457-109.7941589-37.1418457c-3.306366,0-6.6217041,0.091156-9.9348145,0.275116
			c-38.566925,2.1369019-76.3806763,17.5304871-106.4743042,43.3447876
			c-17.9244843,15.3753967-32.6585999,34.0337219-43.3729401,54.5794983
			c-5.1781311-2.9877014-10.934021-4.8354187-16.943222-5.3147888
			c9.7666931-19.7293701,22.8666687-37.8421936,38.9446411-53.5843506
			c34.4569244-33.7375183,79.5245361-53.7632446,126.9020996-56.3886414
			c51.3127441-2.8405151,101.364563,14.5467529,140.9749451,48.9714661
			c20.7842407,18.0639343,37.2466125,39.5648804,48.776947,63.4507446
			c-4.4042358-1.6668396-9.0841675-2.5777283-13.894104-2.5777283c-2.1934204,0-4.3599243,0.1964417-6.4894409,0.5605469
			C500.7001953,356.26474,484.166626,337.068512,464.0364075,321.7311096z M488.0821533,312.0785522
			c-40.7401733-35.4062805-92.2467957-53.2962341-145.0322571-50.3651428
			c-48.7584229,2.7012634-95.1328735,23.3043823-130.58284,58.0144043
			c-17.2514496,16.8911133-31.1797028,36.4354553-41.3549347,57.7602844
			c-5.8029785,0.4904175-11.3638458,2.2929993-16.4029999,5.139801
			c35.4197083-73.9417114,107.2594452-125.3016357,187.4026642-129.9307709h0.0010986
			c98.4398193-5.7168427,188.48703,56.7827606,222.4480286,151.2266693c-2.003479-0.3564758-4.0461426-0.559906-6.1212769-0.559906
			c-0.2902832,0-0.5861816,0.0045166-0.8910522,0.0140686c-3.6885986-8.0786133-9.3463745-14.6630249-16.1469116-19.1941528
			C529.4673462,356.8656921,511.4201355,332.3622437,488.0821533,312.0785522z M269.5608826,455.1757507
			c0,12.808136-9.4371643,23.2284241-21.0363922,23.2284241c-4.5885773,0-8.968689-1.6372681-12.6662292-4.7345581
			l-1.7854309-1.4965515l-1.8414917,1.428894c-5.4885864,4.2624207-11.9309845,6.5149231-18.6277924,6.5149231
			c-6.5410156,0-12.8556366-2.1538696-18.2624054-6.2289124l-2.015213-1.5186768l-1.7731171,1.7880554
			c-6.0007935,6.0526428-13.7690887,9.3849487-21.873642,9.3849487c-7.7851105,0-15.3236542-3.1094666-21.229187-8.7552795
			l-1.5792084-1.5109558l-1.886322,1.1140747c-4.443985,2.6261902-9.4663239,4.0140381-14.5233917,4.0140381
			c-17.0149612,0-30.8580322-15.2469177-30.8580322-33.9890747c0-10.7683105,4.5751266-20.3757935,11.691124-26.6076355
			c2.1866913-1.9146423,4.6081924-3.5158997,7.2163086-4.7272644c3.6779251-1.7079163,7.7156296-2.653656,11.9505997-2.653656
			c1.9625244,0,3.9620361,0.2172852,5.9436188,0.6451721l0.7879333,0.1703186l1.7002563,0.3673706l0.8350067-2.3806458
			c2.2001343-6.276825,5.7682343-11.708313,10.2150269-15.9898071c5.1646729-4.9722595,11.5235596-8.3715515,18.3845673-9.6441345
			c1.9855194-0.3682251,4.0080109-0.5737,6.0579681-0.5737c0.1597137,0,0.3171844,0.0170288,0.4763336,0.0193176
			c6.0545959,0.0864563,11.8760681,1.8051758,17.0345764,4.8549805c1.666626,0.9853821,3.2682648,2.0991211,4.7807922,3.3508301
			c4.0937347,3.3876343,7.5609589,7.7194519,10.1270447,12.7738342c0.504364,0.9929504,0.9835052,2.0059509,1.4150085,3.0536499
			l0.7968903,1.9321899l2.1026306-0.1756897c0.0078583-0.0006409,0.0134583-0.0007629,0.0213013-0.0014038
			c0.9381104-0.0779114,1.7221222-0.1149902,2.4635315-0.1149902c4.7992859,0,9.425415,1.1714172,13.6116333,3.3088074
			c1.7361145,0.8863831,3.3870697,1.9532166,4.9522705,3.1594849c3.4212646,2.6373901,6.3874817,5.9978943,8.6963348,9.9515686
			c0.9476471,1.6230774,1.7960968,3.3345642,2.5083618,5.1447144l0.8025055,2.0386047l2.1967773-0.248291
			c0.7195587-0.0815125,1.4447174-0.1225586,2.1530609-0.1225586c4.598114,0,8.8431549,1.6565857,12.3087006,4.4315186
			C266.109375,440.6024475,269.5608826,447.4444885,269.5608826,455.1757507z M354.8250732,363.1608887
			c-1.7417297,0-3.4935608,0.0441589-5.2453613,0.1324768c-40.4129028,2.0565186-76.7640076,28.3978271-88.3979492,64.0577087
			c-0.2191162,0.6716309-0.5424805,1.2844543-0.9280396,1.8469238c-3.5445557-1.8727722-7.5245209-2.9275513-11.7292328-2.9275513
			c-0.2062225,0-0.4146881,0.0027466-0.6231689,0.007782c-0.3793945-0.8426514-0.7868042-1.6643066-1.2138367-2.4698792
			c0.0605316-0.3980408,0.1412354-0.7951965,0.2678833-1.1873474c5.4403839-16.8710022,15.6285248-32.3625183,29.4626312-44.8006897
			c19.6869507-17.6997375,45.40271-28.2048035,72.4107666-29.5786438
			c29.2037048-1.4853516,57.7719421,7.6305542,80.3729858,25.6671143
			c12.5541382,10.0200806,22.459259,22.2175903,29.1600037,35.7662964
			c-4.5420532,2.6145325-8.5231628,6.243988-11.6950378,10.6150208
			C431.7969666,386.276123,394.8395386,363.1608887,354.8250732,363.1608887z M593.3605957,479.6845398
			c-4.5897217,0-8.968689-1.6580811-12.6651611-4.7935181l-1.7854004-1.5154724l-1.8414917,1.446991
			c-5.4885864,4.3152466-11.9309692,6.5964355-18.6289062,6.5964355c-6.5421753,0-12.8567505-2.1812744-18.2612915-6.3068237
			l-2.0140991-1.5379333l-1.774231,1.810791c-6.0018921,6.1282043-13.7702026,9.5038757-21.8747559,9.5038757
			c-7.7851257,0-15.3236694-3.1488647-21.2269592-8.866272l-1.5792236-1.5300903l-1.8862915,1.1281738
			c-4.4473572,2.6583252-9.469696,4.0638428-14.5256653,4.0638428c-17.0149536,0-30.8580017-15.4402771-30.8580017-34.4189758
			c0-4.1517334,0.662384-8.1340942,1.8756409-11.8225098c0.7593689-2.3088989,1.7411804-4.4972534,2.9051514-6.5452576
			c2.8524475-5.020813,6.832428-9.1672974,11.5459595-11.9861145c1.6498413-0.9865112,3.3882141-1.8103943,5.1994324-2.4527588
			c2.9454651-1.0448914,6.0798035-1.612854,9.3318176-1.612854c0.0482178,0,0.0975342,0.0037537,0.1457214,0.0040283
			c1.9160156,0.0106201,3.8650818,0.2266541,5.7979126,0.649292l0.7532043,0.1647949l1.7349854,0.3796692l0.835022-2.4107971
			c1.8526917-5.3525085,4.680481-10.0930176,8.177948-14.052002c1.3449707-1.522522,2.7891235-2.9237366,4.3212585-4.1973267
			c3.776001-3.1383972,8.0664368-5.4805603,12.6522217-6.8569641c1.9216309-0.5766602,3.8897705-0.9862976,5.8959961-1.2093201
			c1.1942139-0.1328125,2.395752-0.2243652,3.6101074-0.2243652c6.2630615,0,12.2896729,1.7842407,17.6067505,4.989563
			c3.4487305,2.0791626,6.5864258,4.7689819,9.303833,7.9566345c2.8137817,3.3009338,5.1803589,7.1279602,6.9232178,11.4114685
			l0.796875,1.9577942l2.1037598-0.1790771c0.9291382-0.0791016,1.7406006-0.1178284,2.4837036-0.1178284
			c2.8569336,0,5.6460571,0.4411316,8.3242188,1.2363586c2.4450073,0.7259827,4.7914429,1.7580566,6.9971924,3.0801086
			c6.3118286,3.7835083,11.4719849,9.862915,14.4483032,17.5215149l0.3513794,0.9045105l0.4511108,1.1599426l2.197876-0.2514954
			c0.7184448-0.082489,1.4414062-0.1240234,2.1508789-0.1240234c1.0916138,0,2.1564331,0.1221924,3.2037964,0.3023987
			c10.0799561,1.734375,17.8325806,11.4711304,17.8325806,23.2217407
			C614.3969727,469.1332397,604.9597778,479.6845398,593.3605957,479.6845398z"/>
		<path class="st38" d="M135.4604034,416.9028931c-0.0745239-0.0263062-0.1451416-0.0595093-0.2236023-0.0783997
			c-0.4746552-0.1131287-9.7353134-2.2435303-18.3408585,2.2549438c-1.9440384,1.0162964-3.855011,2.3684082-5.623085,4.1614075
			c-0.3424072,0.3473511-0.6679993,0.6994629-0.9779053,1.0550232c-4.6944962,5.3812866-5.7794342,11.5794983-5.9991074,14.9193726
			c-0.0829468,1.2770386,0.8742218,2.3819885,2.1396179,2.4669189c0.0515518,0.0033875,0.1019897,0.0045166,0.1535492,0.0045166
			c1.198143,0,2.2079849-0.9396667,2.288681-2.1657715c0.1423416-2.1717834,0.7296448-5.8183594,2.8726273-9.4125977
			c0.7302017-1.224762,1.6391754-2.4433594,2.775116-3.5955811c0.5178146-0.5248108,1.0524368-0.9969177,1.5971451-1.4328613
			c7.6657562-6.1345825,17.6039352-3.8516541,18.0517044-3.7438049c0.0117645,0.0027466,0.0229797,0.0020447,0.0347443,0.0046692
			c1.2177582,0.2745972,2.4383087-0.4895935,2.7291565-1.7238159
			C137.2133484,418.4502563,136.5565491,417.2905273,135.4604034,416.9028931z"/>
		<path class="st38" d="M167.6605988,388.9621887c-0.5710602,0.0834045-1.1381836,0.1841736-1.7013855,0.3014221
			c-3.914978,0.8154297-7.6158752,2.4403076-10.7888794,4.7489929
			c-7.9554749,5.7886047-10.5041962,14.2495728-11.2304688,17.6182556c-0.2701111,1.2515564,0.515564,2.4867249,1.7540588,2.7590027
			c0.1647644,0.0362244,0.3295135,0.053772,0.4909058,0.053772c1.0558014,0,2.0062561-0.7409973,2.2404938-1.8255615
			c0.614212-2.8467407,2.761673-9.9921875,9.4282227-14.8422546c1.8269196-1.3293152,3.8690186-2.3821411,6.0361023-3.135498
			c1.4295807-0.4971619,2.91185-0.8670654,4.4277344-1.0884705c1.2553101-0.1834106,2.125061-1.3591309,1.9434814-2.6265564
			C170.0792999,389.6578674,168.9058075,388.7787781,167.6605988,388.9621887z"/>
		<path class="st38" d="M481.3864746,417.0656433c-0.1759644-0.0422974-1.5567932-0.3595886-3.6560669-0.5170288
			c-2.5072632-0.1879883-6.0417175-0.1442871-9.8014526,0.8720398c-1.7579956,0.4752808-3.5630493,1.1676941-5.3344727,2.1452942
			c-1.7882385,0.9868164-3.5411987,2.2609558-5.1730957,3.9154968c-2.4237366,2.4584045-4.0180664,5.1482849-5.0643616,7.6943054
			c-0.8518066,2.0721741-1.3370972,4.0437012-1.6134033,5.7223511c-0.1585693,0.960907-0.2516174,1.8295288-0.2992554,2.5571594
			c-0.0829163,1.2770386,0.8742371,2.3819885,2.1396179,2.4668884c0.0515747,0.003418,0.1020203,0.0045471,0.1535645,0.0045471
			c1.1981506,0,2.2079773-0.9396667,2.2886963-2.1657715c0.0308228-0.4736633,0.0863037-1.0231628,0.1714783-1.6212158
			c0.2297668-1.6238403,0.7033081-3.6431885,1.6459045-5.7506714c0.8445129-1.888031,2.0617065-3.8418884,3.8303528-5.6357422
			c1.0384216-1.052948,2.1418457-1.9080811,3.2721863-2.6186829c1.7798462-1.1188354,3.6257935-1.8450317,5.4168701-2.3112488
			c4.3431091-1.1307373,8.3079529-0.714325,10.0396118-0.4237671c0.5088501,0.0853882,0.8473206,0.1595459,0.9190369,0.1764526
			c1.2306519,0.3011475,2.4725037-0.4703979,2.7650452-1.7179871
			C483.3803711,418.6127014,482.6193542,417.3622742,481.3864746,417.0656433z"/>
		<path class="st38" d="M513.8091431,389.2027588c-0.5301514,0.0774841-1.0569458,0.1728516-1.5809326,0.2795715
			c-3.9592285,0.8071289-7.7038269,2.4385986-10.9093323,4.770874c-0.7442322,0.5415649-1.4267883,1.1122437-2.0791016,1.6943054
			c-1.6655273,1.4855042-3.0463562,3.076355-4.1822815,4.6781006c-3.1763611,4.4779968-4.4843445,8.9967651-4.9690857,11.2458191
			c-0.2701111,1.2515564,0.515564,2.4867249,1.7540588,2.7590027c0.1647644,0.0362244,0.3294983,0.053772,0.4909058,0.053772
			c1.0557861,0,2.0062561-0.7409668,2.2404785-1.8255615c0.3200073-1.4822998,1.0636597-4.1322632,2.6361389-7.014679
			c0.9750977-1.7870178,2.2758179-3.6584778,3.9951172-5.4039612c0.833313-0.8459778,1.7540588-1.6647339,2.7969666-2.4236145
			c2.9808044-2.1687317,6.5281372-3.6116943,10.2694092-4.1895752c0.0650024-0.0100403,0.1289062-0.0248413,0.194458-0.0343933
			c1.2553101-0.1834106,2.125061-1.3591309,1.9434814-2.6265564S515.0577393,389.019928,513.8091431,389.2027588z"/>
		<path class="st38" d="M237.1897888,269.7113647c0.4909058,0,0.9885406-0.1273499,1.4424744-0.3951111
			c11.7258606-6.905426,24.2149963-12.9442139,37.1210938-17.9476776c1.4794617-0.5734253,2.2191772-2.2501221,1.6509399-3.7445374
			c-0.5671387-1.4927063-2.2225647-2.2421875-3.7065125-1.6670532
			c-13.1941223,5.1149597-25.9634552,11.2895966-37.9549561,18.3518524
			c-1.3696289,0.8060608-1.8325195,2.5806885-1.0345154,3.9635925
			C235.2418213,269.1962585,236.2023468,269.7113647,237.1897888,269.7113647z"/>
		<path class="st38" d="M143.6551819,367.1341248c0.4382324,0.2428284,0.9112091,0.3577576,1.3774719,0.3577576
			c1.0131989,0,1.9961548-0.5440063,2.5184479-1.505188c20.4401398-37.6507263,48.1341248-68.7028198,80.0871735-89.8001099
			c1.3259125-0.8757019,1.6980286-2.671814,0.8316345-4.0116882c-0.8674927-1.3410339-2.6473389-1.7157593-3.9721375-0.8406067
			c-32.7387238,21.616333-61.0861511,53.3828125-81.9790955,91.8651123
			C141.7576599,364.603241,142.2653809,366.3648376,143.6551819,367.1341248z"/>
	</g>
</g>
</svg>
